<svg viewBox="0 0 100 31" xmlns="http://www.w3.org/2000/svg"><g fill="none" fill-rule="evenodd"><path d="m61.9778133 23.6013096c-5.8042274 4.2831123-14.2196382 6.561453-21.4657158 6.561453-10.1564335 0-19.3013622-3.753861-26.2223133-10.0031645-.5432805-.4903203-.0585719-1.1612664.594487-.7807246 7.4666866 4.3448408 16.6999993 6.9616358 26.2373947 6.9616358 6.4334367 0 13.5055523-1.3352284 20.0126423-4.0951211.9813419-.4163163 1.804154.6467457.8435051 1.3559214z" fill="#f8982c"/><path d="m64.3936402 20.8438719c-.7428457-.9508285-4.9081128-.4506878-6.7789056-.2265715-.5667793.0676909-.6548125-.4268381-.1437992-.7859854 3.3224634-2.3337561 8.7664913-1.6596534 9.3992079-.8785782.6379775.7884406-.1665967 6.2464977-3.2807265 8.8517187-.479097.4005334-.9343442.1869389-.7221527-.342663.7004074-1.7494403 2.2692218-5.6670921 1.5263761-6.6179206z" fill="#f8982c"/><path d="m57.746609 3.34561154v-2.26781887c.001403-.34511812.2616445-.57519687.5748462-.57449541l10.1634481-.00105219c.3247758.00035073.5857187.23674261.5864202.57274176l-.0007015 1.94479673c-.0024551.32617871-.2770765.75196469-.7652924 1.42782101l-5.2644543 7.51649033c1.9542665-.0459456 4.0214679.2462123 5.7972129 1.24474.4001827.2248178.507506.5583619.5390717.885242v2.4193342c0 .333544-.364759.7189961-.7481067.5183786-3.1285098-1.6386096-7.2797477-1.8178325-10.7386449.0199916-.3535357.1883419-.7235556-.1918492-.7235556-.5253932v-2.300086c0-.3679156.0070146-.9978263.3780867-1.5586433l6.0995419-8.75035769-5.3107506-.00105219c-.324425 0-.5850173-.23113093-.5871217-.57063738zm-37.0735425 14.16317066h-3.0916832c-.2942623-.0192901-.529602-.2406006-.5534516-.5229381l.0021044-15.86912042c0-.3177612.2672561-.57133884.5965914-.57133884l2.8794916-.00105219c.3016276.01578284.5432805.24375721.5625706.53310929v2.07176092h.0578704c.7505618-2.00371934 2.1647043-2.93876498 4.0691671-2.93876498 1.9339241 0 3.1460463.93504564 4.0123489 2.93876498.7502111-2.00371934 2.4530042-2.93876498 4.2715382-2.93876498 1.2987525 0 2.712895.53451221 3.5788469 1.73646323.981342 1.3359298.7796723 3.27265974.7796723 4.97580364l-.0024551 10.01473865c0 .3170597-.2672561.5713388-.5962406.5713388h-3.0885266c-.3103959-.0199916-.5552053-.2658531-.5552053-.5699359l-.0007015-8.41295564c0-.66814027.0578704-2.3376141-.0866302-2.97243504-.231131-1.06832296-.9234716-1.3688984-1.8181833-1.3688984-.7505618 0-1.5298834.50084215-1.8476446 1.30225974-.3174104.80141759-.2882999 2.13699666-.2882999 3.0390737v8.41155274c0 .3170597-.2672561.5713388-.5962406.5713388h-3.0885266c-.3100452-.0199916-.5552053-.2658531-.5552053-.5699359l-.0028058-8.41295564c0-1.77013329.2886506-4.3750035-1.9048136-4.3750035-2.2225747 0-2.1359444 2.53823155-2.1359444 4.3750035l-.001403 8.41155274c.0003508.3170597-.2669053.5713388-.5962406.5713388zm57.1759716-14.05900391c-2.2804451 0-2.4246105 3.10536163-2.4246105 5.04244231 0 1.9367299-.0287444 6.0777967 2.3958507 6.0777967 2.3958353 0 2.5108746-3.3392984 2.5108746-5.37633711 0-1.3359298-.0575197-2.93876497-.4615604-4.20770538-.3468718-1.10199303-1.0395631-1.53619652-2.0205544-1.53619652zm-.0287598-3.23934041c4.5892994 0 7.0710635 3.94044928 7.0710635 8.94957225 0 4.84217557-2.7413041 8.68301757-7.0710635 8.68301757-4.5026691 0-6.9560241-3.9408-6.9560241-8.84961422 0-4.94248431 2.4821148-8.7829756 6.9560241-8.7829756zm13.0222467 17.29834432h-3.0801091c-.3096944-.0199916-.5548546-.2658531-.5548546-.5699359l-.0049102-15.87578428c.025954-.29005354.2823375-.51767718.5937856-.51767718l2.8679175-.00105219c.270062.01402919.4927754.19851306.5495936.44472538v2.42740093h.0578704c.8663026-2.17066672 2.0780741-3.20602108 4.2140186-3.20602108 1.3850319 0 2.7420055.50084215 3.6079574 1.87009128.8084322 1.26894041.8084322 3.4062878.8084322 4.94248431v9.98562813c-.035073.2812853-.2872477.5001406-.5927334.5001406h-3.0997499c-.2861955-.0185886-.5169757-.2290265-.5506458-.5001406v-8.61637899c0-1.73646323.2020204-4.27469478-1.9339241-4.27469478-.7505618 0-1.4432531.50084215-1.7894234 1.26894041-.4324499.96836497-.490671 1.93708067-.490671 3.00575437v8.54518079c-.0056117.3170597-.2728678.5713388-.6025538.5713388zm-38.0804878-.0399832c-.2048262.1837825-.49979.196058-.7305702.0718997-1.0269369-.8533256-1.21107-1.2478967-1.7722377-2.0605376-1.6975322 1.7290979-2.8998339 2.2478273-5.0978576 2.2478273-2.6031166 0-4.6282304-1.6066932-4.6282304-4.8193782 0-2.5101731 1.3594287-4.21682435 3.2975616-5.05331491 1.6775406-.73653258 4.0207664-.87016063 5.8140478-1.07112881v-.40158562c0-.73618184.0578704-1.6066932-.3759823-2.24221559-.3763331-.56923447-1.0991872-.80352197-1.7357618-.80352197-1.1791536 0-2.2274849.60430744-2.4852713 1.85676355-.0536617.27883019-.2567343.55415308-.5369674.568533l-2.9969861-.32442506c-.2528762-.05716896-.5341615-.25989078-.4612097-.64639502.6888333-3.63601582 3.9716643-4.73415081 6.914638-4.73415081 1.5039294 0 3.4708221.40158562 4.6566395 1.53935308 1.5042801 1.40572503 1.3594287 3.28002507 1.3594287 5.32162323v4.81692303c0 1.4492155.6022031 2.0847379 1.1672288 2.8658132.1974609.2812853.2420035.6158815-.0101712.8210584-.6316643.529602-1.753649 1.5042802-2.3712841 2.0538737zm-3.1172865-7.53858623c0 1.20475683.0287599 2.20854553-.5787042 3.27967433-.4917231.8705114-1.2724477 1.405725-2.1405039 1.405725-1.1861682 0-1.8799117-.9038306-1.8799117-2.2425663 0-2.63327931 2.3621652-3.11237621 4.5991198-3.11237621zm-37.4162056 7.53858623c-.2048262.1837825-.5001407.196058-.7305701.0718997-1.0272876-.8533256-1.21107-1.2478967-1.77258843-2.0605376-1.69718149 1.7290979-2.89948324 2.2478273-5.09750689 2.2478273-2.60346729 0-4.62787968-1.6066932-4.62787968-4.8193782 0-2.5101731 1.3594287-4.21682435 3.29721083-5.05331491 1.67754062-.73653258 4.0207664-.87016063 5.81369713-1.07112881v-.40158562c0-.73618184.05787042-1.6066932-.37563161-2.24221559-.37598234-.56923447-1.09953792-.80352197-1.73541104-.80352197-1.17950431 0-2.22818641.60430744-2.48527135 1.85676355-.05401239.27883019-.25708494.55415308-.53766878.568533l-2.99663539-.32442506c-.25287619-.05716896-.53451222-.25989078-.46120969-.64639502.68848259-3.63601582 3.97166423-4.73415081 6.91428724-4.73415081 1.5042801 0 3.47082206.40158562 4.65699026 1.53935308 1.5039294 1.40572503 1.3594287 3.28002507 1.3594287 5.32162323v4.81692303c0 1.4492155.6018523 2.0847379 1.166878 2.8658132.1974609.2812853.2420036.6158815-.0098204.8210584-.6316644.529602-1.7539997 1.5042802-2.3712842 2.0538737zm-3.11763714-7.53858623c0 1.20475683.02911058 2.20854553-.57835343 3.27967433-.49172318.8705114-1.27244771 1.405725-2.14050396 1.405725-1.18581745 0-1.87991172-.9038306-1.87991172-2.2425663 0-2.63327931 2.36216519-3.11237621 4.59876911-3.11237621z" fill="#000"/></g></svg>