<svg viewBox="0 0 48 49" xmlns="http://www.w3.org/2000/svg" xmlns:xlink="http://www.w3.org/1999/xlink"><radialGradient id="a" cx="17.537%" cy="17.493%" gradientTransform="scale(.99813 1)" r="93.458%"><stop offset="0" stop-color="#9dd5f6"/><stop offset=".07" stop-color="#98d3f5"/><stop offset=".16" stop-color="#89cef3"/><stop offset=".25" stop-color="#70c6ef"/><stop offset=".35" stop-color="#4ebbea"/><stop offset=".45" stop-color="#23ade3"/><stop offset=".5" stop-color="#0da6e0"/><stop offset="1" stop-color="#2e77bc"/></radialGradient><g fill="none" transform="translate(.1 .61)"><path d="m.0462604.19385772v47.49938258h47.3218148v-15.6703571c.1775678-.2663517.2663516-.6214872.2663516-1.0654067 0-.4883114-.0887838-.7546631-.2663516-1.0210148v-29.74260398z" fill="url(#a)" transform="translate(.145 .163)"/><g fill="#fff"><path d="m-.00016779 7.92231544h2.27197987l.51224832-1.23557047h1.14681208l.51090604 1.23557047h4.46996645v-.94463088l.39899329.94848994h2.32046984l.3989932-.9625839v.95872484h11.1087249l-.0052014-2.02818792h.2149329c.1505034.00520134.1944631.01912751.1944631.26761745v1.76057047h5.7456376v-.47214765c.463255.24832214 1.1840604.47214765 2.1325503.47214765h2.4171141l.5172819-1.23557047h1.1468121l.5058725 1.23557047h4.6578859v-1.17382551l.7053691 1.17382551h3.7325503v-7.75838927h-3.6939597v.91627517l-.5172819-.91627517h-3.7904362v.91627517l-.475-.91627517h-5.1199665c-.8570469 0-1.6102349.11963088-2.2187919.45285235v-.45285235h-3.5333893v.45285235c-.3872483-.34345637-.9149329-.45285235-1.5016778-.45285235h-12.9082215l-.8661074 2.00385906-.88942951-2.00385906h-4.06577182v.91627517l-.44664429-.91627517h-3.46744967l-1.6102349 3.68875839zm43.91912749-1.09261745h-1.8842282l-2.520302-4.17516779v4.17516779h-2.7078859l-.5174496-1.24077182h-2.7620806l-.5020134 1.24077182h-1.5558725c-.6463087 0-1.4645973-.14295302-1.9280201-.61526846-.4672819-.47248322-.7104027-1.11208054-.7104027-2.12365772 0-.825.145302-1.57936241.7169463-2.17516778.429698-.44395973 1.1028524-.64882551 2.0191275-.64882551h1.2874161v1.19194631h-1.2604027c-.4852349 0-.7592281.07231544-1.0231543.32969799-.2266779.23422819-.3822148.67701342-.3822148 1.26006711 0 .59580537.1184564 1.02567114.3657718 1.30637584.2045302.22013423.5765101.28691275.9265101.28691275h.5971476l1.8741611-4.37483221h1.9922819l2.2511745 5.26174497v-5.26174497h2.0243289l2.3372483 3.87432886v-3.87432886h1.3619127zm-15.7395973 0h-1.3567114v-5.56275168h1.3567114zm-2.1278523-4.06459732c0 .88691275-.5919463 1.34513423-.9369128 1.48271812.2909396.11073826.5394295.30637584.6578859.46845638.1875839.27667785.2199665.5238255.2199665 1.02063758v1.09278524h-1.3411074l-.0050336-.70151007c0-.33473154.032047-.81610738-.2098993-1.08372483-.1942953-.19563759-.4904362-.23808725-.9691275-.23808725h-1.427349v2.02332215h-1.3295302v-5.56291947h3.0582215c.6795302 0 1.1802013.01812081 1.6100671.26644296.4206376.24865771.6728188.61124161.6728188 1.23187919m-6.2627517 4.06459732h-4.4417785v-5.56291947h4.4417785v1.15855705h-3.1119128v1.00251678h3.0372484v1.14043624h-3.0372484v1.11073826h3.1119128zm-5.4325503 0h-1.3632551l-.0050335-4.3568792-1.9280202 4.3568792h-1.16744964l-1.93305369-4.36057047v4.36057047h-2.70436241l-.51090604-1.24077182h-2.76845638l-.51610738 1.24077182h-1.44412752l2.38104027-5.56291947h1.97550336l2.26140939 5.26694631v-5.26694631h2.17013423l1.74010071 3.77382551 1.5984899-3.77382551h2.2139262v5.56291947zm21.4796979-2.40033557-.9201342-2.21761745-.9149329 2.21761745zm-11.5231543-.88322148c-.1827181.11107383-.3988255.1147651-.6577181.1147651h-1.6152685v-1.23557047h1.6372483c.2317114 0 .4736577.01040269.6305369.10016779.1724833.08120805.2791947.25369127.2791947.4919463 0 .24312081-.1015101.43875839-.2739933.52869128m-20.04865774.88322148-.91006711-2.21761745-.90486578 2.21761745" transform="translate(.19 16.487)"/><path d="m16.442953 2.97785235c0 1.54580537-1.1531879 1.8647651-2.315604 1.8647651h-1.6588926v1.86627517h-2.58456378l-1.63724832-1.84177853-1.70134229 1.84177853h-5.26694631v-5.56409396h5.3478188l1.63590604 1.8238255 1.69127516-1.8238255h4.2488255c1.0552014 0 2.2407718.29211409 2.2407718 1.83305369m-10.57080535 2.57147651h-3.26912752v-1.1068792h2.91895974v-1.13523489h-2.91895974v-1.01157719h3.33355705l1.45436242 1.62147651zm5.27197985.65352349-2.04144294-2.26644295 2.04144294-2.19429531zm3.0426175-2.49026846h-1.7182886v-1.41677852h1.7337248c.4800336 0 .8130873.19563758.8130873.68204698 0 .48137584-.3176175.73473154-.8285235.73473154m8.9709731-2.56778523h4.4377517v1.15083892h-3.1137584v1.01157719h3.0377517v1.13523489h-3.0377517v1.1068792l3.1137584.00503356v1.1545302h-4.4377517zm-1.679698 2.9783557c.2958054.10939598.5379195.30520134.6513423.4671141.1877517.27164429.2149329.52516778.2201342 1.01577181v1.10285235h-1.3347315v-.69614094c0-.33456376.032047-.83036913-.2149329-1.08892618-.1942953-.19949664-.4904362-.24714765-.9756711-.24714765h-1.4208054v2.03221477h-1.3360738v-5.56409396h3.0697986c.6729866 0 1.1632551.02969798 1.5998323.26275168.4196308.2533557.683557.60067114.683557 1.23540268-.0001678.88808725-.5924497 1.34127517-.9424497 1.48020134m-.8030201-.69244966c-.1780201.10553691-.3978188.1147651-.6565436.1147651h-1.6152685v-1.24966443h1.6370806c.2369127 0 .4738255.00503356.6347315.10033557.1723154.09010067.2751678.26258389.2751678.50050336 0 .23825503-.1028524.42986577-.2751678.5340604m11.9978188.34379194c.2588926.26778524.3978188.60604027.3978188 1.17869128 0 1.19697987-.7478188 1.7557047-2.0889262 1.7557047h-2.5895973v-1.19295302h2.5793624c.2521812 0 .4308725-.03338926.542953-.13791947.091443-.08590604.1572148-.21107382.1572148-.36275167 0-.16224833-.0709732-.2909396-.1622483-.36812081-.1018457-.08489933-.2419463-.12348993-.47349-.12348993-1.2434563-.04228188-2.8008389.0385906-2.8008389-1.72214765 0-.80704698.5072148-1.65654363 1.9010067-1.65654363h2.6657718v1.18439598h-2.4390939c-.2417785 0-.3989933.00889261-.5328859.10033557-.1454698.09026845-.1994967.2238255-.1994967.40033557 0 .21006711.1236577.35268456.2909396.41459731.1402685.04882551.2907718.06291947.5174497.06291947l.7157718.0192953c.7216443.01778523 1.2172819.14261745 1.5182886.447651m5.3040268 2.2228188c-.3229865.47231543-.952349.71157718-1.8043624.71157718h-2.567953v-1.19295302h2.5573826c.2536912 0 .4313758-.03338926.5380872-.13791947.0926174-.08590604.1573826-.21107382.1573826-.36275167 0-.16224833-.0647652-.29077182-.1625839-.36812081-.0963088-.08489933-.236745-.12348993-.4684564-.12348993-1.2483222-.04228188-2.8058725.0385906-2.8058725-1.72214765 0-.80704698.5122483-1.65654363 1.9077181-1.65654363h2.6486577v-1.10687919h-2.460906c-.7426175 0-1.2822148.17785235-1.664094.45436241v-.45436241h-3.6399328c-.5818792 0-1.2652685.14412752-1.5882551.45436241v-.45436241h-6.4998322v.45436241c-.5172819-.37315436-1.3901007-.45436241-1.7927852-.45436241h-4.2872484v.45436241c-.4092281-.39647651-1.3192953-.45436241-1.874161-.45436241h-4.79815439l-1.09781879 1.18825503-1.02835571-1.18825503h-7.16744966v7.7635906h7.03255033l1.13120806-1.20687919 1.0659396 1.20687919 4.33489936.00385906v-1.82617449h.4261745c.575.00872483 1.2533557-.01442953 1.8520134-.27298658v2.09530201h3.5753356v-2.02365772h.172651c.2199664 0 .2417785.00922819.2417785.22919464v1.79412751h10.8615772c.6897651 0 1.4105704-.17651007 1.8097315-.49681208v.49681208h3.445302c.7167785 0 1.4171141-.10050335 1.9498322-.3578859zm0-3.66828859h-2.4234899c-.2417785 0-.4025168.0090604-.5380872.10033557-.1402685.09026845-.1942953.2238255-.1942953.40033557 0 .21006711.1184563.35268456.2909396.41459731.1402684.04882551.2909395.06291947.5122483.06291947l.7206376.0192953c.7271812.0181208 1.2127516.14295302 1.508557.44798657.0540269.04228188.0862416.09010068.1234899.1375839" transform="translate(9.52 26.183)"/></g></g></svg>