<svg viewBox="0 0 2487 380" xmlns="http://www.w3.org/2000/svg"><g fill="none" transform="translate(.04 .89)"><path d="m119.705903 121.705903c35.593236 0 65.158586 18.370703 79.223655 38.176616v-33.296898h54.25098v247.143356h-39.037743c-4.116079.016873-8.068446-1.610769-10.978978-4.521301s-4.538174-6.8629-4.521302-10.978979v-17.796618c-13.778026 20.092956-43.343376 38.463658-78.936612 38.463658-67.7419647 0-119.12252297-57.982529-119.12252297-128.594917 0-70.612387 51.09351607-128.594917 119.12252297-128.594917m9.472394 49.371263c-43.9174606 0-73.769852 34.732109-73.769852 79.223654s29.5653492 79.223654 73.769852 79.223654c43.91746 0 73.769852-34.732109 73.769852-79.223654s-29.278307-79.223654-73.769852-79.223654m185.71619-44.491545h54.538152v33.583941c14.926196-24.685632 43.056334-38.463659 75.205063-38.463659 57.408445 0 94.436892 40.472954 94.436892 103.335201v148.688003h-39.037742c-4.11608.016743-8.068447-1.610899-10.978979-4.521431s-4.538174-6.8629-4.521302-10.978979v-124.289284c0-39.037742-19.805913-62.862247-51.380558-62.862247-36.16732 0-63.723374 28.130138-63.723374 80.945908v121.706033h-39.037742c-4.11608.016743-8.068447-1.610899-10.978979-4.521431s-4.538174-6.8629-4.521431-10.978979zm386.358964-4.879718c35.593236 0 65.158585 18.370703 79.223655 38.176616v-156.72505452h54.25098v370.85855452h-39.037743c-4.116079.016873-8.068447-1.610769-10.978978-4.521301-2.910532-2.910532-4.538174-6.8629-4.521302-10.978979v-17.796618c-13.778027 19.805914-43.630418 38.176616-79.223654 38.176616-67.741965 0-119.122523-57.982529-119.122523-128.594917.287042-70.612387 51.6676-128.594917 119.409565-128.594917m9.759436 49.371263c-43.91746 0-73.769852 34.732109-73.769852 79.223654s29.565349 79.223654 73.769852 79.223654c43.91746 0 73.769852-34.732109 73.769852-79.223654s-29.852392-79.223654-73.769852-79.223654m185.429277-44.491545h54.250981v43.917461c9.750056-27.682588 35.809979-46.280419 65.158585-46.501138 7.12859-.016235 14.24208.656662 21.24112 2.009593v55.973234c-8.78945-2.963894-17.99361-4.514067-27.26901-4.592676-31.287599 0-59.417737 26.120843-59.417737 75.779148v120.557864h-39.037743c-4.116079.016743-8.068447-1.610899-10.978979-4.521431s-4.538174-6.8629-4.521431-10.978979v-231.643076zm287.616306 252.310116c-73.19576 0-129.45604-56.83436-129.45604-128.594917 0-71.760556 56.26028-128.594917 129.45604-128.594917 73.19577 0 129.45605 56.834361 129.45605 128.594917 0 71.760557-56.26028 128.594917-129.45605 128.594917m0-50.519432c43.63042 0 74.0569-34.158024 74.0569-78.075485 0-43.91746-30.71352-78.075485-74.0569-78.075485-43.91746 0-74.63097 34.158025-74.63097 78.075485 0 43.917461 30.71351 78.075485 74.63097 78.075485m200.64252-255.7546221c-20.05392 0-36.31084-16.2569174-36.31084-36.3108414s16.25692-36.3108415 36.31084-36.3108415 36.31084 16.2569177 36.31084 36.3108415-16.25692 36.3108414-36.31084 36.3108414m-26.98197 53.9639381h54.25098v247.143486h-39.03774c-4.11608.016743-8.06845-1.610899-10.97898-4.521431s-4.53817-6.8629-4.52143-10.978979c.28717 0 .28717-231.643076.28717-231.643076zm218.15209-4.879718c35.59324 0 65.15859 18.370703 79.22366 38.176616v-156.72505452h54.25098v370.85855452h-39.03775c-4.11608.016873-8.06844-1.610769-10.97898-4.521301-2.91053-2.910532-4.53817-6.8629-4.5213-10.978979v-17.796618c-13.77802 19.805914-43.63042 38.176616-79.22365 38.176616-67.74197 0-119.12252-57.982529-119.12252-128.594917.28704-70.612387 51.6676-128.594917 119.40956-128.594917m10.04648 49.371263c-43.91746 0-73.76985 34.732109-73.76985 79.223654s29.56535 79.223654 73.76985 79.223654c43.91746 0 73.76985-34.732109 73.76985-79.223654s-29.85239-79.223654-73.76985-79.223654" fill="#000"/><path d="m2309.55104 281.332955c-15.21879 0-27.55606-12.337265-27.55606-27.556053 0-15.218789 12.33727-27.556054 27.55606-27.556054s27.55605 12.337265 27.55605 27.556054c-.00317 15.217475-12.33858 27.552884-27.55605 27.556053m-303.40363 0c-15.21879 0-27.55606-12.337265-27.55606-27.556053 0-15.218789 12.33727-27.556054 27.55606-27.556054 15.21878 0 27.55605 12.337265 27.55605 27.556054-.00317 15.217475-12.33858 27.552884-27.55605 27.556053m313.16306-165.336321 55.11211-95.0109769c2.0234-3.5396966 1.99765-7.8915951-.06748-11.40710357-2.06514-3.51550849-5.85381-5.6569292-9.93078-5.6130463s-7.81866 2.26635752-9.80765 5.82550307l-55.68619 96.1591457c-44.22753-20.2106944-92.31142-30.5913303-140.93774-30.4264762-48.68347-.1191932-96.83143 10.1562859-141.22477 30.1394332l-55.97324-96.15914493c-1.98898-3.55914555-5.73068-5.78162016-9.80765-5.82616479-4.07697-.04322118-7.86563 2.09819954-9.93077 5.61370803s-2.09089 7.86740699-.06749 11.40710349l54.82507 95.0109762c-96.30599 52.524065-159.57603 150.128361-168.20675 259.486172h659.33599c-8.37104-109.214872-71.46154-206.767473-167.63266-259.199129" fill="#3ddc84"/></g></svg>