<svg viewBox="0 0 2036 2501" xmlns="http://www.w3.org/2000/svg"><path d="m1700.40522 1328.41758c3.51383 378.40361 331.95594 504.32532 335.59478 505.92819-2.77713 8.87609-52.47966 179.44615-173.0391 355.63296-104.22262 152.32674-212.38323 304.08644-382.77468 307.22969-167.42681 3.0852-221.26378-99.28005-412.68014-99.28005-191.358319 0-251.1737 96.14127-409.661911 102.36971-164.471088 6.22845-289.71861-164.71219-394.798477-316.48082-214.727259-310.43991-378.823301-877.22825-158.483746-1259.819874 109.459869-189.996544 305.073174-310.310424 517.393888-313.395625 161.506439-3.080735 313.944799 108.656199 412.680136 108.656199 98.67283 0 283.91879-134.373642 478.66592-114.639076 81.52787 3.393274 310.38186 32.932615 457.32848 248.030455-11.84074 7.340187-273.06478 159.412431-270.22515 475.768241m-314.65917-929.181058c87.31876-105.696014 146.08937-252.834617 130.05615-399.236522-125.86367 5.05865687-278.06093 83.8719058-368.33987 189.509877-80.90726 93.547201-151.764176 243.275407-132.64576 386.779635 140.28955 10.854012 283.60626-71.290003 370.92948-177.05299"/></svg>