<svg viewBox="0 0 100 117" xmlns="http://www.w3.org/2000/svg"><g fill="none" transform="translate(0 .13)"><path d="m12.5739435 101.851672c6.3383999 8.967831 13.5180875 14.156194 17.5600285 14.246577 8.3150826.186551 15.5430349-5.434205 21.5052595-5.287423.0621837.013919.1272597.019885.1892626.013919l.073572-.002711.0733912.002711c.0621838.005966.1243675 0 .1834781-.013919 5.9627669-.152205 13.1936115 5.473974 21.514117 5.287423 4.0417603-.090383 11.2216287-5.278746 17.5600285-14.246577z" fill="#009ddd"/><path d="m4.86876745 87.7292821c2.15220707 5.3042342 4.84111017 10.0719532 7.70517605 14.1223899h78.6591374c2.8611737-4.0504367 5.5526075-8.8181557 7.7049954-14.1223899z" fill="#944e85"/><path d="m.62924852 72.1947433c.79645761 5.5329039 2.29917031 10.7523586 4.23951893 15.5345388h94.06930885c.319053-.7908538.6270793-1.5929152.9237173-2.4065456-6.1912559-1.9403486-11.2895969-6.7843511-14.040503-13.1279932z" fill="#c55152"/><path d="m.39208274 56.6600237c-.28543045 2.3356852-.42082463 4.8523177-.38702128 7.5607436.03398412 2.7174642.25126557 5.3806985.62418706 7.973976h85.19204208c-1.4182947-3.2653677-2.2116792-6.9286028-2.2116792-10.7982733 0-1.6323223.1411787-3.21403.4125093-4.7364463z" fill="#e29533"/><path d="m5.60864512 41.1253042c-2.49964046 3.9826496-4.42299703 9.063637-5.21656238 15.5347195h83.63003796c1.1691984-6.5840616 4.7536192-12.0180862 9.6990316-15.5347195z" fill="#f4be2e"/><g fill="#76b945"><path d="m51.9754573 32.0218985h-.1469632c-5.6827594-.0958063-16.1446261-5.8523185-23.5786523-5.0840605-3.6972191.3843098-15.515016 2.8358663-22.64119668 14.1874662h88.11250718c.8841295-.6270794 1.810739-1.1948672 2.7738634-1.6973984-6.6715527-10.5128428-17.5260444-12.1341384-20.9409061-12.4900678-7.4309531-.768258-17.8957121 4.9882542-23.5786523 5.0840605z"/><path d="m72.0687489.09996403c-.5761031-.48590061-11.1339568 1.45173652-17.6784306 8.7641068-6.5441123 7.31273177-6.1375682 18.44668867-5.5612843 18.92969697.5761031.4857199 11.2950199-1.2004709 17.6780691-8.7644683 6.3835915-7.5609243 6.1379297-18.4465079 5.5616458-18.92933547z"/></g></g></svg>