<svg clip-rule="evenodd" fill-rule="evenodd" stroke-linejoin="round" stroke-miterlimit="2" viewBox="0 0 321 90" xmlns="http://www.w3.org/2000/svg"><defs><style type="text/css">#text{fill:#2f3a3e}@media (prefers-color-scheme:dark){#text{fill:#fff}}</style></defs><g fill-rule="nonzero"><g><path d="m128.79 32.3-49.94-29.65c-5.927-3.535-13.343-3.535-19.27 0l-49.95 29.65c-6.001 3.62-9.666 10.151-9.63 17.16v59.29c-.033 7.005 3.632 13.531 9.63 17.15l49.94 29.64c5.928 3.533 13.342 3.533 19.27 0l49.94-29.64c6.005-3.618 9.674-10.149 9.64-17.16v-59.28c.036-7.009-3.629-13.54-9.63-17.16z" fill="#fff" transform="matrix(.556117 0 0 .556117 .000149 .957997)"/><path d="m128.79 32.3-49.94-29.65c-5.927-3.535-13.343-3.535-19.27 0l-49.95 29.65c-6.001 3.62-9.666 10.151-9.63 17.16v59.29c-.033 7.005 3.632 13.531 9.63 17.15l49.94 29.64c5.928 3.533 13.342 3.533 19.27 0l49.94-29.64c6.005-3.618 9.674-10.149 9.64-17.16v-59.28c.036-7.009-3.629-13.54-9.63-17.16zm-67.47 120.21-49.94-29.64c-4.929-2.987-7.941-8.356-7.92-14.12v-59.29c-.023-5.764 2.989-11.134 7.92-14.12l49.94-29.65c4.854-2.896 10.926-2.896 15.78 0l49.9 29.65c4.111 2.49 6.92 6.672 7.67 11.42-1.66-3.53-5.39-4.5-9.74-2l-47.21 29.24c-5.89 3.43-10.23 7.3-10.24 14.4v58.22c0 4.25 1.71 7 4.35 7.81-.865.158-1.741.242-2.62.25-2.777-.002-5.503-.752-7.89-2.17z" fill="#2f3a3e" transform="matrix(.556117 0 0 .556117 .000149 .957997)"/><path d="m115.7 114.48-12.44 7.44c-.333.134-.556.452-.57.81v3.27c0 .4.27.56.6.37l12.63-7.68c.309-.231.457-.622.38-1v-2.87c-.01-.37-.3-.53-.6-.34z" fill="#3ab14a" transform="matrix(.556117 0 0 .556117 .000149 .957997)"/><path d="m89.22 87.09c.4-.2.73 0 .74.57l.04 4.34c1.496-.68 3.165-.882 4.78-.58.31.08.44.5.32 1l-.95 3.81c-.072.288-.221.55-.43.76-.074.073-.158.133-.25.18-.113.061-.243.082-.37.06-1.574-.349-3.224-.084-4.61.74-2.024.912-3.353 2.911-3.41 5.13 0 2 1 2.55 4.49 2.61 4.61.08 6.61 2.09 6.66 6.74-.11 4.851-2.35 9.416-6.12 12.47l.08 4.26c-.007.529-.282 1.019-.73 1.3l-2.52 1.45c-.4.2-.73 0-.74-.56v-4.19c-2.16.9-4.35 1.11-5.75.55-.26-.1-.38-.49-.27-.94l.91-3.85c.069-.305.226-.583.45-.8.071-.068.152-.125.24-.17.13-.059.28-.059.41 0 1.782.483 3.685.242 5.29-.67 2.314-1.116 3.824-3.432 3.91-6 0-2.16-1.19-3.06-4-3.08-3.63 0-7-.7-7.07-6 .083-4.627 2.235-8.982 5.86-11.86l-.18-4.36c-.002-.536.275-1.036.73-1.32z" fill="#fff" transform="matrix(.556117 0 0 .556117 .000149 .957997)"/></g><path d="m203 81.4c-1.266-1.524-2.773-2.831-4.46-3.87l-.64-.38c1.347-.896 2.565-1.973 3.62-3.2 2.336-2.72 3.627-6.185 3.64-9.77.108-3.089-.622-6.151-2.11-8.86-1.406-2.442-3.361-4.524-5.71-6.08-2.408-1.581-5.07-2.734-7.87-3.41-2.87-.71-5.813-1.082-8.77-1.11h-20c-1.351-.033-2.492 1.049-2.53 2.4v63.92c.038 1.351 1.179 2.433 2.53 2.4h21.54c3.077-.029 6.135-.497 9.08-1.39 2.847-.843 5.527-2.173 7.92-3.93 2.333-1.733 4.255-3.96 5.63-6.52 1.449-2.774 2.165-5.872 2.08-9 .027-2.076-.311-4.141-1-6.1-.685-1.856-1.683-3.581-2.95-5.1zm-12.25-14.06c-.562.962-1.322 1.794-2.23 2.44-1.012.717-2.138 1.258-3.33 1.6-1.299.386-2.645.595-4 .62h-9.38v-15.53h9.11c1.449.024 2.89.205 4.3.54 1.201.272 2.345.753 3.38 1.42.88.577 1.611 1.355 2.13 2.27.552 1.049.821 2.225.78 3.41.045 1.126-.218 2.242-.76 3.23zm-18.91 16.22h11c1.468.035 2.924.284 4.32.74 1.197.388 2.31.999 3.28 1.8.897.75 1.618 1.689 2.11 2.75.535 1.21.785 2.528.73 3.85.026 1.292-.259 2.571-.83 3.73-.545 1.075-1.32 2.018-2.27 2.76-1.05.81-2.23 1.435-3.49 1.85-1.365.456-2.791.699-4.23.72h-10.62zm72.69-37.16c-.36-1.014-1.334-1.689-2.41-1.67h-7.12c-1.069-.013-2.035.655-2.4 1.66l-21.7 63.92c-.249.731-.113 1.54.36 2.15.479.621 1.216.989 2 1h8.54c1.08.013 2.054-.67 2.41-1.69l4.85-14.86h18.7l4.76 14.85c.351 1.029 1.333 1.719 2.42 1.7h8.49c.784-.011 1.521-.379 2-1 .475-.609.614-1.417.37-2.15zm-.53 38.6h-11l5.56-17.14zm73.19-1.13c-1.156-1.482-2.501-2.806-4-3.94-1.494-1.129-3.08-2.133-4.74-3-1.681-.876-3.414-1.647-5.19-2.31-1.72-.64-3.47-1.23-5.21-1.75-1.48-.43-3.06-.94-4.71-1.5-1.487-.514-2.915-1.185-4.26-2-1.132-.665-2.124-1.545-2.92-2.59-.677-.957-1.028-2.108-1-3.28-.034-1.166.238-2.322.79-3.35.544-.977 1.299-1.821 2.21-2.47 1.015-.719 2.149-1.254 3.35-1.58 2.823-.806 5.824-.743 8.61.18 1.23.443 2.361 1.122 3.33 2 .952.891 1.723 1.957 2.27 3.14.629 1.379 1.044 2.846 1.23 4.35.194 1.223 1.272 2.125 2.51 2.1h8.77c.67.002 1.316-.256 1.8-.72.47-.451.731-1.079.72-1.73-.031-3.136-.806-6.221-2.26-9-1.4-2.634-3.327-4.952-5.66-6.81-2.397-1.889-5.104-3.347-8-4.31-5.813-1.934-12.085-2.021-17.95-.25-2.795.81-5.433 2.088-7.8 3.78-2.303 1.658-4.238 3.776-5.68 6.22-1.506 2.595-2.28 5.55-2.24 8.55-.059 2.962.728 5.88 2.27 8.41 1.464 2.329 3.354 4.361 5.57 5.99 2.237 1.646 4.665 3.016 7.23 4.08 2.52 1.06 5 2 7.47 2.72 1.6.487 3.267 1.033 5 1.64 1.522.524 2.981 1.215 4.35 2.06 1.165.704 2.17 1.644 2.95 2.76.704 1.076 1.054 2.345 1 3.63.043 1.161-.249 2.31-.84 3.31-.605.969-1.414 1.794-2.37 2.42-1.075.695-2.263 1.199-3.51 1.49-3.066.75-6.275.688-9.31-.18-1.397-.421-2.703-1.099-3.85-2-1.105-.874-2.026-1.959-2.71-3.19-.751-1.388-1.236-2.904-1.43-4.47-.198-1.219-1.275-2.116-2.51-2.09h-8.73c-.675-.002-1.325.26-1.81.73-.469.455-.727 1.087-.71 1.74.055 3.257.947 6.447 2.59 9.26 1.578 2.657 3.68 4.964 6.18 6.78 2.564 1.855 5.42 3.268 8.45 4.18 3.095.949 6.313 1.431 9.55 1.43 2.945-.004 5.876-.394 8.72-1.16 2.844-.735 5.547-1.935 8-3.55 2.379-1.581 4.393-3.65 5.91-6.07 1.602-2.629 2.421-5.662 2.36-8.74.019-2.043-.319-4.074-1-6-.667-1.773-1.609-3.429-2.79-4.91zm56.01-39.14h-8.08c-1.351-.033-2.492 1.049-2.53 2.4v25.08h-22.51v-25.08c-.038-1.351-1.179-2.433-2.53-2.4h-8c-1.351-.033-2.492 1.049-2.53 2.4v63.92c.038 1.351 1.179 2.433 2.53 2.4h8c1.351.033 2.492-1.049 2.53-2.4v-27.14h22.51v27.14c.038 1.351 1.179 2.433 2.53 2.4h8.08c1.351.033 2.492-1.049 2.53-2.4v-63.92c-.038-1.351-1.179-2.433-2.53-2.4zm-207.27 79.8h-3.06v8.18h-1.63v-8.18h-3v-1.29h7.73zm9.41 8.18h-1.6v-4.23h-3.39v4.23h-1.59v-9.47h1.59v4h3.39v-4h1.6zm9.4-4.24h-4.1v3h4.79v1.27h-6.43v-9.47h6.39v1.29h-4.75v2.67h4.1zm14.19 4.24v-9.47h3.18c.451.003.901.056 1.34.16.388.087.757.243 1.09.46.309.202.563.477.74.8.186.354.275.751.26 1.15.007.435-.138.86-.41 1.2-.29.347-.666.613-1.09.77.261.068.511.176.74.32.208.13.39.296.54.49.147.19.262.403.34.63.08.239.12.488.12.74.009.412-.08.82-.26 1.19-.17.339-.416.633-.72.86-.329.238-.698.415-1.09.52-.443.124-.9.188-1.36.19zm1.65-5.48h1.57c.233 0 .465-.03.69-.09.198-.052.384-.14.55-.26.153-.111.279-.254.37-.42.094-.175.142-.371.14-.57.005-.211-.039-.42-.13-.61-.086-.169-.213-.313-.37-.42-.17-.114-.36-.195-.56-.24-.23-.051-.465-.078-.7-.08h-1.56zm0 1.19v3h1.79c.241-.001.48-.038.71-.11.2-.066.386-.168.55-.3.156-.124.282-.281.37-.46.09-.191.134-.399.13-.61.003-.219-.038-.437-.12-.64-.072-.183-.185-.347-.33-.48-.155-.135-.335-.237-.53-.3-.226-.072-.462-.11-.7-.11zm15.12.17c.001.545-.077 1.087-.23 1.61-.138.491-.365.952-.67 1.36-.298.393-.681.714-1.12.94-.491.242-1.033.363-1.58.35-1.044.032-2.039-.451-2.66-1.29-.301-.409-.524-.87-.66-1.36-.149-.523-.224-1.066-.22-1.61v-1.21c0-.366.033-.731.1-1.09.062-.343.159-.678.29-1 .129-.308.293-.6.49-.87.189-.264.418-.497.68-.69.271-.196.572-.348.89-.45.353-.11.721-.164 1.09-.16 1.055-.031 2.062.45 2.7 1.29.309.407.54.868.68 1.36.153.523.23 1.065.23 1.61zm-1.65-1.22c-.003-.356-.037-.71-.1-1.06-.055-.328-.164-.646-.32-.94-.144-.267-.35-.497-.6-.67-.276-.18-.601-.271-.93-.26-.326-.011-.648.08-.92.26-.245.173-.444.403-.58.67-.15.295-.251.613-.3.94-.057.351-.087.705-.09 1.06v1.22c.006.355.039.71.1 1.06.051.327.152.644.3.94.136.27.335.504.58.68.272.181.594.272.92.26.329.011.654-.08.93-.26.249-.178.455-.41.6-.68.157-.294.265-.611.32-.94.062-.35.095-.705.1-1.06zm11.39-4.12v6.34c.001.455-.084.906-.25 1.33-.153.375-.381.715-.67 1-.284.286-.625.511-1 .66-.439.16-.903.238-1.37.23-.457.007-.912-.071-1.34-.23-.783-.293-1.403-.909-1.7-1.69-.167-.427-.251-.882-.25-1.34v-6.34h1.61v6.34c.003.271.043.54.12.8.063.228.168.441.31.63.136.174.31.315.51.41.222.103.465.154.71.15.251.004.501-.047.73-.15.206-.093.388-.234.53-.41.147-.187.256-.401.32-.63.076-.26.116-.529.12-.8v-6.34zm6.88 5.75h-1.67v3.69h-1.65v-9.47h3.15c.476.001.95.065 1.41.19.404.104.784.284 1.12.53.312.233.562.539.73.89.181.391.27.819.26 1.25.004.295-.04.589-.13.87-.085.255-.21.495-.37.71-.161.214-.353.403-.57.56-.23.165-.478.302-.74.41l2.11 4v.08h-1.75zm-1.67-1.26h1.51c.254.002.507-.035.75-.11.215-.069.415-.177.59-.32.166-.135.3-.306.39-.5.096-.214.143-.446.14-.68.004-.24-.04-.478-.13-.7-.082-.196-.209-.371-.37-.51-.172-.146-.373-.255-.59-.32-.254-.073-.516-.11-.78-.11h-1.5zm14.78 4.97h-1.65l-3.24-6.51v6.51h-1.66v-9.47h1.66l3.23 6.5v-6.5h1.66zm9.41-4.24h-4.1v3h4.79v1.27h-6.43v-9.47h6.39v1.29h-4.75v2.67h4.1zm10.34.72h-5.48v-1.25h5.48zm8.68 1.33h-3.11l-.68 2.2h-1.7l3.23-9.47h1.4l3.17 9.47h-1.69zm-2.69-1.33h2.28l-1.13-3.71zm14.56 2.34c-.175.199-.373.377-.59.53-.24.168-.498.309-.77.42-.297.12-.605.211-.92.27-.349.068-.704.101-1.06.1-.548.012-1.092-.101-1.59-.33-.453-.213-.852-.524-1.17-.91-.328-.402-.576-.864-.73-1.36-.172-.544-.259-1.11-.26-1.68v-1.17c-.004-.57.081-1.136.25-1.68.15-.494.391-.955.71-1.36.305-.383.691-.694 1.13-.91.476-.232 1-.348 1.53-.34.468-.007.933.061 1.38.2.368.127.707.324 1 .58.293.258.528.575.69.93.175.386.283.798.32 1.22h-1.61c-.035-.237-.099-.469-.19-.69-.081-.195-.2-.372-.35-.52-.151-.147-.332-.259-.53-.33-.238-.08-.489-.117-.74-.11-.314-.01-.624.074-.89.24-.254.17-.467.396-.62.66-.176.311-.297.649-.36 1-.078.375-.118.757-.12 1.14v1.18c.004.38.048.759.13 1.13.066.353.194.692.38 1 .165.269.391.495.66.66.304.175.65.261 1 .25h.48c.159-.017.316-.048.47-.09.142-.042.28-.099.41-.17.115-.063.217-.148.3-.25v-1.89h-1.8v-1.21h3.41zm8.16-1.01h-3.11l-.68 2.2h-1.7l3.23-9.47h1.44l3.17 9.47h-1.69zm-2.69-1.33h2.28l-1.13-3.71zm8.1-5.94h5.92v1.29h-2.15v6.89h2.15v1.29h-5.92v-1.29h2.11v-6.89h-2.11zm16.24 9.46h-1.65l-3.24-6.51v6.51h-1.65v-9.47h1.66l3.23 6.5v-6.5h1.66zm18.75-2.43c.003-.206-.049-.41-.15-.59-.106-.178-.25-.332-.42-.45-.198-.14-.413-.254-.64-.34-.247-.1-.517-.19-.81-.27-.395-.108-.782-.242-1.16-.4-.357-.153-.693-.351-1-.59-.292-.222-.54-.496-.73-.81-.191-.327-.288-.701-.28-1.08-.006-.385.091-.765.28-1.1.185-.323.438-.603.74-.82.328-.234.693-.41 1.08-.52.419-.122.854-.182 1.29-.18.455-.003.908.068 1.34.21.395.13.765.33 1.09.59.307.249.559.558.74.91.184.363.28.763.28 1.17h-1.64c-.019-.224-.073-.443-.16-.65-.083-.194-.205-.367-.36-.51-.162-.148-.352-.26-.56-.33-.245-.083-.502-.124-.76-.12-.23-.002-.459.029-.68.09-.195.055-.379.147-.54.27-.149.112-.272.255-.36.42-.088.173-.133.366-.13.56 0 .204.063.403.18.57.124.172.28.318.46.43.207.131.429.239.66.32.247.087.507.167.78.24.407.114.805.257 1.19.43.36.16.697.369 1 .62.278.23.509.512.68.83.173.337.259.712.25 1.09.008.388-.089.772-.28 1.11-.187.322-.443.599-.75.81-.333.224-.701.39-1.09.49-.424.113-.861.171-1.3.17-.305.002-.61-.025-.91-.08-.295-.053-.583-.137-.86-.25-.272-.11-.53-.251-.77-.42-.233-.163-.441-.359-.62-.58-.37-.462-.571-1.038-.57-1.63h1.65c.017.261.085.515.2.75.105.207.255.389.44.53.191.146.408.255.64.32.263.075.536.112.81.11.232.002.464-.024.69-.08.2-.05.389-.135.56-.25.156-.106.286-.246.38-.41.092-.179.133-.379.12-.58zm11.3 2.43h-1.59v-4.23h-3.4v4.23h-1.6v-9.47h1.59v4h3.41v-4h1.6zm9.41-4.24h-4.1v3h4.79v1.27h-6.44v-9.47h6.39v1.29h-4.75v2.67h4.11zm6 2.97h4.75v1.27h-6.39v-9.47h1.64zm10 0h4.75v1.27h-6.39v-9.47h1.64z" id="text" transform="translate(-55.1864 -43.7827)"/></g></svg>