<svg viewBox="0 0 113 60" xmlns="http://www.w3.org/2000/svg" xmlns:xlink="http://www.w3.org/1999/xlink"><mask id="a" fill="#fff"><path d="m.662.539h49.251v11.401h-49.251z" fill="#fff" fill-rule="evenodd"/></mask><g fill="#008fc4" fill-rule="evenodd"><path d="m20.909 1.039c-.254 0-1.022.246-1.763 1.317-.746 1.084-3.994 6.454-4.618 7.453-.626.992-.409 1.474.248 1.474h1.457c.71 0 1.283-.817 1.585-1.311.31-.498 4.191-6.737 4.746-7.655.559-.919.199-1.278-.18-1.278zm-9.209 2.708c-.67 1.389-2.018 1.423-2.699 1.423h-1.091c-.251 0-.524 0-.209-.476.303-.485.739-1.234.949-1.566.209-.324.4-.406.778-.406h1.389c.408 0 1.387-.021.883 1.025m-1.849 4.157c-.665 1.39-1.929 1.423-2.608 1.423h-1.914c-.251 0-.522 0-.213-.483.307-.481.773-1.234.983-1.553.215-.333.401-.406.776-.406h2.09c.41 0 1.392-.038.886 1.019m-2.089 3.355c2.434-.108 4.112-.142 6.029-3.713.846-1.593-1.517-1.679-1.517-1.679-.311 0 2.146.12 3.479-2.657 1.202-2.51-.965-2.315-1.366-2.355-1.81-.186-5.214-.18-7.809.015-.567 0-1.161.721-1.468 1.169-.303.446-4.259 6.888-4.855 7.855-.595.952-.048 1.324.629 1.365 1.805.106 4.144.114 6.878 0" transform="translate(0 45)"/><path d="m87.973 49.866-3.166 5.11c-.64 1.015-.062 1.311.25 1.311h1.389c.548 0 .969-.043 1.757-1.311l3.177-5.13c.905-1.417-.217-1.321-.858-1.317-1.195.01-1.545-.004-2.549 1.337"/><path d="m11.1 2.222h-3.814c-.393 0-.922.333-1.18.751-.261.417-.144.752.248.752h2.762c1.198 0 1.573.756.335 2.573-.294.421-.818 1.009-1.199 1.25 0 0-1.081.89-4.552.89-3.12 0-3.213-.356-3.213-.356-.303-.26-.433-.662-.285-.899.146-.237.588-.432.979-.432h3.939c.393 0 .921-.339 1.182-.751.253-.408.152-.825-.239-.825h-2.937c-1.392 0-1.234-.979-.17-2.5.295-.418.819-.992 1.205-1.229 0 0 1.181-.91 4.534-.91 1.317 0 3.62-.076 3.468.995-.08.555-.804.691-1.063.691m9.966.074h-3.049c-.39 0-.937.363-1.218.81l-1.753 2.832c-.278.446-.182.813.21.813h3.619c.542 0 .849.042.825.204-.079.552-.81 1.483-5.153 1.483-3.874 0-3.602-.551-3.52-1.14.087-.597 1.958-3.627 2.532-4.545.572-.926 1.427-2.214 5.227-2.214 3.539 0 3.347.793 3.315 1.005-.03.208-.253.752-1.035.752" transform="translate(90 48)"/><path d="m93.198 45.625c.298 0 .654.268.378.714-.282.448-.369.602-.557.909-.19.305-.563.485-1.11.485h-2.006c-.348 0-.348-.377-.185-.694.164-.319.286-.436.417-.656.125-.213.379-.736 1.12-.736zm-57.651 5.536c-.736 0-1.007.515-1.137.73-.132.217-.251.332-.414.65-.166.322-.122.699.108.699h2.078c.555 0 .922-.181 1.113-.492.188-.302.275-.455.555-.904.276-.45-.076-.707-.372-.707-.3 0-1.972.004-1.972.004m46.274-1.659s-2.177 3.497-2.328 3.708c-.148.218-.833 1.194-1.864 1.194h-2.128c-.36 0-.583-.086-.297-.511l3.446-5.518c.139-.164.388-.347.667-.347h2.09c.652 0 .848.78.414 1.474m1.675 3.676c1.298-2.052.505-.78 2.264-3.647 1.764-2.87-.991-3.455-3.703-3.455-4.114 0-5.422.169-5.422.169-.393.04-.947.443-1.218.893l-5.03 8.103c-.273.445-.188.85.198.902 0 0 1.208.16 5.318.16 5.754 0 6.296-1.07 7.593-3.125m-31.238.719-.041.061c-.316.511-.945.929-1.396.929l-.997.056-.883-.056c-.448 0-.564-.418-.245-.929l.035-.061c.324-.519.953-.936 1.403-.936h1.878c.455 0 .562.417.246.936m-1.935-2.312c-1.216 0-1.6.066-2.701.097-.397 0-.941.366-1.219.81l-1.031 1.736c-1.255 1.996 1.486 2.144 3.596 2.144 3.412 0 5.048-.932 5.048-.932.391-.223.93-.763 1.207-1.212l2.197-3.545c.276-.441.329-1.124.125-1.517 0 0-.324-.621-3.738-.621-3.377 0-4.702.536-4.702.536-.4.156-.842.483-.988.717-.154.242.05.428.448.428h5.018c.395 0 .541.327.294.681-.408.606-1.131.678-1.131.678zm-6.634-.612c.277-.445.841-.812 1.238-.812h1.549c.21 0 .94-.025 1.008-.54.112-.789-1.595-.997-2.142-.997-2.299 0-3.581.15-4.905 2.071-.98 1.565-1.95 3.163-2.622 4.301-.609 1.041-.063 1.311.256 1.311h1.386c.547 0 .967-.043 1.754-1.311z"/><path d="m13.576 1.931-2.203 3.603c-.265.445-.007.646.253.646.258-.005.566-.005.719-.005.299 0 .653.265.373.719-.275.444-.351.625-.542.932-.193.306-.56.486-1.117.486h-.955c-.604 0-.277-.974-.277-.974-.888 1.022-3.075 1.02700146-5.252 1.02700146-2.09 0-4.87.01199854-3.588-2.13700146l2.653-4.32c.501-.773.816-.997 1.204-1.233 0 0 .15-.082 1.298-.082.735 0 1.775-.054.899 1.315l-2.429 3.961c-.278.447-.183.809.211.809h1.777c.393 0 .94-.362 1.216-.809 0 0 1.283-2.091 2.399-3.938.276-.458 1.008-1.392 1.752-1.392h1.211c.52 0 1.136.163.398 1.392m21.905 8.367 3.949.006.882.009c.393 0 .939-.364 1.218-.812l.754-1.218c-.491.049-1.025.077-1.62.077-2.083 0-4.869.013-3.584-2.144l2.594-4.191c.279-.444.821-.996 1.21-1.225 0 0 .146-.09 1.293-.09.733 0 1.871-.216.9 1.315l-2.379 3.835c-.269.449-.18.81.219.81h1.63c.395 0 .942-.361 1.217-.81l2.377-3.835c.278-.444.82-.984 1.209-1.2 0 0 .191-.115 1.326-.115.624 0 1.861-.237.859 1.315l-2.032 3.271c-.051.112-.118.229-.208.373l-2.597 4.195c-.272.44-.817.981-1.209 1.205 0 0-1.655.931-5.059.931-.14 0-.288-.008-.43-.008-3.121-.017-3.03-.258-3.21-.363-.178-.108-.398-.373-.346-.74.054-.368.493-.591 1.037-.591" mask="url(#a)" transform="translate(20 48)"/><path d="m29.28 19.769c0-.896 5.398-2.151 14.193-2.151 8.798 0 14.192 1.255 14.192 2.151 0 .898-5.394 2.144-14.192 2.144-8.795 0-14.193-1.246-14.193-2.144m-5.613-15.488c-.06 0-.114.032-.15.078-4.156 5.853-6.669 9.82-9.269 14.63l-.259.531-.075.171c-.222.467-.169.985.146 1.475 1.538 2.407 10.165 5.217 29.416 5.217 14.356 0 29.612-2.318 29.612-6.614 0-4.149-15.058-6.625-29.612-6.625-4.831 0-9.615.683-10.995.898 1.317-2.029 6.78-9.385 6.837-9.462.025-.033.041-.07.041-.111 0-.03-.014-.057-.025-.086-.032-.061-.097-.102-.163-.102z"/><g transform="translate(13)"><path d="m16.28 19.769c0-.896 5.398-2.151 14.193-2.151 8.798 0 14.192 1.255 14.192 2.151 0 .898-5.394 2.144-14.192 2.144-8.795 0-14.193-1.246-14.193-2.144m-5.613-15.488c-.06 0-.114.032-.15.078-4.156 5.853-6.669 9.82-9.269 14.63l-.259.531-.075.171c-.222.467-.169.985.146 1.475 1.538 2.407 10.165 5.217 29.416 5.217 14.356 0 29.612-2.318 29.612-6.614 0-4.149-15.058-6.625-29.612-6.625-4.831 0-9.615.683-10.995.898 1.317-2.029 6.78-9.385 6.837-9.462.025-.033.041-.07.041-.111 0-.03-.014-.057-.025-.086-.032-.061-.097-.102-.163-.102z"/><path d="m21.558 41.379s71.593 2.908 73.124-22.112c1.236-20.291-49.609-18.363-49.655-18.363-.049 0-.4.036-.4.323 0 .247.185.326.366.326 14.103 0 37.041 5.597 36.293 17.729-.606 9.885-18.5 21.451-59.705 21.451-.243 0-.409.168-.409.32 0 .155.098.294.386.326"/></g></g></svg>