<svg viewBox="0 0 608 171" xmlns="http://www.w3.org/2000/svg"><g fill="none" fill-rule="evenodd" transform="translate(-25 -26)"><path d="m0 0h658v222h-658z"/><path d="m286.788028 151.765121h-34.455084c-3.493841 0-6.950509-.505726-10.369944-1.51736-6.615994-2.100723-11.856746-6.924891-15.722244-14.472372-3.493851-6.847102-5.240762-14.822501-5.240762-23.926115 0-8.792248 1.561067-16.5731152 4.68324-23.3425097 3.419465-7.4695312 8.288539-12.5659686 14.607161-15.2893326 4.906196-2.1007533 9.923921-3.151241 15.053214-3.151241h31.221412v15.6394717h-32.447973c-5.277945.0000807-9.106291 2.9956942-11.485048 8.986891-1.858439 4.6685605-2.787628 10.7764806-2.787628 18.3238706 0 6.380321 1.189368 11.788003 3.568176 16.223057 2.750415 5.213171 6.615954 7.819771 11.596506 7.819731l31.778974-.116784zm57.383331.350017h-27.207262c-6.615984 0-12.377074-2.956709-17.28328-8.870117-4.831871-5.991348-7.247832-12.877375-7.247832-20.658232 0-8.481094 2.638947-15.795079 7.916872-21.941973 5.352199-6.2246434 11.299123-9.3369901 17.840772-9.3369901h25.869262v12.4882201h-18.955906c-2.378797.000061-4.42303.233366-6.132778.700289-1.635472.389073-3.159336 1.206074-4.571731 2.450942-2.601814 2.334321-3.902682 5.485562-3.902662 9.453723h33.451549v12.604974h-33.34002c-.00003 1.867428.185804 3.462496.557471 4.785213.446044 1.244949 1.300898 2.528782 2.564632 3.851539 1.263724 1.244929 2.750445 2.100854 4.460183 2.567626 1.784083.389104 3.939854.583736 6.467373.583736h19.513357zm63.585812-.350088h-15.499218v-39.799124c-.00005-1.011492-.223016-1.906272-.66899-2.684379-.446083-.855844-1.07794-1.672835-1.895641-2.450983-1.486751-1.322676-3.196479-1.98405-5.129193-1.98408h-15.164713v46.918566h-15.499217v-60.4572241h29.660355c5.277884 0 9.10623.3112549 11.485017.9336636 3.716798.9337848 6.69029 2.9956741 8.920447 6.1857791 2.527378 3.7348464 3.791153 7.8198014 3.791153 12.2548244zm44.514984-47.85228h-15.053214v27.427454c-.00001 2.489898.817661 4.551807 2.453103 6.185789 1.858389 1.633992 4.311492 2.450953 7.35936 2.450953h4.571701v11.788084h-14.384164c-4.311552 0-7.991227-1.634073-11.039015-4.901906-1.784093-1.945237-2.936289-4.085086-3.456668-6.419356-.520369-2.3342-.780528-5.096407-.780488-8.286543v-28.244475h-9.812473v-12.6049441h9.812473v-21.2416856h15.276171v21.2416856h15.053214zm90.99344 6.886026c0 15.872958-4.200164 27.232984-12.600131 34.080167-6.839051 5.524355-16.800165 8.286601-29.883382 8.286601-14.495692 0-25.200182-3.190083-32.113488-9.570444-7.582336-7.002801-11.37349-18.246103-11.37349-33.730008 0-12.6827317 3.382293-22.5643719 10.146968-29.6450011 7.35929-7.7029572 18.361111-11.5545468 33.005495-11.5545468 16.131055 0 27.504524 3.6959924 34.120588 11.0876847 5.798203 6.5359584 8.69744 16.884481 8.69744 31.0455472m-19.847982-.466852c0-8.014192-1.821316-14.3944923-5.463728-19.1408412-4.088586-5.2909289-10.147028-7.9364942-18.175368-7.9364942-7.879708 0-13.826632 2.840087-17.840782 8.5200188-3.34521 4.7463894-5.017735 10.9321486-5.017735 18.5573166 0 8.7924 1.33806 15.289424 4.01419 19.491031 3.716777 5.83563 10.592951 8.753415 20.62844 8.753415 8.474323 0 14.421257-2.839956 17.840813-8.519989 2.67606-4.435033 4.01417-11.009866 4.01417-19.724457m109.102559 16.106344c0 7.158398-2.26735 13.188549-6.801768 18.090566-4.534679 4.901916-10.295729 7.352889-17.283331 7.352889l-55.195042-.116784v-14.705909h45.494107c3.047748.00003 5.61236-.739162 7.693845-2.217527 2.378728-1.71176 3.568106-4.04602 3.568156-7.002739-.00005-6.924942-4.683249-10.387407-14.049639-10.387427h-22.970095c-6.615974.00002-12.414227-2.139708-17.394769-6.419215-4.980552-4.279417-7.470848-9.725993-7.470848-16.3397602 0-7.313934 2.41594-13.2273524 7.247831-17.7402955 4.906206-4.5906206 11.336337-6.886047 19.290361-6.886047h52.741979v14.0054795h-46.497653c-2.081445.0000707-4.200084.9337848-6.355805 2.8011424-2.081445 1.7896195-3.122173 3.9293579-3.122153 6.4191848-.00002 2.8011423 1.003515 5.1743067 3.010655 7.119473 2.081405 1.867438 4.571711 2.801142 7.470838 2.801102h25.31166c7.879639.00004 14.049549 2.139758 18.509903 6.419195 4.534418 4.201688 6.801768 9.803872 6.801768 16.806622" fill="#000" fill-rule="nonzero"/><g transform="translate(26.358 27.398)"><path d="m45.195 116.101-6.134 6.169-6.134-6.169v-43.426h-20.437l26.571-26.483 26.123 26.483h-19.989z" fill="#932279" transform="matrix(0 -1 1 0 -45.394 123.068)"/><path d="m90.37 70.666-6.133 6.17-6.134-6.17v-43.426h-20.438l26.572-26.483 26.123 26.483h-19.99z" fill="#efa724"/><path d="m135.805 115.842-6.134 6.169-6.133-6.169v-43.426h-20.438l26.571-26.483 26.124 26.483h-19.99z" fill="#262577" transform="matrix(0 1 -1 0 213.419 -45.475)"/><path d="m90.629 161.277-6.134 6.169-6.133-6.169v-43.426h-20.438l26.571-26.483 26.124 26.483h-19.99z" fill="#9ccd2a" transform="matrix(-1 0 0 -1 168.542 258.814)"/><g stroke="#fff" stroke-width="3.769" transform="translate(1.064 1.064)"><g fill-rule="nonzero" transform="translate(23.614 23.78)"><path d="m1.047.84h52.765v52.764h-52.765z" fill="#9ccd2a"/><path d="m65.118.84h52.765v52.764h-52.765z" fill="#932279"/><path d="m65.118 64.911h52.765v52.765h-52.765z" fill="#efa724"/><path d="m1.047 64.911h52.765v52.765h-52.765z" fill="#262577"/></g><path d="m11.391 56.656h52.764v52.765h-52.764z" transform="matrix(.70710678 -.70710678 .70710678 .70710678 -47.653277 51.030812)"/><path d="m56.696 11.351h52.765v52.764h-52.765z" transform="matrix(.70710678 -.70710678 .70710678 .70710678 -2.348277 69.796757)"/><path d="m91.073 83.038 37.311-37.31 37.31 37.31-37.31 37.311z"/><path d="m56.696 101.961h52.765v52.765h-52.765z" transform="matrix(.70710678 -.70710678 .70710678 .70710678 -66.41993 96.336104)"/></g></g></g></svg>