<svg viewBox="0 0 98 41" xmlns="http://www.w3.org/2000/svg"><path d="m49.245687 5.269306c.6794159.0357588 1.2873144.2860699 1.7879367.7151747.6799342.6441755.8587279 1.7169376.5368993 2.5756654-1.252074 2.5751472-4.2267861 4.2951942-6.2593334 4.8642245-1.2163152.2865881-2.7544591.2865881-3.8629799-.143035-.5368992.3218287-.9898432 1.3624597-1.6459383.9302454-.948902-.7416051-.1269694-1.9009136-.67527-2.724401-.1129769-.1694653-.397492-.1819031-.5405269-.4591629-.7509335-1.6454201.1787936-3.2193226 1.2157969-4.4708784 1.7293754-1.9288987 6.6889565-4.0775323 9.4434156-1.2878327zm-5.7587111 1.2878327c-.9660041.1787937-2.0569046.5990884-2.6471829 1.2878327-.5902782.6882261-.9654858 1.358832-.6078985 2.0745249 1.2515557-.9302453 1.8599725-2.2180781 3.2550814-3.0047702 0-.143035.2145524-.2503112 0-.3575874zm5.8297103.3575874c-2.467871-.2145524-4.3278434 1.64542-6.0805397 3.433875-.106758.2860699-.7509334.6078985-.2503111.9297271 2.361113.2145525 4.6144315-.4648635 6.3308508-2.0387661.5011405-.4648636.8587279-1.0727621.6084167-1.7169375-.1072762-.2503112-.3575873-.5006223-.6084167-.6078985zm21.3899425 10.6592125c1.1442795 2.7896996 2.1102836 7.1890605 0 9.8714838-.572658.6441755-1.5739026 1.237045-2.2180781.7514517-2.3605947-1.8957312-3.3618393-4.6144315-4.8284657-7.0465438-.2145524-.1072762-.2145524.1787937-.3218286.2860699-.5368993 2.4683892.4648635 5.6871936-1.2163153 7.6186836-.6436572.1072762-1.245855-.2233626-1.4661081-.8582097-.8229691-2.5399067.0352405-5.1865713.2503112-7.7259597.5006222-1.2878327.7151747-2.7902179 1.8236954-3.7557037 1.7889733.7151747 2.6471829 2.7187004 3.6841862 4.1848085.7514517 1.109039 1.3593502 2.3605947 2.2180781 3.3623576.7509334-.3218286.3814265-1.3028618.3575873-1.8957312-.2860698-2.3248361-.9302453-4.4708784-1.5381438-6.6889565-.0357587-.5721397-.3575874-1.5376256.2503111-1.8952129 1.6096614.7151747 2.2890773 2.3963535 3.0047703 3.7914624zm-10.8022475-.8587279c0 .536381-.4291048 1.2069869-.7872104 1.2878327-3.4333568.536381-7.2605779.2145524-10.4799006 1.2873145-.1072762.3938643.3581056.4653818.6084168.572658 2.7539408.4291048 5.6509166.536381 8.3338582 1.215797 1.4189481.3606968 1.9314899 2.0387661 2.0387661 3.433875.0652986 1.0997107-.3575873 2.4321122-1.4308676 3.1835639-2.6466646 1.6811788-6.6884382 1.6091431-9.3713798.0715175-1.0250837-.5752492-2.0030074-1.5023851-2.0745249-2.6471829.0062189-.9089974.3938644-1.6241721 1.0375216-1.9672487 2.5751472-1.0370033 5.7587111-.4648635 7.9762709.8587279.1430349.7151747-.6317377.6763065-1.0017629.9297271-2.4678709 1.4308677-4.3278434-1.6096613-6.6169207-.5006223-.3218286.2145525-.5545195.8136408-.1787936 1.0012446 2.8254583 1.252074 5.9732634.3581056 8.762963-.4291048.3218286-.1072762.715693-.4291048.7514517-.7509334-.1072762-1.1447978-1.3951089-1.3951089-2.2180781-1.7169376-2.4321122-.6078984-5.1145356-.6078984-7.7254415-.8582096-.5011405-.1077944-1.1385788-.4565717-1.2878327-.8587279-.2860698-.8582096-.2860698-2.0387661.3575874-2.7539408 3.3265988-2.9332528 8.3701352-2.6824234 12.5907024-1.8957312.2860699.1072762.6078985.2145524.7151747.536381zm-15.6307131 1.3593502c.3218286 3.4333568.5006223 6.6169207.4291048 10.2295894-.0715175.4648636-.6078985.5721398-.9654859.7509335-.572658.1072762-1.3116718-.0150291-1.5381438-.3218287-.8229692-1.3230732-.536381-3.1115282-.6078985-4.7211895.1072762-2.5399066.0715175-5.2938475.7866922-7.6544422.136816-.3430766.536381-.6436573.8582096-.4296231.8587279.4296231 1.0017628 1.2878327 1.0375216 2.1465606zm39.7388377-.5006223c.1725748.2886611.3513685.7359044 0 .9297271-1.6096613.7151747-3.7914624.3933461-5.6514348.6078985-.5006223.4291048-.8944867 1.1447978-.715693 1.788455.1787937.1072762.3399671.2710408.5368993.2503111 1.1442795.0715175 2.861217-.536381 3.6121505.5368993.1850125.3187192-.0238392 1.510677-.5363811 1.5376256-1.3951089.1787937-3.6898868-.1756842-4.3636021.1787937-.8587279.572658-.7866922 1.6811788-1.1090391 2.5756654.6084168.3933461 1.2463733-.0093284 1.9672487-.1072762 1.3235915-.2150707 2.7902178-.6084167 4.1138093-.3218286.2503111.4648635.6078985.9654858.3575873 1.5376256-2.2538368 1.788455-5.1627321 3.6214788-8.262859 2.3253543-1.162418-.5218703-1.6806605-2.2895956-1.2873145-3.7914625.2503112-1.0732802 1.358832-2.1108018.679416-3.2550813-.1072762-.5006223.1787937-.9302454.6078985-1.0375216 1.1805565 0 .9302454-1.4661081 1.5381439-2.1460423-.679416-.7509335-2.3963535-.7151747-2.2175599-2.2175599.8224509-.4291048 1.8242138-.2860698 2.7539409-.4291048 2.1102836-.4291048 4.4713966-.6794159 6.6174389-.4291048.4291049.0865465 1.0017629.9297271 1.3593502 1.4666264zm-51.0774662-8.1555828c3.3006867 2.6979706 7.5829248 7.2968549 7.0465438 12.5907024-.6441755 4.1848085-5.0792951 7.3320954-8.8349988 8.3338583-3.6484275 1.0732803-8.226582.9660041-11.946527.1072762-.2503111.6794159-.5011405 1.5023851-1.2878327 1.788455-.5006223.1787936-1.1447978.0715174-1.5381438-.2503112-1.1085208-1.0375215-.2145524-3.0405289-1.8242138-3.6841862-3.1472869-1.3235914-6.54540321-3.9344973-8.15506454-7.15382-.21455241-.6436572.03575874-1.2873144.42910483-1.788455 2.46838921-1.9672486 5.57991741-2.7539408 8.69196381-3.3618393.1787937.0715175.1072762-.1787937.2503112-.2503111.1787936-2.1465606.2503111-4.3283617.9302453-6.2598517.1544363-.2710408.536381-.3575873.7866922-.1787936 1.9672487 1.5023851 1.0370033 4.3283616 1.8957312 6.3666095 3.7557037.179312 7.5114073.3581056 10.4799006 2.4683892 1.0017628.822451 1.245855 2.3932441.9302453 3.2903219-.3161279.8975961-1.3593501 1.5381439-2.324836 1.6096613-.6441755 0-1.8599725.0627074-1.788455-.4291048s2.1875018-1.2966428 1.5381439-1.9672487c-.9343913-.9644493-5.6099755-1.5381438-8.5069513-1.8957312-.3581056-.0715174-.6856349.0357588-.6856349.4291049-.0715174 2.7181821-.2860698 5.7229523.1787937 8.3338582.0357588.1793119.2503112.3938643.4291048.4296231 5.1150539.8224509 10.5161776.3575873 14.5221924-2.5751472 1.8599725-1.5023851 2.467871-3.613187 2.1460424-5.9375047-1.6096614-6.4744041-8.3701353-10.3731427-13.9142939-12.8767724-5.4006055-2.361113-11.373869-3.57691-17.77675553-3.2550813-1.01938307.0746269-2.63474506.4265136-2.64666464.7872104-.01191958.3601785 1.8299144.2472017 1.60966132.9297271-.22077132.6825254-2.09266336.2772597-2.64718288.1072762-.55400127-.1699836-.50062229-.9660041-.35758735-1.4666264 1.39510891-2.467871 5.28762861-2.6679126 7.04654378-2.7539408 9.7289672-.2503112 19.1361057 3.4546047 25.3239216 8.5126519zm-17.5264444 9.5859322c-2.4678709.0357587-5.0792951.2860699-7.36837238 1.1447978-.46486356.1787936-1.03752156.6794159-.67941597 1.2873144.92972712 1.252074 2.25901925 2.2802672 3.50487425 3.0047702 1.2463733.7239849 2.8974941 1.6454201 4.3998792 1.8599725.3575873-2.324836.3575873-4.6139133.3218286-7.010785-.1430349-.0715175 0-.2145524-.1787937-.2860699zm73.9329986-3.2545631c-.1072762 3.1115281-3.004252 5.0430181-3.004252 8.1550645.1072762.1072762.1787937.2503112.3218287.1787937 2.324836-2.5399067 4.6139133-6.1520572 8.0120296-7.2253375.8944866-.0715174 1.7050179.7063646 2.0387661 1.2878327 1.1805565 2.3605948.8944866 5.6866754-.7509334 7.833236-1.6993173 2.1071742-4.6501903 4.2205672-8.0120296 3.8629799-1.3951089 3.433875-2.361113 7.0460255-2.8974941 10.8022474-.2860698.7509335-.9654858.0709992-1.3945906-.0720357-2.8974941-2.2890773-.5187608-8.3488873-.3223469-9.1210687.1969322-.7716631.9717048-2.5901762 1.5381439-4.113291-1.3593502-2.4321122-.5006223-5.3648467.6078985-7.6181653.8587278-1.5023851 2.0387661-3.0047702 3.433875-4.1490497.1787937 0 .3218286.0352405.4291048.1787937zm5.7587111 3.8624616c-.4291048-.0715175-.6078985.5011405-.9654858.6084167-1.6454201 1.8599725-3.2908402 3.719945-4.1132911 5.9375048 1.1085208.1430349 2.0387662-.572658 3.0047703-.9660041 1.6449018-1.0370033 2.6824233-2.7539409 2.5751471-4.7211895-.0715174-.3218286-.3581056-.5721398-.5011405-.8587279z" fill="#231f20"/></svg>