<svg viewBox="0 0 97 44" xmlns="http://www.w3.org/2000/svg"><path d="m44.4738724 39.0488793c-5.7715333 0-10.3965885-.9759999-10.3965885-2.1657413 0-1.1892263 4.6250552-2.1641962 10.3965885-2.1641962 5.728785 0 10.3569304.9749699 10.3569304 2.1641962 0 1.1897414-4.6281454 2.1657413-10.3569304 2.1657413zm10.9924892-30.89670782s-6.6208335 7.98002282-6.2819374 8.48785192c.469716-.5078291-2.3774226-8.57334848-2.3774226-8.57334848s-.5933256-1.69757037-2.4582838-7.25484717h-6.7490784v-.04377837l-16.3798029.04377837h-12.35167863l-1.23248965 5.21838077h11.50443858c5.9811543 0 9.6327848 2.41914079 8.6130064 6.70633008-1.1016696 4.6688335-6.3221105 6.6630667-11.8829926 6.6630667h-2.0797297l2.6740854-11.41636679h-9.29543392l-3.94674811 16.67646579h13.19994873c9.9304777 0 19.3510662-5.2183808 21.0501817-11.9231657.2971778-1.2309446.2554596-4.32942254-.507829-6.15472272 0-.04326332-.0437784-.12721477-.0860116-.25288442-.0417182-.04326332-.0854966-.34044115.0860116-.38421951.0834364-.04223324.2528844.12772981.2528844.17099313 0 0 .0854966.21322638.169448.38267439l8.4018403 23.72220683 21.393198-24.14814454 9.0384291-.04223324h2.2069445c5.9857897 0 9.6775933 2.41914079 8.6578149 6.70633008-1.1057899 4.6688335-6.3638287 6.6630667-11.9252258 6.6630667h-2.1235081l2.7173487-11.41636679h-9.2944038l-3.9472632 16.67646579h13.1999488c9.9299626 0 19.4345025-5.2183808 21.0064033-11.9231657 1.6120738-6.70633008-5.3476557-11.92471085-15.364145-11.92471085h-19.6909923c-5.2188958 6.1511174-6.1969559 7.34034373-6.1969559 7.34034373zm-54.87282922 28.60529692c0 3.5630436 20.37135952 6.4493253 45.49241382 6.4493253 25.1668928 0 45.5418576-2.8862817 45.5418576-6.4493253 0-3.5661339-20.3749648-6.4519005-45.5418576-6.4519005-25.1210543 0-45.49241382 2.8857666-45.49241382 6.4519005z" fill="#231f20" fill-rule="evenodd"/></svg>