<svg viewBox="0 0 100 87" xmlns="http://www.w3.org/2000/svg"><g fill="none" transform="translate(0 .048)"><path d="m93.5937253 48.3871484c-2.3944411-.1750719-2.111219.5280039-2.111219.5280039.4555054.9110109 1.7807933 1.9419232 1.9795666 2.0934928.070905-.711441.120698-1.4282596.1521671-2.1502567-.0077677-.2860104-.0205147-.47124-.0205147-.47124zm-4.5058593 3.9083444c-.4913563-.4220446-1.7957312-1.1623655-2.1120157-1.3023831-.3154878-.1412127-.9500485-.2481679-1.5485592-.212317-.5983115.0358509-1.5483601.3174796-2.0070523.4931489-.457298.1770636-2.6746755.6686191-2.6746755.6686191-.7060633 4.3668375-2.8025436 11.5264592-11.3711053 17.5665373-5.4919579 3.8732903-13.7996047 5.5993114-21.9686282 3.4159922-7.1118205-1.8998979-11.265146-6.7248301-11.265146-6.7248301l44.2889934-28.0218516c.3485503.4230405.5975148.7743792.5975148.7743792l1.3027814-.1414118s1.9702056-.0342575 2.9218475-.0693117c2.3685488-1.4155126 6.0894727-3.2291693 6.5660903-3.4604075-5.0109584-15.7008969-19.7153997-27.07259974-37.0779853-27.07259974-.0274857 0-.0547722.00099585-.0824571.00099585 0 .29198558.0280832 1.60114055.4933481 2.96566519.3200688.9382975-.2485662 3.0521057-.1400176 3.9093403.3515379 2.815689 2.042704 5.3152927 2.042704 5.3152927 2.9567025.2814294 4.6458768.4570988 9.080831 2.4994045 4.4375434 2.0415089 7.1118205 5.0683198 7.1118205 5.0683198l-43.65264 27.599807c-.6700133-1.5121108-.9872937-3.8716969-.9872937-3.8716969l-3.5546157 2.6758706-3.5908648 1.5145009s.668619 1.0894686.7399185 1.7602786c.0699132.6670257.0334648.9175836-.2115163 1.3015865-.2469728.386592-1.0207545.6343615-1.6200618.5983115-.5973157-.0354526-1.5143017-.7026775-1.7602787-.9137994-.2465744-.2121177-1.4081432-1.4093383-1.4081432-1.4093383s.0601498.3352059.2145078.9347124c3.3777513 11.4422096 11.8716236 20.6889506 22.8348255 25.0902447 2.1952694.8550437 3.6348818 1.1874611 3.6348818 1.1874611 4.6560346 1.1500169 8.9874195 1.6871827 13.1666373 1.532028 16.4328526-.9631938 30.1262988-12.1203889 34.8436783-27.2407005.0121495-.0404319.0240998-.0804654.0366476-.1204988.0466062-.1513705.0906231-.3037367.1356359-.4559039.0969965-.3326165.1864246-.6516894.2676866-.9526377.0023901-.0089628.0051785-.0179255.0073694-.0264899.0382409-.1424077.0746893-.2800352.1093452-.4138786.1971799-.775375.3700608-1.559912.5198379-2.3528141-.1918023-.0213114-1.5601112-.1967816-2.4749064-.9480569-.9860986-.8094334-.9165877-.739325-1.40894-1.1615688zm4.4399335-8.3191988c-.1013784-1.2681256-.2625082-2.51972-.4825928-3.7509989-.0697101-.3140936-.1187063-.4981282-.1187063-.4981282-1.8998979 1.7602787-2.1130116 2.8867933-2.3585902 3.4504489 1.0926555.4306091 2.7692821.7620306 2.9598893.7986782zm-69.0932277-5.6823659c.7399225-.8452843 1.787366-2.3804991 2.2394855-3.0831765.4750243-.7395242 1.3193128-1.5951654 1.7959304-2.0178075.475821-.4222438.9291356-.7074576 1.9849442-1.4477784-.6379466-.7138311-1.7005271-2.6503766-2.0415089-3.5649726-.3417785-.9141977-.4087002-1.7250253-.4087002-2.7816307 0-1.055012.3282349-2.4816782.8560396-3.5380844.5280039-1.055012 2.2695605-3.4317268 2.2695605-3.4317268s2.7149081-3.0423462 2.9784122-3.4635942c.1591381-.2545413.3481519-.687142.47363-.9920738.0003984-.0007966.0007967-.0015933.0009959-.0025892l.2758527-.2943756s.0029875-.004581.0079668-.0121495c-.0703075.041826-.1402168.0842496-.2105243.1260756.0003983-.0013942.001195-.0029875.0015933-.0043817-.0489962.0296765-.0971957.0607473-.1461919.0904239-.0314691.0191204-.0637349.0376434-.0952041.056963.0003984.0003984.0007967.0011951.0009959.0017926-8.1564756 5.0049833-14.3264136 12.9298223-17.0524754 22.3217594-.718412 2.540633-1.2053866 5.2364207-1.4422016 8.1323759 0 0 .8978656.4955389 1.6363939.4955389.8980648-1.0564062 6.1376722-5.7457025 6.8750055-6.5905884z" fill="#ed1c24"/><path d="m98.7775647 45.4653009c-.5256139-.2091302-.7391258-.6568679-5.2330348-1.5260528.0003983.0137428.001195.0268881.0015934.0408301 0 0-1.8182376-.3453635-2.9782131-.8024624.2455786-.5636556.4586923-1.6901702 2.3585902-3.4504489 0 0 .004581.0159338.0117511.0444153.3616957-.288998 1.9232011-1.5393973 2.7884025-2.2833033.9857003-.8444876 1.1625647-1.9998821.7383292-2.4938277-.4202521-.4911571-.9621981-.8791434-1.6324105-.809035-.6321707.0669216-1.2995948.241396-2.9851841 1.008605.0073694.020913.0147387.0416268.0221081.062739 0 0-4.0834163 1.9708031-6.6176758 3.485304-.9516419.0350542-2.9218475.0693117-2.9218475.0693117l-1.3027814.1414118s-.2489645-.3513387-.5975148-.7743792l-.5602698.3545255.0023901.0292782.0101577-.0061743-35.5011437 22.4440508.0037842-.0027884c-.0035851-.0015934-.0075685-.0039835-.0113527-.0053777l-.9600072.6070751.158939-.1007808-.3061268.1935948c.3009483.1376275.8235746.3778285 1.1297013.5252155.4481362.2157028.5975149.282027.5975149.282027s-1.0291197 2.3070047-2.2739423 3.2365386c-1.2448225.9295339-2.2241493 1.6268337-2.7718712 2.2076181-.3732476.3957539-.6658307.7415159-.8166036.923957.1434036.106756.2899939.2143087.4423601.3234547.0240998-.0274857.188018-.2117194.4208497-.4459452-.254143.2557363-.4260281.4521196-.4260281.4521196 5.7656196 4.2172595 12.606766 5.0593571 17.821477 4.5743742 4.3604639-.4047167 8.9593363-1.9299728 12.8706683-4.8934472 4.3277998-3.2789621 6.8694287-6.8200341 8.5733418-10.4031313 1.405554-2.9545116 1.9120474-6.532032 1.9120474-6.532032s2.2173775-.4915555 2.6746755-.6686191c.4586922-.1756693 1.4087408-.457298 2.0070523-.4931489.5985107-.0358509 1.2330714.0711043 1.5485592.212317.3162845.1400176 1.6206594.8803385 2.1120157 1.3023831.4923523.4222438.4228414.3521354 1.40894 1.1615688.9857003.8096326 2.4986078.9508453 2.4986078.9508453s-.0019917.010556-.0055768.0286807c.7411175.0308716 1.6463525-.0360501 1.8074823-.5216305.2776452-.8335331.3846004-1.2922254-1.3075616-2.8935651-.0007967.0021909-.001195.0043818-.0015934.0067719 0 0-1.5131067-1.126913-2.005658-2.1130116 0 0-.2832221-.7030758 2.111219-.5280039 0 0 .0005975.0071701.0013942.0199171.3132969.0276849.8598238.0910215 1.6264353.2400018 1.2671298.2465745 2.8160874.3796211 3.3432946.1688975.5282031-.2117194 1.3384332-.7104451 1.4085416-1.41372.069511-.70447-.6702124-1.7244278-1.1958263-1.9369439zm-27.7103472-16.3866447c.0715026.0446144.1422085.0860421.2141094.1318516l.4891655-.3095127c-.2917864-.2627073-.8152094-.6612497-1.7148675-1.149021-2.0664054-1.1203403-3.5103996-1.6182693-6.1743198-2.1659912-2.4553876-.5049-5.0290831-.3236539-5.0290831-.3236539s-.0746893-1.0207544-.2738609-1.9170267c-.1991716-.8962722-1.0705474-2.1908876-1.3693048-2.6639202-.0651291-.1031709-.1396193-.2338275-.2164996-.3744426-.3037367-.4748251-1.6698547-2.7230742-1.9817574-5.2218812-.1085486-.8572346.4600864-2.9710428.1400176-3.9093403-.5280039-1.54855921-.4929497-3.0266117-.4929497-3.0266117s.0553697-.00597515.1661091-.0133445c.0852454-.06552745.4963356-.35890723 1.2145485-.51446025.809035-.17566936 3.2026794-.56445234 3.8001942-1.5145009.6010999-.95144276.9522394-2.11141819.423638-2.42869856-.5272072-.31668286-1.1257179-.42304049-1.2312789-.38798629-.1057601.0350542-1.4435958.91599022-2.21917.81023009 0 0-.9843061-.63376405-1.4079441-1.58301592-.4232396-.95243862-.8082384-2.30381797-2.1468707-2.40878141 0 0-1.47865-.23303078-2.7463773.11910462-1.2679264.35233458-4.401095 2.00665394-5.3152927 2.9931509 0 0-.1067559.42224381-.0707059.56246062 0 0-1.901093.03545254-3.2026794.63475991-1.3035782.59811233-2.7465764.87954181-4.3660408 3.44965221-1.6194643 2.56891538-1.5485592 3.73128088-1.8299887 4.32899488-.2816286.5987098-.8667948 1.4794467-.8667948 1.4794467l-.2760519.2945748c-.1254781.3051309-.3146911.7389266-.4744267.9944638-.2635041.421248-2.9784122 3.4635942-2.9784122 3.4635942s-1.7415566 2.3767148-2.2695605 3.4317268c-.5278047 1.0564062-.8560396 2.4830724-.8560396 3.5380844 0 1.0566054.0669217 1.867433.4087002 2.7816307.3409818.914596 1.4035623 2.8511415 2.0415089 3.5649726-1.0558086.7403208-1.5091232 1.0255346-1.9849442 1.4477784-.4766176.4226421-1.3209061 1.2782833-1.7959304 2.0178075-.4521195.7026774-1.499563 2.2378922-2.2394855 3.0831765-.7373333.8448859-5.9769407 5.5341822-6.8750055 6.5905884-.7385283 0-1.6363939-.4955389-1.6363939-.4955389.0025892-.0318675.005776-.0629383.0083652-.0944074-.6933164-.3051309-3.2937008-1.4764591-6.71546904-3.3494689-4.06170657-2.223751-6.15997944-2.7666928-8.76653824-1.78159 0 0-1.25219189 1.4696873.423638 2.3239343 1.79493452.9155919 2.28808341.6327682 4.01231201 1.9714006 0 0-2.815689 1.7610753-3.97825366 2.9569016-1.16117047 1.1962247-.70347412 2.7459789 1.05660537 2.6051646 1.75948196-.1408143 2.85253574-.4578955 3.80198679.1057601 0 0-.03525338.6692166-.45729801 1.0558087-.42304049.3869905-1.93515133 1.5840118-1.90149133 2.3585902.03565172.7751759-.0701084 1.7602786 1.90149133 1.5147001 0 0 1.23227472-.3180771 2.99175669-1.2681257 0 0 2.18371749 1.1615688 3.30943539 1.8303871 1.1265146.6698141 2.7461781.9151935 3.1331686.4232397 0 0 1.5139033.9853019 2.7119205 2.3938435l.1101419.1619265c.3628907.37026.8875087.9012515 1.0438584 1.0358915.245977.2111219 1.162963.8783468 1.7602787.9137994.5993073.03605 1.373089-.2117195 1.6200618-.5983115.2449811-.3840029.2814295-.6345608.2115203-1.3015865-.0713035-.67081-.7399225-1.7602786-.7399225-1.7602786l3.5908648-1.5145009 3.1327702-2.358391-.0045809-.0125478s1.4065499-1.0830952 2.8879883-1.6182693c1.4812392-.5353733 2.7423938-.8118235 2.7423938-.8118235l1.0183644 2.4157524c.0430211.0904239.0792703.1647149.1041668.2145078l36.3954243-22.9612994c-.0876355-.0561664-.1738768-.1071543-.2609148-.161329zm-36.2392738 22.9071248-1.0177669-2.4147566s.2451803.600104.5811828 1.4216869c.1788561.4373809.3314215.7719892.4365841.9930697z" fill="#fff"/><path d="m41.5344501 8.57154928c-.7678066.23601835-1.5489576 1.33783568-1.5489576 1.72422862 0 .3879863.4505261.6357557.6961047.2115202 0 0 .2539438-.80923422 1.3099517-1.79513367.1063576-.17566935 0-.28222616-.4570988-.14061515zm7.7083395 1.97080302s.352932.2115203.4937464.0709051c.1406151-.1408143-.0344567-.4216463-.0344567-.4216463s-.8456827-1.19881387-1.5150984-1.69017023l-.3164837-.0715026-.5987099.35293208.0342576.20992688s1.2691214.77497672 1.9367447 1.54955507zm-2.6744764 3.4153947c-.1049634 1.6192652.3164837 1.717656.7034741 1.7527102 0 0 .8104293.0432202.8104293-1.2958105 0-1.337039.1762669-1.1613696.3160853-1.1613696.1418102 0 .1418102.8100309.3871896.8100309.1408144 0 .1489804-.2822262.1141254-.4578955 0 0-.1840346-1.2597611-1.0639747-1.2597611 0 0-1.1623655-.0073687-1.267329 1.6120956zm52.2092515 31.5075539c-.5256139-.2091302-.7391258-.6568679-5.2330348-1.5260528.0003983.0137428.001195.0268881.0015934.0408301 0 0-1.8182376-.3453635-2.9782131-.8024624.2455786-.5636556.4586923-1.6901702 2.3585902-3.4504489 0 0 .004581.0159338.0117511.0444153.3616957-.288998 1.9232011-1.5393973 2.7884025-2.2833033.9857003-.8444876 1.1625647-1.9998821.7383292-2.4938277-.4202521-.4911571-.9621981-.8791434-1.6324105-.809035-.6321707.0669216-1.2995948.241396-2.9851841 1.008605.0073694.020913.0147387.0416268.0221081.062739 0 0-4.0834163 1.9708031-6.6176758 3.485304-.9516419.0350542-2.9218475.0693117-2.9218475.0693117l-1.3027814.1414118s-.2489645-.3513387-.5975148-.7743792l-.5602698.3545255.0023901.0292782.0101577-.0061743.0416269.6259964s-.6851503.2109227-.631374.4222438c0 0 .0163321.3342099.4391734.2987574 0 0 .6329674-.0701084 1.0914604-.2451803.4570988-.1770635 1.7945362-.3885838 2.6029737-.282027l.071901.1748727s-.5987099.176466-.9860986.3170812c-.3869905.1410135-.9141977.247172-1.0215512.423638 0 0 1.2330714-.0290791 2.1472691-.3105085 0 0 1.5148992-.4302107 2.8891833-1.2388474 1.3728899-.8094334 4.7514378-2.7810332 6.5105215-3.379743 1.7602786-.5987099 2.9228433-.5987099 3.0987118.1758685.1770636.7743792-.6682207 1.4071474-1.1972205 1.7953329-.5288006.3877871-3.2731862 2.3243326-4.5759677 4.7175786-1.3015864 2.3942419-.1758685 3.3793447.5286015 3.2725887 0 0-.8803385-.5975148-.4248331-1.7939387 0 0 .9177828.3861938 1.7250253.5987099.8114251.2103252 5.0002032.9498494 5.8100349 1.4776541.8104293.5288006 1.5848085 1.0215512 1.4790484 1.7250253-.1057601.70447-1.3027815.9510444-2.0060564 1.0211528-.7040717.0695109-2.9214492-.4929497-3.7675301-.5288006-.8452843-.0350542-2.041509-.1750718-3.2731862 1.0215512 0 0-.0711043.2816286.4202521.2117194 0 0 .7060633 1.3384332 1.3043748 1.6551161.5985107.3162845 1.6200619 1.1954279 2.0076498 1.6545185.3869904.4578955.2437861 1.0906637.0683159 1.2661339-.1756694.1754702-.9143969.3875879-2.1476675-.0703076-1.232673-.4574972-2.8144939-1.7602786-3.4132038-2.2185725-.5981123-.4570988-2.9228433-1.7660546-4.9304931-.9576171 0 0-2.8515399 1.5212727-4.7518362.7478894 0 0 .6345608-.3877871 1.2332706-.4220446.5985107-.0356518.3869905-.6343616.0683159-.6343616-.3154878 0-1.1615688-.1065568-2.814494.8448859-1.6543193.9510445-3.2761737 1.7602787-4.9287005 1.7252245-1.6547177-.0358509-1.7959304-1.4443925-1.4427992-2.3940427.3513388-.9506461 1.6541202-2.641613 2.2884818-3.1688203 0 0 .4570988-.8460809.4214471-1.513505-.0342575-.6688182-.5288006 0-.5288006.2107236 0 .2117194-.0683159.4567005-.2457778.5293981-.1770635.0697101-2.2542242-1.5057373-2.3806982-1.8228185l-.6676232.4525178s.5839712.912206 2.3083989 1.8273995c0 0 .2117194.2810312.0717018.5626598-.141611.280832-1.2671298 1.1615688-1.7961295 2.2183734-.5272073 1.0554103-.9157911 3.1331685.5987098 3.7667334 1.5143017.6329673 2.9218475-.1061585 3.2389287-.2115203.3172803-.1049634 2.9559058-1.2679264 3.3787471-1.5143017 0 0 1.3655205.5981123 2.951524.3521354 0 0 2.2173775-.4915555 2.6746755-.6686191.4586922-.1756693 1.4087408-.457298 2.0070523-.4931489.5985107-.0358509 1.2330714.0711043 1.5485592.212317.3162845.1400176 1.6206594.8803385 2.1120157 1.3023831.4923523.4222438.4228414.3521354 1.40894 1.1615688.9857003.8096326 2.4986078.9508453 2.4986078.9508453s-.0019917.010556-.0055768.0286807c.7411175.0308716 1.6463525-.0360501 1.8074823-.5216305.2776452-.8335331.3846004-1.2922254-1.3075616-2.8935651-.0007967.0021909-.001195.0043818-.0015934.0067719 0 0-1.5131067-1.126913-2.005658-2.1130116 0 0-.2832221-.7030758 2.111219-.5280039 0 0 .0005975.0071701.0013942.0199171.3132969.0276849.8598238.0910215 1.6264353.2400018 1.2671298.2465745 2.8160874.3796211 3.3432946.1688975.5282031-.2117194 1.3384332-.7104451 1.4085416-1.41372.069511-.70447-.6702124-1.7244278-1.1958263-1.9369439zm-26.8839842-16.6421819 1.3525743-.8550437s-2.6742771-3.0268109-7.1118205-5.0683198c-4.4349542-2.0423057-6.1241285-2.2179751-9.080831-2.4994045 0 0-1.6911661-2.4996037-2.042704-5.3152927-.1085486-.8572346.4600864-2.9710428.1400176-3.9093403-.5280039-1.54855921-.4929497-3.0266117-.4929497-3.0266117s.0553697-.00597515.1661091-.0133445c.0852454-.06552745.4963356-.35890723 1.2145485-.51446025.809035-.17566936 3.2026794-.56445234 3.8001942-1.5145009.6010999-.95144276.9522394-2.11141819.423638-2.42869856-.5272072-.31668286-1.1257179-.42304049-1.2312789-.38798629-.1057601.0350542-1.4435958.91599022-2.21917.81023009 0 0-.9843061-.63376405-1.4079441-1.58301592-.4232396-.95243862-.8082384-2.30381797-2.1468707-2.40878141 0 0-1.47865-.23303078-2.7463773.11910462-1.2679264.35233458-4.401095 2.00665394-5.3152927 2.9931509 0 0-.1067559.42224381-.0707059.56246062 0 0-1.901093.03545254-3.2026794.63475991-1.3035782.59811233-2.7465764.87954181-4.3660408 3.44965221-1.6194643 2.56891538-1.5485592 3.73128088-1.8299887 4.32899488-.2816286.5987098-.8667948 1.4794467-.8667948 1.4794467l-.2760519.2945748c-.1254781.3051309-.3146911.7389266-.4744267.9944638-.2635041.421248-2.9784122 3.4635942-2.9784122 3.4635942s-1.7415566 2.3767148-2.2695605 3.4317268c-.5278047 1.0564062-.8560396 2.4830724-.8560396 3.5380844 0 1.0566054.0669217 1.867433.4087002 2.7816307.3409818.914596 1.4035623 2.8511415 2.0415089 3.5649726-1.0558086.7403208-1.5091232 1.0255346-1.9849442 1.4477784-.4766176.4226421-1.3209061 1.2782833-1.7959304 2.0178075-.4521195.7026774-1.499563 2.2378922-2.2394855 3.0831765-.7373333.8448859-5.9769407 5.5341822-6.8750055 6.5905884-.7385283 0-1.6363939-.4955389-1.6363939-.4955389.0025892-.0318675.005776-.0629383.0083652-.0944074-.6933164-.3051309-3.2937008-1.4764591-6.71546904-3.3494689-4.06170657-2.223751-6.15997944-2.7666928-8.76653824-1.78159 0 0-1.25219189 1.4696873.423638 2.3239343 1.79493452.9155919 2.28808341.6327682 4.01231201 1.9714006 0 0-2.815689 1.7610753-3.97825366 2.9569016-1.16117047 1.1962247-.70347412 2.7459789 1.05660537 2.6051646 1.75948196-.1408143 2.85253574-.4578955 3.80198679.1057601 0 0-.03525338.6692166-.45729801 1.0558087-.42304049.3869905-1.93515133 1.5840118-1.90149133 2.3585902.03565172.7751759-.0701084 1.7602786 1.90149133 1.5147001 0 0 1.23227472-.3180771 2.99175669-1.2681257 0 0 2.18371749 1.1615688 3.30943539 1.8303871 1.1265146.6698141 2.7461781.9151935 3.1331686.4232397 0 0 1.5139033.9853019 2.7119205 2.3938435l.1101419.1619265c.3628907.37026.8875087.9012515 1.0438584 1.0358915.245977.2111219 1.162963.8783468 1.7602787.9137994.5993073.03605 1.373089-.2117195 1.6200618-.5983115.2449811-.3840029.2814295-.6345608.2115203-1.3015865-.0713035-.67081-.7399225-1.7602786-.7399225-1.7602786l3.5908648-1.5145009 3.5546157-2.6758706s.3172804 2.3595861.9872937 3.8716969l4.8115876-3.041948.5136636-.3248488-1.1085892-2.6300611.8592263-.0922165s.1764661-.3871896-.1057601-.3871896-2.6045671-.2465744-5.9849076 1.6891744c0 0-1.2679264.8452843-2.3237351 1.7602787-1.0558087.9159902-2.9574992 1.9717989-5.1400216 2.5350562 0 0 .2117194-1.0560079.4937464-1.4788492 0 0-1.8666363.5993074-.5634565 3.0280059 0 0 .7034741 1.2657356.1406151 2.2542243 0 0-.7038724.2800353-1.5493559-.2113211-.8444876-.4947423-4.0834162-4.4361492-5.7022831-4.6480678 0 0 .7030758 1.0560079-.7040716.5632573-1.4087408-.4929497-4.85839298-2.8871916-5.63277218-2.5344586 0 0 .56206227.4220446-.07070592.633764-.63376406.2103252-1.47805249.4923522-1.97159973.7743792-.49374642.2814295-2.04150897.2105244-1.26732893-1.1261163.77358251-1.3378356 1.90089381-1.7614736 2.04250482-3.0280059 0 0 1.26712976.562859 1.61846847.9149944.35153788.3515379.21072356-.2812303.21072356-.2812303s-1.90089381-2.4647487-6.05481683-1.620261c0 0-1.90089381.4244346-.84349175-1.1974197 0 0 2.46215939-2.1122149 4.01251118-3.096521 0 0 .49215304.3521354 1.19642383 1.2671298 0 0 .3521354.1404159.14141185-.2828237-.21132108-.4214471-.77437921-1.5479617-1.55015262-2.2514359-.77358251-.7042708-2.95670249-1.4796458-3.73088252-1.7608761-.77457838-.2816287-.76621317-1.1705316 0-1.4087408 1.02075448-.3164837 3.09811433-.2099269 5.84469078.9866961 0 0 3.09731769 1.6198627 5.70268139 3.0973177 2.6053638 1.47865 6.1964279 2.815689 6.7586893 2.1122149l-1.4073466-.5620623s1.125718-.9175836 1.6887761-1.5501526c.564054-.6329674 2.1124141-1.9992846 2.8865941-2.7035554 0 0 2.18312-1.8027022 2.9580967-2.8593076.7743792-1.0542153 1.6381864-2.5962019 2.6053638-3.6036118 1.3023831-1.3589479 2.7666927-2.000878 2.7666927-2.000878s1.0350949.8877078 2.0917002 2.0843309c0 0-.0717017-.6337641-.4222438-1.1253196-.3535296-.4927506-3.8732902-4.506656-3.8732902-7.6754762 0-3.1682227 2.6766672-6.5477666 3.6611725-7.6043719.9857003-1.0542153 1.8098724-2.1257586 2.3022246-2.8993411 0 0 .9359074-1.888346 1.3593462-2.8732496 0 0 1.4780525-4.5060584 3.3789463-5.91420166 1.9018897-1.40874077 4.7884837-2.25322838 8.2379368-2.39444105 0 0-.7727858-.28162865-1.7608762-.35233457 0 0-.4570988-.16889752.2129145-.55608712.3543263-.20614261 3.5904665-2.53983632 6.1954319-2.47112212 0 0 1.4790484-.0687142 2.1124141 1.54915675.6881379 1.75948197 2.2171783 3.15408156 3.5904665 3.04911812l-.4937464-.58377198s-.2465744-.21291444.3533305-.28282368c0 0 .633764-.14161101.9853019-.3521354.3525337-.21092273 1.1265146-.14081432.9149944.7042708-.2113211.84508513-.9440735 1.3306655-1.8590678 1.6126925-.9149944.28142948-2.249245.50330665-2.963076.67519174-1.0207545.24597694-1.1974197.91599022-1.1974197 1.2675281 0 0-1.2322747-1.51390337-1.7967271-1.58361344 0 0 2.1488625 2.28708756 2.1839167 4.99880901.0326641 2.5392388-.6190253 3.3098337.4367833 5.7026814 0 0 .7596405 1.7124775 1.3232962 2.6049654.4226421.6688183 2.1486633 3.344888 1.7598803 6.5479657-.4033225 3.3387137-2.9574992 6.6184725-3.4496522 6.9714046 0 0 3.5912632-1.8317813 4.4355516-7.5334668 0 0 5.3413842-1.3635288 12.4271132 3.1417329zm-28.4227841 1.1874611c.7038725-.0701084 1.4081433-.9858994 1.3724915-2.1132107-.0350542-1.1257179-.6682207-2.3579927-1.5838126-2.3579927-.9864969 0-1.4780525 1.0914604-1.4437949 2.3245319.0350542 1.2308805.9508452 2.2173775 1.655116 2.1466715zm13.7994056 34.9568078c-.9862978-.0683159-5.355127.2575289-12.8893905-3.9672992l.0037842-.0027884c-.0035851-.0015934-.0075685-.0039835-.0113527-.0053777l-.9600072.6070751.158939-.1007808-7.431491 4.7020432s.9751442 1.132689 2.7895975 2.5169316c.2029559.1547564.4188579.3130978.6429259.4734309.0545731-.0623407.8241722-.9279405 1.5031482-1.3704998.7050674-.4582939 1.5844101-.9496502 2.0066539-1.3724915.4222438-.4232397 1.9721972-2.2530292 2.5002012-3.6601766 0 0 6.1257219 3.1670277 11.6869915 2.6744763 0 0 .9868953-.4232397 0-.4945431zm-15.5608793-31.6471732c.0721001.2107236 1.0215512 1.2665323 2.0423057 1.196623 1.0207545-.0709051 1.5844101-.914596 1.7252244-1.4788492.1406152-.5630581-.3871896-.1750718-.3871896-.1750718-1.5487584 1.2663331-2.7786431.6009007-3.0268109.3507412-.1772627-.1756694-.4228413-.1051626-.3535296.1065568zm-.2808319-21.447396s-1.0916596.1840345-.9849036 1.5577211c.1041667 1.3720932.527008 1.688776 1.0556095 1.5836134.5272072-.1063576.7401217-.7034741.5272072-1.5836134 0 0-.3170812-.8458818-.034855-.9514428.2814295-.1061584.3869904.8098318.5985107.6692166.1310549-.087038.0350542-.3164837.0350542-.3164837s-.2465745-1.1346806-1.196623-.9590112zm3.591064 8.596844c-.7749767 1.1613696-2.0066539.3178779-2.0066539.3178779-.1764661-.1057602-.4570989.1055609-.3170812.3170812.1406151.210126.8450851 1.0908629 1.6194643.949451.7733834-.1400176 1.1265146-.9159902 1.1265146-1.4081432 0-.4927506-.4222438-.1762669-.4222438-.1762669z" fill="#231f20"/></g></svg>