<svg viewBox="0 0 361 98" xmlns="http://www.w3.org/2000/svg"><defs><style type="text/css">#text{fill:#000}@media (prefers-color-scheme:dark){#text{fill:#fff}}</style></defs><g id="text"><path d="m69.373 41.69h-30.267c-.781 0-1.414.634-1.414 1.415v14.798c0 .781.633 1.417 1.414 1.417h11.807v18.385s-2.651.904-9.981.904c-8.647 0-20.727-3.16-20.727-29.723 0-26.57 12.579-30.065 24.388-30.065 10.223 0 14.626 1.799 17.429 2.667.881.27 1.695-.607 1.695-1.389l3.376-14.297c0-.367-.124-.806-.54-1.105-1.138-.812-8.081-4.697-25.621-4.697-20.205 0-40.932 8.596-40.932 49.922s23.73 47.484 43.727 47.484c16.557 0 26.601-7.075 26.601-7.075.414-.229.459-.808.459-1.072v-46.154c0-.781-.633-1.415-1.414-1.415m155.984-36.738c0-.788-.624-1.423-1.406-1.423h-17.042c-.778 0-1.411.635-1.411 1.423 0 .003.005 32.934.005 32.934h-26.565v-32.934c0-.788-.626-1.423-1.406-1.423h-17.041c-.775 0-1.408.635-1.408 1.423v89.177c0 .787.633 1.426 1.408 1.426h17.041c.78 0 1.406-.639 1.406-1.426v-38.145h26.565s-.047 38.142-.047 38.145c0 .787.632 1.426 1.412 1.426h17.082c.781 0 1.405-.639 1.407-1.426zm-123.825 11.701c0-6.136-4.919-11.095-10.989-11.095-6.064 0-10.988 4.959-10.988 11.095 0 6.131 4.924 11.104 10.988 11.104 6.07 0 10.989-4.973 10.989-11.104m-1.218 58.664c0-2.285 0-41.164 0-41.164 0-.782-.631-1.421-1.41-1.421h-16.989c-.779 0-1.476.804-1.476 1.585v58.977c0 1.733 1.08 2.249 2.477 2.249h15.306c1.68 0 2.092-.825 2.092-2.277 0-3.161 0-15.545 0-17.949m189.81-42.451h-16.911c-.775 0-1.407.64-1.407 1.427v43.725s-4.297 3.144-10.395 3.144c-6.097 0-7.715-2.767-7.715-8.737 0-5.979 0-38.132 0-38.132 0-.787-.63-1.427-1.407-1.427h-17.164c-.774 0-1.409.64-1.409 1.427v41.018c0 17.736 9.884 22.075 23.481 22.075 11.156 0 20.15-6.164 20.15-6.164s.428 3.249.622 3.633c.193.384.698.773 1.244.773l10.919-.049c.774 0 1.409-.64 1.409-1.424l-.006-59.862c0-.787-.631-1.427-1.411-1.427m39.552 48.242c-5.866-.178-9.845-2.841-9.845-2.841v-28.24s3.925-2.406 8.741-2.836c6.09-.546 11.958 1.294 11.958 15.822 0 15.319-2.648 18.342-10.854 18.095zm6.67-50.245c-9.605 0-16.138 4.285-16.138 4.285v-30.196c0-.788-.63-1.423-1.406-1.423h-17.091c-.777 0-1.408.635-1.408 1.423v89.177c0 .787.631 1.426 1.41 1.426h11.858c.534 0 .938-.275 1.237-.756.295-.48.72-4.113.72-4.113s6.988 6.623 20.217 6.623c15.532 0 24.439-7.878 24.439-35.366s-14.226-31.08-23.838-31.08zm-187.052 1.861h-12.784s-.019-16.884-.019-16.888c0-.64-.33-.959-1.069-.959h-17.42c-.678 0-1.041.298-1.041.949v17.452s-8.73 2.108-9.321 2.277c-.587.171-1.02.713-1.02 1.36v10.967c0 .789.63 1.425 1.409 1.425h8.932v26.384c0 19.597 13.746 21.522 23.021 21.522 4.239 0 9.309-1.362 10.146-1.67.506-.187.8-.711.8-1.28l.015-12.064c0-.786-.665-1.424-1.413-1.424-.746 0-2.651.304-4.613.304-6.28 0-8.407-2.92-8.407-6.699 0-3.777-.001-25.073-.001-25.073h12.785c.779 0 1.41-.636 1.41-1.425v-13.737c0-.787-.631-1.421-1.41-1.421"/></g></svg>