<svg viewBox="0 0 96 34" xmlns="http://www.w3.org/2000/svg"><g fill="none" transform="translate(0 .22)"><path d="m68.9522275 17.8888425c.7406906-.7425161.805039-1.7720897.805039-2.3521377 0-2.3197353-1.3850869-5.9282632-4.05851-5.9282632-.8383541 0-1.7396874.4189489-2.2567561 1.0638015-.5471892.6767986-.7078319 1.5452732-.7078319 2.3840837 0 2.1581799 1.2568465 5.7347618 4.0283895 5.7347618.8045826 0 1.6730572-.3860901 2.1896695-.9022461zm-.9346484 6.1217647c-.2569371-.0328587-.4180362-.0328587-.7393216-.0328587-.2902521 0-2.0313086.0652611-3.3844495.5166123-.7082883.2573934-2.7701739 1.03003-2.7701739 3.3178193 0 2.2877894 2.2238974 3.9320952 5.6708699 3.9320952 3.0919155 0 4.7366777-1.4845759 4.7366777-3.4793748 0-1.6465877-1.0633451-2.5136932-3.5136026-4.2542933zm2.288702-14.30541489c.7406907.61199389 2.2864203 1.90033009 2.2864203 4.34967489 0 2.3836273-1.3531409 3.5126899-2.7062819 4.574666-.4189488.4180361-.9017897.8703-.9017897 1.5799574 0 .7078319.4828409 1.0943784.836985 1.3850869l1.161465.9004206c1.4170329 1.1924982 2.7049127 2.2891584 2.7049127 4.5130558 0 3.0275672-2.9321856 6.0879932-8.4729896 6.0879932-4.6723294 0-6.9268037-2.2225283-6.9268037-4.6075247 0-1.1605522.5786789-2.8016634 2.4817472-3.930726 1.9957117-1.2239879 4.7033626-1.3846306 6.1527979-1.4832068-.4518076-.5795915-.9670508-1.1911291-.9670508-2.1892131 0-.5476456.1620118-.8707564.3226545-1.2568466-.3555132.031946-.7087446.063892-1.0313991.063892-3.4145701 0-5.3482153-2.5460955-5.3482153-5.0575068 0-1.4818376.6777114-3.1261434 2.0618855-4.3177289 1.8368945-1.51423995 4.0270204-1.77163337 5.7680769-1.77163337h6.6360951l-2.0618855 1.15963948z" fill="#0079c1"/><path d="m54.042577 20.8894838c.7740057-1.0295736.9675072-2.3156279.9675072-3.5715618 0-2.8304148-1.3513155-8.23385103-5.340457-8.23385103-1.0615197 0-2.1230393.41894886-2.8943068 1.09529113-1.2545647 1.1249553-1.4809249 2.5401627-1.4809249 3.9238805 0 3.1841025 1.5763065 8.4259833 5.4691537 8.4259833 1.2541083 0 2.5410754-.6106248 3.2790278-1.6397421zm-4.0197184 2.6054238c-5.1140969 0-7.8486737-3.9882288-7.8486737-7.5917366 0-4.2141326 3.4419524-7.81581496 8.3324272-7.81581496 4.727094 0 7.6871183 3.69843306 7.6871183 7.59128026 0 3.7947274-2.9262528 7.8162713-8.1708718 7.8162713z" fill="#ffc426"/><path d="m36.6082805 20.8894838c.773093-1.0295736.966138-2.3156279.966138-3.5715618 0-2.8304148-1.3513154-8.23385103-5.340457-8.23385103-1.0610633 0-2.1230393.41894886-2.8947631 1.09529113-1.2545648 1.1249553-1.4795558 2.5401627-1.4795558 3.9238805 0 3.1841025 1.5758501 8.4259833 5.4691537 8.4259833 1.2545647 0 2.5410754-.6106248 3.2794842-1.6397421zm-4.0206312 2.6054238c-5.1145532 0-7.8491301-3.9882288-7.8491301-7.5917366 0-4.2141326 3.4428652-7.81581496 8.3319709-7.81581496 4.7280067 0 7.6875746 3.69843306 7.6875746 7.59128026 0 3.7947274-2.9267091 7.8162713-8.1704154 7.8162713z" fill="#ed164f"/><path d="m22.2814161 22.9906173-4.6253231 1.0674525c-1.8761424.2907085-3.5574143.5494711-5.3349806.5494711-8.92662265 0-12.3211124-6.5653576-12.3211124-11.7077495 0-6.2732799 4.81791185-12.09292676 13.0649977-12.09292676 1.7469893 0 3.4273485.25739341 4.9466085.67816776 2.4265263.6790805 3.5578707 1.52017281 4.2698099 2.00483913l-2.6848323 2.55522293-1.1318009.25784979.80869-1.29426902c-1.0989421-1.06608336-3.1056067-3.03897651-6.9204145-3.03897651-5.10953307 0-8.95856865 3.88235068-8.95856865 9.54135488 0 6.0784094 4.39850663 11.8022182 11.44761775 11.8022182 2.0714694 0 3.1370964-.4189488 4.1073418-.8086899v-5.2058275l-4.8822602.2587626 2.5862561-1.3905634h6.8560661l-.8401795.8073208c-.2281857.1935015-.2587626.260588-.3240237.5170687-.0333151.2920777-.063892 1.2299207-.063892 1.5530316z" fill="#0079c1"/><path d="m80.528542 22.0600762c-1.0688216-.0976634-1.2924436-.2911649-1.2924436-1.5525751v-18.30459664c.0059329-.06982481.0114093-.14101874.0187113-.20856169.129153-1.13134446.4527203-1.32484589 1.455368-1.90854479h-4.6253231l-2.4260699 1.16465957h2.4726198v.01460388l-.0018255-.01095291v19.96487538c0 .6462218-.1282404.7434289-.872582 1.7127615h5.7242653l1.1970619-.7105701c-.5499274-.0648047-1.0998548-.0972071-1.6497822-.1610991z" fill="#49aa42"/><path d="m90.6691123 12.7856986c.6097121-.2254474.9305411-.4171234.9305411-.8671055 0-1.2833161-1.4448715-2.76241546-3.1790825-2.76241546-1.2865107 0-3.6938693.99625856-3.6938693 4.46513686 0 .5462764.063892 1.1244989.0972071 1.7022649zm3.0184398 9.5714754c-.3523186.1925886-.7060064.4180361-1.058325.5786788-1.0615197.4810153-2.1536162.609712-3.117016.609712-1.0268355 0-2.6328061-.0652611-4.2720918-1.2522828-2.2782055-1.6068834-3.2749205-4.3688425-3.2749205-6.7775703 0-4.9771854 4.0475571-7.41831549 7.3544236-7.41831549 1.1559885 0 2.3462049.28888304 3.3096047.89996421 1.6046015 1.05786868 2.0217249 2.43884828 2.2462595 3.17771338l-7.5460995 3.0517549-2.4744452.1925887c.8023008 4.0790467 3.565629 6.4553721 6.6164712 6.4553721 1.638373 0 2.8263075-.5777661 3.918404-1.1231298z" fill="#ed164f"/></g></svg>