<svg viewBox="0 0 100 103" xmlns="http://www.w3.org/2000/svg"><g fill="none" transform="translate(0 .516)"><path d="m34.2027155 2.7914005c-12.3887196 4.24140124-22.9376527 13.5064624-28.78658213 25.2161492-2.03602314 4.0349495-3.52258347 8.3419422-4.41613257 12.7720532-2.24623836 11.0371056-.68064571 22.8043193 4.41021858 32.8570156 3.3086048 6.5618332 8.05215702 12.3946335 13.80592502 16.9677555 5.428499 4.3284981 11.7559234 7.5258124 18.4639933 9.3102225 8.4650605 2.2704315 17.4758204 2.2188185 25.9962573.2801075 7.7010815-1.7725818 14.9871088-5.4521547 20.8043177-10.8231267 6.1489297-5.6505422 10.5349547-13.0951718 12.8569996-21.0957158 2.5327977-8.7268887 2.8822607-18.0430252 1.294087-26.9763657-15.93926-.0080645-31.8790577-.0037634-47.8183178-.0021505.0016129 6.6112956-.0080645 13.2220536.0037635 19.8311986 9.2311901-.0016129 18.4623803-.0037634 27.69142 0-1.0698934 6.335489-4.8349501 12.129042-10.1736641 15.6957115-3.3564543 2.2564534-7.212909 3.7215084-11.188181 4.4177455-4.0016161.6827962-8.1354904.7704307-12.1268914-.0376344-4.059143-.8096781-7.9333397-2.5005397-11.3129123-4.8844126-5.404843-3.7967772-9.5290399-9.352158-11.6467835-15.6037759-2.1650555-6.3591449-2.1811845-13.4344193.0102151-19.7876502 1.5198937-4.4779606 4.0505408-8.6139854 7.3752747-11.9801171 4.1005409-4.1978529 9.4311903-7.1983929 15.1752809-8.429039 4.9182835-1.0500009 10.1043092-.8494631 14.9193668.6069897 4.0924764 1.2424741 7.8655977 3.4854867 10.9559228 6.4365643 3.1236584-3.1059165 6.232263-6.2301125 9.3500074-9.341943 1.6354852-1.6752701 3.3543038-3.2768843 4.938176-4.9978534-4.7354876-4.3822616-10.287105-7.90484506-16.3521636-10.13172856-10.9204388-4.01935806-23.2360401-4.104842-34.2295973-.30000024z" fill="#fff"/><path d="m34.2027155 2.7914005c10.9935572-3.80484176 23.3091585-3.71935782 34.2295973.30000024 6.0650586 2.2268835 11.616676 5.74946696 16.3521636 10.13172856-1.5838722 1.7209691-3.3026908 3.3225833-4.938176 4.9978534-3.1177444 3.1118305-6.226349 6.2360265-9.3500074 9.341943-3.0903251-2.9510776-6.8634464-5.1940902-10.9559228-6.4365643-4.8150576-1.4564528-10.0010833-1.6569906-14.9193668-.6069897-5.7440906 1.2306461-11.07474 4.2311861-15.1752809 8.429039-3.3247339 3.3661317-5.855381 7.5021565-7.3752747 11.9801171-5.5516174-4.3069927-11.1010842-8.6161359-16.65431443-12.9209781 5.84892943-11.7096868 16.39786253-20.97474796 28.78658213-25.2161492z" fill="#eb4435"/><path d="m1.0000008 40.7796029c.8935491-4.430111 2.38010943-8.7371037 4.41613257-12.7720532 5.55323023 4.3048422 11.10269703 8.6139854 16.65431443 12.9209781-2.1913996 6.3532309-2.1752706 13.4285053-.0102151 19.7876502-5.5494668 4.3064551-11.0946325 8.6193618-16.65001332 12.9204405-5.09086429-10.0526963-6.65645694-21.81991-4.41021858-32.8570156z" fill="#fabc13"/><path d="m50.8134815 41.2973453c15.9392601-.0016129 31.8790578-.005914 47.8183178.0021505 1.5881737 8.9333405 1.2387107 18.249477-1.294087 26.9763657-2.3220449 8.000544-6.7080699 15.4451736-12.8569996 21.0957158-5.3747354-4.1897883-10.7709763-8.355383-16.1457118-12.5473219 5.338714-3.5666695 9.1037707-9.3602225 10.1736641-15.6957115-9.2290397-.0037634-18.4602299-.0016129-27.69142 0-.011828-6.609145-.0021506-13.219903-.0037635-19.8311986z" fill="#557dbf"/><path d="m5.41021938 73.6366185c5.55538082-4.3010787 11.10054652-8.6139854 16.65001332-12.9204405 2.1177436 6.2516179 6.2419405 11.8069987 11.6467835 15.6037759 3.3795726 2.3838729 7.2537693 4.0747345 11.3129123 4.8844126 3.991401.8080651 8.1252753.7204306 12.1268914.0376344 3.975272-.6962371 7.8317267-2.1612921 11.188181-4.4177455 5.3747355 4.1919389 10.7709764 8.3575336 16.1457118 12.5473219-5.8172089 5.370972-13.1032362 9.0505449-20.8043177 10.8231267-8.5204369 1.938711-17.5311968 1.990324-25.9962573-.2801075-6.7080699-1.7844101-13.0354943-4.9817244-18.4639933-9.3102225-5.753768-4.573122-10.49732022-10.4059223-13.80592502-16.9677555z" fill="#32a852"/></g></svg>