<svg viewBox="0 0 94 62" xmlns="http://www.w3.org/2000/svg"><g fill="#0f7dc2" fill-rule="evenodd" transform="translate(.105 .275)"><g fill-rule="nonzero"><path d="m92.8104575 17.5815359c-4.3622549-21.29754897-45.7142157-22.64771237-72.3704248-6.4215686v1.7921569c26.6256536-13.68856211 64.3929738-13.60539217 67.8315359 6.0135621 1.1535948 6.4898693-2.5021242 13.2511438-9.0331699 17.144281v5.0905229c7.8565359-2.8816994 15.9150327-12.2022876 13.5720588-23.6189543m-48.4472222 37.2781046c-18.3905229 1.6964053-37.55882354-.9756536-40.24379086-15.3480392-1.31339869-7.0849673 1.91879085-14.5980392 6.20032676-19.2679738v-2.4936275c-7.71307185 6.7647059-11.89297381 15.3240196-9.48545747 25.4348039 3.07565359 12.9686275 19.52238557 20.3125817 44.63333337 17.8738562 9.939379-.9630719 22.9382353-4.1591503 31.9808823-9.1261438v-7.0511438c-8.2070261 4.8900327-21.7789216 8.9294118-33.0852941 9.978268" transform="translate(.097 .081)"/><path d="m.08006536.10294118h4.82189542v21.47581702c0 2.51683-1.21683006 4.7053921-4.82189542 5.0552287z" transform="matrix(-1 0 0 1 76.139 14.458)"/><path d="m.06862745.03137255h4.83071896l.00261437 14.03088235c0 2.5256536-1.22058823 4.7119281-4.83333333 5.0553922z" transform="matrix(-1 0 0 1 18.712 22.371)"/></g><path d="m13.813 15.215h4.816v4.571h-4.816z"/><g fill-rule="nonzero"><path d="m5.55555556 24.0145425c-3.90277778 0-5.55457517-2.7125817-5.55457517-5.3848039v-18.6297386h4.77990196v5.15065359h3.5998366v3.86078432h-3.5998366v9.32287579c0 1.0895425.51732026 1.6965687 1.65343138 1.6965687h1.94640522v3.9836601z" transform="translate(41.966 17.252)"/><path d="m8.66013072 4.07843137c-1.63611111 0-2.89313726.84264706-3.42598039 1.97924837-.31029412.68316993-.42401961 1.21552287-.45931373 2.05506536h7.3666667c-.0934641-2.05506536-1.0251634-4.03431373-3.48137258-4.03431373m-3.88529412 7.29346403c0 2.4462419 1.52973856 4.2437909 4.23594771 4.2437909 2.12075159 0 3.16601309-.5883987 4.39035949-1.797549l2.9537582 2.813562c-1.8936275 1.8707517-3.8779412 3.0080066-7.37924841 3.0080066-4.5743464 0-8.95735294-2.4965686-8.95735294-9.77500002 0-6.22238562 3.83006536-9.73970588 8.85114379-9.73970588 5.10457516 0 8.03823526 4.11748366 8.03823526 9.52254902v1.72434638z" transform="translate(51.542 21.957)"/><path d="m8.82352941 3.8624183c1.40163399 0 1.98431369.69297386 1.98431369 1.81764706v13.21339874h4.7808824v-13.24117652c0-2.68300653-1.4295752-5.64558823-5.62794119-5.64558823l-9.87598039-.00506536v18.89183011h4.78284314v-15.0310458z" transform="translate(22.803 22.4)"/></g></g></svg>