<svg viewBox="0 0 37 40" xmlns="http://www.w3.org/2000/svg"><path d="m35.7956104 9.2683927-.2031047-.20310474s3.0049044-7.4441236-3.3500027-7.4441236c-4.0094803 0-8.6529481 3.28496995-8.6529481 3.28496995s13.1397164 2.16323702 12.0982123 17.22599419h-21.7127625s-.0024656.0450051-.0031786.1271196l.0002556.1158447c.0136396 1.1053881.3712612 5.6058966 5.2909992 5.6058966 4.0859509 0 4.8872588-3.6856239 4.8872588-3.6856239h11.3772967s-3.0447737 11.2970679-15.864065 11.2970679c-3.0446103 0-4.1661798-.2403597-4.1661798-.2403597s-5.2078473 4.1305589-10.33562921 4.1305589c-5.12778188 0-5.60866462-5.5728803-4.88742221-8.0565424.72107901-2.4836622 3.60539504-14.6666784 15.78383612-22.99462628v-.56094816s-8.25245754 3.44526424-14.18138386 11.93808144l-.00038143-.0183396c-.0001005-.0060726-.00020615-.0136328-.00029698-.0226502l.00012239-.1196774c.01192299-1.1715696.35945819-8.4738907 7.05121526-12.73885291 6.69003802-4.04608167 13.38007602-2.24346585 13.38007602-2.24346585s5.6086647-4.08611438 10.0952696-4.08611438c0 0 .0748374-.00699273.2050429-.00918894l.1479405-.00016072c1.3746189.01926161 6.1435622.64451469 3.0398297 8.6982455zm-31.0971187 19.4241041s-3.05784559 4.6601344-1.17614474 7.9506599c3.51274791 3.2906889 11.33808094-1.4583345 11.33808094-1.4583345-5.26364659-1.177042-8.11898883-3.8533859-9.37130868-5.3768541l-.17191645-.2144088c-.42842678-.5481684-.61871107-.9010625-.61871107-.9010625zm14.5425583-16.719549c-5.0303071 0-5.2836103 4.3271357-5.2938478 4.9565372l-.0001107.0759831h10.3263155l.0005615-.0201986c.0072444-.3456773.0116268-5.0123217-5.0329185-5.0123217z" fill="#006db8"/></svg>