<svg viewBox="0 0 2501 587" xmlns="http://www.w3.org/2000/svg"><path d="m.91715547 577.547782h98.03269433v-255.507851c0-50.39205 33.0672632-87.006914 80.3148492-87.006914 45.665276 0 74.015844 28.743625 74.015844 75.195017v267.319748h95.27121v-257.876278c0-49.988913 32.281147-84.638487 79.518655-84.638487 48.033702 0 74.801959 29.126605 74.801959 80.304771v262.209994h98.032694v-286.216767c0-83.449235-53.93965-138.971196-136.21979-138.971196-60.238656 0-109.834512 32.291226-129.920783 83.852372h-2.368427c-15.349418-53.536514-57.477172-83.852372-116.526576-83.852372-56.691057 0-100.784101 31.898168-118.8950035 80.324928h-1.96529v-72.443611h-94.09203603zm814.55725553-67.323779c-42.510734 0-70.851223-21.648425-70.851223-55.904941 0-33.057185 27.151237-54.32263 74.398823-57.477172l96.450384-5.905948v31.888089c0 50.39205-44.486102 87.399972-99.997984 87.399972zm-29.529741 74.015843c53.546592 0 105.914011-27.947431 129.930862-73.219649h1.96529v66.527585h94.485098v-287.395941c0-83.852371-67.323783-138.578138-170.85929-138.578138-106.29699 0-172.824575 55.904941-177.158291 133.851364h90.937494c6.299006-34.639495 35.828747-57.084114 82.280139-57.084114 48.42676 0 77.956502 25.196025 77.956502 68.896011v29.922799l-110.237649 6.299006c-101.570217 6.299006-158.654331 50.785108-158.654331 124.800952 0 75.184938 58.656346 125.980125 139.364254 125.980125zm656.69912-275.190986c-6.69207-87.782951-74.80196-157.475157-185.03961-157.475157-121.24327 0-199.98589 83.852372-199.98589 217.310677 0 135.433674 78.73254 216.91762 200.78208 216.91762 104.71469 0 176.76524-61.417831 184.63648-154.723751h-92.51981c-9.05041 47.247586-41.34164 75.588075-90.93749 75.588075-62.20395 0-102.35633-50.39205-102.35633-137.792022 0-85.817661 39.75932-137.792022 101.57021-137.792022 52.35734 0 83.44924 33.460321 91.33055 77.956502h92.51981zm302.75544-309.04436503c-165.72938 0-269.66802 112.98905503-269.66802 293.69494703 0 180.705891 103.92856 293.301888 269.67809 293.301888 165.3464 0 269.28504-112.595997 269.28504-293.301888 0-180.705892-103.92856-293.68486862-269.29511-293.68486862zm0 86.61385583c101.18723 0 165.74953 80.3148492 165.74953 207.0810912 0 126.373183-64.57238 206.688033-165.73946 206.688033-101.57021 0-165.73945-80.31485-165.73945-206.688033 0-126.766242 64.16924-207.0810912 165.73945-207.0810912zm310.64683 331.0959262c4.33371 104.71468 90.15138 169.287053 220.85828 169.287053 137.39896 0 224.01282-67.716837 224.01282-175.586059 0-84.638488-48.81982-132.279132-164.1773-158.654331l-65.34841-14.95636c-69.68213-16.538671-98.41568-38.590232-98.41568-76.38427 0-47.237508 43.30693-78.7325391 107.47617-78.7325391 64.95535 0 109.44145 31.8880891 114.16822 85.0315451h96.85353c-2.36843-99.9879056-85.04163-167.70474262-210.23564-167.70474262-123.62178 0-211.41481 68.09981662-211.41481 168.88391662 0 81.100966 49.60594 131.493016 154.32062 155.509867l73.62278 17.334865c71.6575 16.921651 100.7841 40.545444 100.7841 81.483945 0 47.247587-47.64064 81.100966-116.13351 81.100966-69.28907 0-121.64641-34.246437-127.94542-86.613856z"/></svg>