<svg viewBox="0 0 42 42" xmlns="http://www.w3.org/2000/svg"><path d="m23.091 14.018v-.342l-1.063.073c-.301.019-.527.083-.679.191-.152.109-.228.26-.228.453 0 .188.075.338.226.449.15.112.352.167.604.167.161 0 .312-.025.451-.074s.261-.118.363-.206c.102-.087.182-.191.239-.312.058-.121.087-.254.087-.399zm-2.091-13.768c-11.579 0-20.75 9.171-20.75 20.75 0 11.58 9.171 20.75 20.75 20.75s20.75-9.17 20.75-20.75c0-11.579-9.17-20.75-20.75-20.75zm4.028 12.299c.098-.275.236-.511.415-.707s.394-.347.646-.453.533-.159.842-.159c.279 0 .531.042.755.125.225.083.417.195.578.336s.289.305.383.493.15.387.169.596h-.833c-.021-.115-.059-.223-.113-.322s-.125-.185-.213-.258c-.089-.073-.193-.13-.312-.171-.12-.042-.254-.062-.405-.062-.177 0-.338.036-.481.107-.144.071-.267.172-.369.302s-.181.289-.237.475c-.057.187-.085.394-.085.622 0 .236.028.448.085.634.056.187.136.344.24.473.103.129.228.228.373.296s.305.103.479.103c.285 0 .517-.067.697-.201s.296-.33.35-.588h.834c-.024.228-.087.436-.189.624s-.234.348-.396.481c-.163.133-.354.236-.574.308s-.462.109-.725.109c-.312 0-.593-.052-.846-.155-.252-.103-.469-.252-.649-.445s-.319-.428-.417-.705-.147-.588-.147-.935c-.002-.339.047-.647.145-.923zm-11.853-1.262h.834v.741h.016c.051-.123.118-.234.2-.33.082-.097.176-.179.284-.248.107-.069.226-.121.354-.157.129-.036.265-.054.407-.054.306 0 .565.073.775.219.211.146.361.356.449.63h.021c.056-.132.13-.25.221-.354s.196-.194.314-.268.248-.13.389-.169.289-.058.445-.058c.215 0 .41.034.586.103s.326.165.451.29.221.277.288.455.101.376.101.594v2.981h-.87v-2.772c0-.287-.074-.51-.222-.667-.147-.157-.358-.236-.632-.236-.134 0-.257.024-.369.071-.111.047-.208.113-.288.198-.081.084-.144.186-.189.304-.046.118-.069.247-.069.387v2.715h-.858v-2.844c0-.126-.02-.24-.059-.342s-.094-.189-.167-.262c-.072-.073-.161-.128-.264-.167-.104-.039-.22-.059-.349-.059-.134 0-.258.025-.373.075-.114.05-.212.119-.294.207-.082.089-.146.193-.191.314-.044.12-.116.252-.116.394v2.683h-.825zm1.893 20.939c-3.825 0-6.224-2.658-6.224-6.9s2.399-6.909 6.224-6.909 6.215 2.667 6.215 6.909c0 4.241-2.39 6.9-6.215 6.9zm7.082-16.575c-.141.036-.285.054-.433.054-.218 0-.417-.031-.598-.093-.182-.062-.337-.149-.467-.262s-.232-.249-.304-.409c-.073-.16-.109-.338-.109-.534 0-.384.143-.684.429-.9s.7-.342 1.243-.377l1.18-.068v-.338c0-.252-.08-.445-.24-.576s-.386-.197-.679-.197c-.118 0-.229.015-.331.044-.102.03-.192.072-.27.127s-.143.121-.193.198c-.051.076-.086.162-.105.256h-.818c.005-.193.053-.372.143-.536s.212-.306.367-.427.336-.215.546-.282.438-.101.685-.101c.266 0 .507.033.723.101s.401.163.554.288.271.275.354.451.125.373.125.59v3.001h-.833v-.729h-.021c-.062.118-.14.225-.235.32-.096.095-.203.177-.322.244-.12.067-.25.119-.391.155zm5.503 16.575c-2.917 0-4.9-1.528-5.038-3.927h1.899c.148 1.371 1.473 2.279 3.288 2.279 1.741 0 2.992-.908 2.992-2.149 0-1.074-.76-1.723-2.519-2.167l-1.714-.426c-2.464-.611-3.584-1.732-3.584-3.575 0-2.269 1.982-3.844 4.807-3.844 2.76 0 4.686 1.584 4.76 3.862h-1.88c-.13-1.371-1.25-2.214-2.918-2.214-1.658 0-2.806.852-2.806 2.084 0 .972.722 1.547 2.482 1.991l1.445.361c2.751.667 3.881 1.751 3.881 3.696-.001 2.482-1.964 4.029-5.095 4.029zm-12.585-12.106c-2.621 0-4.26 2.01-4.26 5.205 0 3.186 1.639 5.196 4.26 5.196 2.612 0 4.2600005-2.01 4.2600005-5.196.0009995-3.195-1.6480005-5.205-4.2600005-5.205z"/></svg>