<svg viewBox="0 0 1639 350" xmlns="http://www.w3.org/2000/svg"><g fill="none" fill-rule="evenodd"><path d="m0 0h166.5c-.01 55.5 0 111-.01 166.5-55.49 0-110.99 0-166.49 0z" fill="#f25022"/><path d="m166.5 0h17c0 55.5-.01 111 .01 166.5 55.49 0 110.99-.01 166.48 0 .02-55.5.01-111 .01-166.5h1289v129.49c-11.88.04-23.76-.09-35.63.08-.27-15.03-.03-30.06-.13-45.08-11.88 3.58-23.69 7.39-35.63 10.79-.29 11.4-.02 22.81-.15 34.21-17.56-.01-35.12.02-52.68-.02.22-8.98-.62-18.03.67-26.96 1.07-7.04 5.15-14.08 12.01-16.8 8.65-3.55 18.32-1.19 26.54 2.43-.05-10.29.08-20.58-.07-30.86-17.3-4.76-37.13-3.83-52.48 6.16-9.9 6.34-17.08 16.48-20.31 27.72-3.82 12.45-1.87 25.6-2.48 38.38-8.33-.06-16.65-.14-24.96.05.09 9.62.05 19.24.02 28.85 8.35.17 16.71-.03 25.06.13-.07 40.48-.02 80.95-.02 121.43h36.01c0-40.49-.01-80.98.01-121.47 17.56-.03 35.13-.02 52.7-.01.05 25.81-.05 51.61.04 77.41.16 12.02 2.21 24.87 10.17 34.36 6.89 8.4 17.83 12.24 28.39 13.02 11.13.79 22.63-.57 32.92-5.04v71.73h-1289c0-55.5 0-111 0-166.5-55.5 0-111-.01-166.49.01-.02 55.49 0 110.99-.01 166.49h-17c0-55.5.01-110.99 0-166.49-55.5-.03-111 0-166.5-.02v-16.99h166.49c.01-55.5 0-111 .01-166.5" fill="#fefefe"/><path d="m183.5 0h166.5c0 55.5.01 111-.01 166.5-55.49-.01-110.99 0-166.48 0-.02-55.5-.01-111-.01-166.5" fill="#80ba01"/><path d="m1501.45 63.44c15.35-9.99 35.18-10.92 52.48-6.16.15 10.28.02 20.57.07 30.86-8.22-3.62-17.89-5.98-26.54-2.43-6.86 2.72-10.94 9.76-12.01 16.8-1.29 8.93-.45 17.98-.67 26.96 17.56.04 35.12.01 52.68.02.13-11.4-.14-22.81.15-34.21 11.94-3.4 23.75-7.21 35.63-10.79.1 15.02-.14 30.05.13 45.08 11.87-.17 23.75-.04 35.63-.08v29.24c-11.92-.49-23.85-.13-35.77-.17.05 16.81.01 33.62.02 50.44.19 9.31-.5 18.67.59 27.95.66 5.47 2.65 11.53 7.78 14.36 8.59 4.81 19.49 2.71 27.38-2.57v29.53c-10.29 4.47-21.79 5.83-32.92 5.04-10.56-.78-21.5-4.62-28.39-13.02-7.96-9.49-10.01-22.34-10.17-34.36-.09-25.8.01-51.6-.04-77.41-17.57-.01-35.14-.02-52.7.01-.02 40.49-.01 80.98-.01 121.47-12 0-24.01 0-36.01 0 0-40.48-.05-80.95.02-121.43-8.35-.16-16.71.04-25.06-.13.03-9.61.07-19.23-.02-28.85 8.31-.19 16.63-.11 24.96-.05.61-12.78-1.34-25.93 2.48-38.38 3.23-11.24 10.41-21.38 20.31-27.72m-770.98 2.1c7.26-1.1 15.12 1.38 19.93 7.06 5.64 6.22 6.68 16.12 2.5 23.39-4.62 8.2-14.96 12.01-23.97 10.04-9.35-1.68-17.14-10.37-16.72-20.06-.27-10.2 8.26-19.29 18.26-20.43m-275.97 4.46h52.37c16.3 41.39 32.72 82.74 49.04 124.13 4.17 10.35 8.07 20.82 12.44 31.09 20.97-51.72 42.24-103.31 63.05-155.1 16.79-.27 33.59-.06 50.39-.1-.04 69.99-.02 139.98-.01 209.97-12.12-.03-24.23.1-36.34-.07.13-51.65-.01-103.3.06-154.96.02-2.32-.06-4.64-.22-6.96-.71 1.08-1.34 2.2-1.89 3.36-20.81 52.87-42.02 105.59-62.71 158.51-8.62.31-17.25.02-25.88.16-21.47-52.87-42.67-105.86-64.03-158.77-.56-1.1-1.16-2.17-1.81-3.2-.44 22.63-.07 45.28-.19 67.91.01 31.34-.02 62.68.01 94.02-11.43.03-22.86 0-34.28.01-.011547-70-.02-140 0-210m375.07 59.35c17.38-4.95 36.12-4.75 53.49.16 3.58 1 7.05 2.39 10.27 4.28-.2 11.47 0 22.95-.11 34.43-11.61-8.87-26.34-14.49-41.1-12.63-11.72 1.06-22.9 7.14-29.91 16.61-9.01 11.74-11.09 27.33-9.54 41.69 1.16 11.24 5.81 22.47 14.55 29.92 9.08 8.07 21.81 10.93 33.69 10.03 11.74-1.35 22.82-6.32 32.31-13.26.1 10.87-.05 21.74.08 32.61-14.72 8.76-32.37 11.02-49.22 10.19-17.24-.91-34.43-7.44-46.91-19.56-13.56-13.07-20.92-31.71-21.79-50.38-.88-19.41 3.07-39.66 14.24-55.87 9.36-13.83 24-23.62 39.95-28.22m243.97-2.59c17.28-2.2 35.51-1.22 51.55 6.08 13.92 6.28 25.2 17.89 31.45 31.79 6.67 14.8 8.29 31.42 7.16 47.47-1.11 15.67-6.03 31.37-15.83 43.82-10.03 13.22-25.15 22.18-41.34 25.51-13.84 2.88-28.32 2.87-42.16-.04-16.56-3.54-31.89-13.15-41.6-27.13-11.4-16.2-14.64-36.8-13.19-56.21.98-16.47 6.1-33.07 16.62-45.99 11.52-14.47 29.19-23.01 47.34-25.3m149.38.3c16.65-2.93 34.08-.78 49.84 5.19.02 11.04 0 22.07.01 33.1-11.01-7.57-24.46-11.64-37.82-11.17-6.73.26-14.13 3.11-17.2 9.51-2.44 6.33-.75 14.63 5.22 18.42 10.21 6.83 22.39 9.73 32.97 15.85 8.33 4.68 16.41 10.8 20.63 19.62 7.93 16.52 4.57 38.35-9.37 50.67-13.31 12.44-32.48 15.88-50.11 15.22-12.52-.81-25.1-3.28-36.61-8.4.05-11.61-.07-23.21.06-34.81 9.68 7.03 20.85 12.06 32.67 14.1 8.23 1.34 17.18 1.4 24.85-2.28 7.34-3.65 8.66-14.08 4.3-20.46-4.08-4.92-10.07-7.63-15.72-10.29-10.61-4.77-21.76-8.76-31.08-15.91-6.55-5.11-11.51-12.31-13.45-20.43-2.88-11.97-1.98-25.46 4.98-35.92 7.95-12.19 21.76-19.5 35.83-22.01m137.63-.35c17.97-2.23 37.05-1.02 53.45 7.26 14.3 7.15 25.39 20.07 30.93 35.01 4.33 11.43 5.85 23.77 5.6 35.94.03 18.18-4.88 36.84-16.29 51.26-10.68 13.96-27.02 23.03-44.27 25.88-16.87 2.73-34.69 2.02-50.72-4.29-16.24-6.39-29.74-19.43-36.58-35.49-7.13-16.37-7.88-34.79-5.66-52.28 2.33-17.49 10.25-34.59 23.75-46.22 11.06-9.71 25.3-15.21 39.79-17.07m-386.7 5.09c9.94-5.97 22.57-6.47 33.42-2.82-.05 12.01 0 24.02-.03 36.03-7.1-4.6-15.96-6.57-24.34-5.72-10.22 1.16-18.32 9.01-22.52 18.01-4.56 9.53-5.42 20.31-5.13 30.73 0 23.99.01 47.98 0 71.97-11.84 0-23.67 0-35.5 0-.03-50.14.04-100.29-.03-150.43 11.85-.15 23.7-.09 35.55-.03-.05 8.61 0 17.22-.03 25.84 3.85-9.37 9.58-18.47 18.61-23.58m-258.37-2.26c11.94-.05 23.89-.17 35.83.06-.14 50.13-.01 100.27-.06 150.4-11.92 0-23.84 0-35.75 0-.03-50.15.01-100.3-.02-150.46" fill="#777"/><path d="m1084.28 155.34c10.82-.71 22.34 2.35 30.12 10.22 8.32 8.18 11.54 20.05 12.43 31.37.64 12.39.13 25.3-5.07 36.78-3.44 7.74-9.74 14.28-17.69 17.38-9.3 3.57-19.75 3.78-29.35 1.29-9.77-2.57-18.06-9.63-22.57-18.62-5.8-11.58-6.67-24.97-5.47-37.67 1.09-11.55 5.11-23.43 13.91-31.4 6.38-5.96 15.08-8.87 23.69-9.35m285.99.03c10.17-.71 21.03 1.64 28.85 8.51 7.21 5.98 11.2 14.94 13.03 23.96 2.06 10.58 2.04 21.53.3 32.16-1.38 7.92-4.12 15.82-9.31 22.09-5.23 6.3-13.01 10.14-21.04 11.32-8.62 1.29-17.7.67-25.76-2.8-8.7-3.68-15.44-11.21-18.99-19.87-4.27-10.32-5.12-21.75-4.27-32.79.82-10.69 3.85-21.66 10.91-29.97 6.44-7.76 16.32-12.05 26.28-12.61m232.96 3.19c11.92.04 23.85-.32 35.77.17v90.01c-7.89 5.28-18.79 7.38-27.38 2.57-5.13-2.83-7.12-8.89-7.78-14.36-1.09-9.28-.4-18.64-.59-27.95-.01-16.82.03-33.63-.02-50.44" fill="#fefefe"/><path d="m0 183.49c55.5.02 111-.01 166.5.02.01 55.5 0 110.99 0 166.49h-166.5z" fill="#02a4ef"/><path d="m183.51 183.51c55.49-.02 110.99-.01 166.49-.01v166.5h-166.5c.01-55.5-.01-111 .01-166.49" fill="#ffb902"/></g></svg>