<svg viewBox="0 0 88 16" xmlns="http://www.w3.org/2000/svg"><g fill="#231f20" fill-rule="evenodd" transform="translate(0 .124)"><path d="m.252 14.823 3.169-14.266h5.657l.258 7.969 3.808-7.969h5.671l-3.182 14.266h-4.107l1.7-7.67-3.822 7.67h-2.951l-.149-7.67-1.904 7.67z"/><path d="m19.304 2.883h3.822l.516-2.326h-3.835z"/><path d="m20.474 14.836-3.849-.013 2.353-10.566h3.849z"/><path d="m35.0517919 4.25676588h3.4404789l-.2991721 1.30538407c.4761909-.5848866 1.0476199-.95186412 1.7681174-1.19668833.5848866-.19047634 1.1423405-.28571451 1.7950325-.28571451l-.8840587 3.44047894c-.2173915 0-2.8830251-.51656356-3.7122183 3.54969225l-.8566259 3.7665662h-3.6314729zm-2.012424 6.66304882c0 .0817806-1.2101459 4.3245376-6.5274379 4.2158419-7.1257821-.1495861-5.2764018-11.57247305 2.814702-11.16460523 4.5967946.23084904 4.3654279 4.05228067 4.3245376 4.21584188h-3.9705c.0538302-.14958604.1899587-1.72722705-1.0745351-1.70031192-2.3524863.06832304-4.0253655 5.90217867-1.4280549 5.95652647 1.1966883.0408903 1.7541422-1.3462743 1.8633555-1.5232931zm34.1195925 4.2567322c-7.7375838-.3266048-5.4120126-11.72257669 2.5295051-11.341624 7.4658445.36697751 5.3442072 11.6542536-2.5295051 11.341624zm2.2712234-8.85300918c-2.5703955-.51656356-4.4875813 5.65735438-2.0398567 6.16046038 2.7199814.5709115 4.5419291-5.65735438 2.0398567-6.16046038z"/><path d="m81.6553488 2.69258244c-1.0605598 0-1.2644937.40786782-1.4409949 1.21014589l-.0683231.35403755h2.2437907l.5579714-2.55693786h3.5082844l-.5439963 2.55693786h1.8084901l-.5300212 2.43426696h-1.8090076l-.9927544 4.63716726c-.0403727.2582818-.1356109.4891308-.0403727.7748454.149586.4218429 1.658904.2448242 1.658904.2448242l-.5848866 2.4208094s-3.0735014.3535199-4.1066286-.3669776c-.4622156-.3131472-.9653216-.9658392-.652692-2.3664615l1.1827132-5.33074959-2.1076622-.01345757-1.7815749 8.13199406h-3.7805413l1.7681173-8.13199406h-1.9446185l.5439963-2.43426696h1.8902707c.3395447-1.36024953.6387168-2.28468091 1.4824028-2.99172082 1.155798-.93892414 4.1609764-.57142902 4.1609764-.57142902zm-33.9425737 8.51294676 7.18013-.0134576s-.6118018 1.5910986 1.6454464 1.6045562c1.5636659 0 2.1759852-1.7815749.0678054-2.1485525-.9653216-.1770187-4.7049727-.80227803-4.2836473-3.68530311.3540376-2.36646152 2.8152197-3.19565473 5.5077684-3.15476443 5.5077684.06780544 4.4741237 3.30435047 4.5419291 3.52174195h-3.6718456s.3944103-1.35973194-1.2644937-1.35973194c-1.509318 0-1.8768131 1.35973194-.1361285 1.72722706 2.1216373.46221569 4.5559042.57091143 4.6915151 3.30435047.0408903.7619054-.4078678 4.3245376-5.9560089 4.2158419-5.0859254-.1086958-5.4394453-2.5020724-5.3038345-3.6174977-.9244313 1.9446185-3.236545 3.6718455-6.323504 3.5631498-7.7375838-.2448242-5.3850975-11.70911909 2.5429627-11.31470884 3.6040402.17701878 4.9772297 2.91045782 4.5424467 5.60300656-.068323.47619085-.1092133.54399629-.2448242.58488658zm-1.0471023-4.89544904c-2.5429627-.503106-4.4472085 5.64337924-2.0129416 6.16046044 2.6925488.5574538 4.5015564-5.65735445 2.0129416-6.16046044z"/></g></svg>