<svg viewBox="0 0 29 28" xmlns="http://www.w3.org/2000/svg"><g fill="none" fill-rule="evenodd" transform="translate(-.844 -1.705)"><g fill-rule="nonzero"><path d="m1.884 7.856-1.86-3.755 2.215-4.05 4 1.46-3.35 5.755-1.005.4z" fill="#00ad5b" transform="translate(9.285 3.418)"/><path d="m.022 3.219 1.395.575 5.62 7.985v-10.29l-3.9-1.48z" fill="#00ad5b" transform="translate(18.468 7.33)"/><path d="m6.349 7.114.79-.815v-6.275l-3.755 1.47-3.35 5.755 3.355-1.345z" fill="#4a3a92" transform="translate(12.14 3.435)"/><path d="m3.05 2.675h4.258l-3.153-2.588-4.128-.081z" fill="#f5b200" transform="matrix(-.93938183 -.34287284 -.34287284 .93938183 19.306973 3.462524)"/><path d="m2.871 2.742h4.49l-3.059-2.612-4.243-.127z" fill="#f5b200" transform="matrix(-.92552068 -.37869708 -.37869708 .92552068 9.270223 7.338684)"/><path d="m.007 2.927h4.466l3.136-2.88-4.566.02z" fill="#f5b200" transform="matrix(.92376595 -.38295754 -.38295754 -.92376595 22.718667 10.045962)"/><path d="m.046 3.324h4.697l3.38-3.275-4.658-.037z" fill="#f5b200" transform="matrix(.92840154 -.37157849 -.37157849 -.92840154 12.361736 14.188388)"/><path d="m.053.026h9.802l-3.43 2.651-2.274.027z" fill="#ed0128" transform="matrix(-.61160989 -.79115949 -.79115949 .61160989 25.77643 25.464826)"/><path d="m3.864 6.977-3.82-6.955v8.52z" fill="#4a3a92" transform="translate(5.35 16.883)"/><path d="m.039 5.814 4.31-1.765 5.62 7.984v-10.289l4.225-1.731v16.706l-4.005 1.645-5.995-7.756v10.211l-4.155 1.704z" fill="#4a3a92" transform="translate(15.535 7.076)"/><path d="m9.754 4.008 4.405 1.806v16.709l-4.135-1.694-6.045-11.001v8.521l-3.975-1.63v-16.706l4.155 1.701 5.595 10.855z" fill="#00ad5b" transform="translate(1.415 7.076)"/><path d="m.043 3.968h12.212l-.361-3.909-4.411.074z" fill="#ed0128" transform="matrix(-.45815319 -.88887325 -.88887325 .45815319 14.715344 17.864197)"/></g><path d="m.008 5.65h10.29l-7.985-5.62 7.985 5.62z" fill="#000" transform="matrix(0 1 1 0 19.855 8.812)"/></g></svg>