<svg viewBox="0 0 100 27" xmlns="http://www.w3.org/2000/svg"><path d="m13.7113536.01574075h-4.20995711c-.00810186 5.72454162-.01620372 9.43241496-.02430558 15.15672505-1.80879774-5.58634702-3.61967882-9.28449813-5.43495805-15.15672505h-4.04213286v26.83613255c1.36435294-.1942131 2.8256967-.3803243 4.19167002-.5585652.00393519-5.6088008.00787038-9.0569517.01157408-14.665984 1.87986262 5.5208378 3.03565058 8.7775533 4.90995763 14.0240853 1.46944567-.1678242 3.08356727-.3743058 4.55440177-.5236115.0145834-8.3703771.0291667-16.74121712.0437501-25.11205715zm15.7245496 0h-11.6622779c-.0157407 8.25301586-.0314815 16.50580025-.0472222 24.75858465 3.9011605-.3548614 7.8067192-.6449079 11.7150556-.8701396.0020834-1.2064825.0043982-2.9409746.0064815-4.147457-2.5414372.1562501-4.9726891.3189817-7.5053301.4891207.0043982-2.2187517.0087964-4.0537069.0131945-6.2726902 1.8509274-.031713 3.8057901-.0037037 5.6965323-.0361111.0020834-1.2127325.0043982-2.9537061.006713-4.16643853-1.8736126.03333336-3.8523179.03703706-5.6960694.07222228.0043982-2.21898326.0087963-3.43611386.0131945-5.65509712 1.1597231-.01412038 2.2965296-.01574075 3.4310213-.01574075.1993057 0 .3983799 0 .5976856.00023148h.5946764c.9462971 0 1.8965293-.00115741 2.8627338-.00949075.0023148-1.20671393-.0284723-2.94051161-.0263889-4.14699406zm15.719457.01875002c-4.280559 0-8.705331 0-12.98589.00046296-.0020834 1.19861207-.0039352 2.92546531-.0060185 4.12430886.1863427-.00138889.3726854-.00185186.5587967-.00185186.5641208 0 1.1282416.00532408 1.6925939.01111112.5636579.00532408 1.1273158.01111112 1.6912051.01111112.144676 0 .2891206-.00046296.4337966-.00115741-.0087963 6.65324604-.0175926 12.73033424-.0261574 19.38358034 1.3740752-.0511575 2.8442153-.0942131 4.2185219-.1291668.00625-6.6166719.0125-12.6574175.0185185-19.27408948 1.4516216-.00578704 2.9513913-.00995371 4.4030128-.01296297.000463-1.17847316.0011574-2.9331042.0016204-4.11134588zm14.4423727-.01875002h-11.7101946c-.0011574 7.76829325-.0023148 15.53635505-.0034722 23.30418535.4525466-.0018519.9104174-.0025463 1.37014-.0025463.9363433 0 1.8798626.0034722 2.8020855.0106481-.0011574-3.2965304-.0020833-6.3050976-.0030092-9.6018595.2298613.0009259.4620374.0013889.6958339.0013889.5444449 0 1.097686-.0023148 1.653242-.0046297.555556-.0020833 1.1134269-.0043981 1.6664366-.0043981.5699078 0 1.1344916.0023148 1.6865754.0099537-.0009259-1.1819454-.0020834-2.9398172-.0032408-4.12176255-.5212967-.0050926-1.053936-.00694445-1.5918994-.00694445-.5763893 0-1.1585657.00208333-1.7384273.00393519-.5791671.00208333-1.1562509.00416667-1.7231495.00416667-.2168984 0-.4326393-.00023149-.6465283-.00092593-.0006945-2.11921466-.0011574-3.31528043-.0018519-5.43472657.4578708.00046296.9145841.00069444 1.369677.00069444.4620374 0 .922686-.00023148 1.383103-.00046296.4643522 0 .928473-.00023148 1.3928252-.00023148 1.1312509 0 2.2634277.00092593 3.4055583.00625-.0013889-1.18449168-.0025463-2.97801164-.0037037-4.16273481zm2.7333355.0189815c.0101852 7.84283035-.0275463 15.68589215-.0173611 23.52918545 3.7439844.139352 7.6782468.2905095 11.4176017.5490746-.0023148-1.2064825-.0046296-2.9414376-.0069445-4.14792-2.3666685-.1391205-4.8305594-.3060188-7.1990798-.40463-.0106482-6.7169035.0263889-12.80903801.0157408-19.52571005-1.3715289 0-2.8386597 0-4.2099571 0zm14.8551045.00046296c.0162037 8.11088612.0319444 16.22200369.0479167 24.33288979 1.3717603.1060187 2.7909744.2196762 4.1615774.341667.0048611-8.2192195.0162037-16.44931873.0004629-24.67455679-1.3712974 0-2.8386596 0-4.209957 0zm7.8189877.00046297c1.6835662 4.10116068 3.2236137 8.21412694 4.9333373 12.56922302-1.7768533 4.1833367-3.5854196 8.3393585-5.360421 12.3520932 1.4703716.145139 2.9914376.3574077 4.4604203.5210652 1.053936-2.5844928 2.012733-4.5738462 3.067595-7.2282465 1.0532416 2.8275486 2.0106498 5.0118096 3.0611136 7.9303304 1.4666678.190278 3.3680582.4631949 4.8328742.6717598-1.7756959-4.746763-3.717827-9.6891281-5.5032451-14.1752428 1.7780106-4.21296632 3.5923639-8.2347288 5.4393562-12.63959343-1.5164364 0-3.0807895-.00023148-4.5972259-.00046297-1.1398158 2.72245589-1.9238442 4.47199432-3.0164376 7.06343158-1.0178249-2.69629845-1.7006958-4.44143874-2.7201411-7.06389454-1.5164364-.00046296-3.081021-.00046296-4.5972259-.00046296z" fill="#ec2724"/></svg>