<svg viewBox="0 0 70 88" xmlns="http://www.w3.org/2000/svg"><g fill="none"><g fill="#212020"><path d="m3.632 25.34-3.632 23.352 20.209 38.093 5.506-19.817z"/><path d="m21.525 87.5 5.737-20.397 42.284-22.534-6.814 20.971z"/><path d="m4.125 23.062 22.6 42.602 43.275-23.062-22.6-42.602z"/></g><path d="m7.493 23.574 22.337 6.04-7.421-13.989 2.024-1.079 9.84 18.548-22.201-5.837 7.018 13.229-2.046 1.091z" fill="#e0412e"/><path d="m33.151 49.938 11.904 3.474.677-2.221-11.904-3.475 3.535-11.611-2.216-.68-3.545 11.642-11.747-3.428-.678 2.221 11.749 3.429-3.571 11.727 2.217.68z" fill="#009e4d"/><path d="m47.58675 25.9825c.866-.6465 1.65625-1.294 2.3415-2.13925 1.7985-2.218 2.46575-4.886 2.354-7.69625l-2.37.20775c.2245 3.38875-1.38475 6.45775-4.37925 8.07875-.972.46025-1.9325.85025-3.01.97775-3.32225.39375-6.24625-1.462-8.091-4.10525l16.7835-8.94425c-1.852-3.961-6.226-6.346-10.54-5.96-1.46.1305-2.75425.597-4.07025 1.215-2.77075 1.6615-4.802 4.0955-5.4595 7.3275-.276 1.3575-.289 2.76725-.031 4.12875 1.0135 5.3485 6.0515 9.172 11.46225 8.688 1.8415-.16475 3.4405-.8375 5.00975-1.7785zm.25125-14.47975-14.2995 7.6205c-.3545-2.24-.245-4.3415.94075-6.33075 1.19425-2.004 3.2775-3.5365 5.596-3.93525 2.8195-.48475 5.832.52775 7.76275 2.6455z" fill="#ffe321"/><path d="m39.187 33.519 17.963-9.572 1.087 2.049-7.951 4.237 8.447 15.922-2.069 1.102-8.446-15.922-7.945 4.234z" fill="#d91f7d"/></g></svg>