<svg viewBox="0 0 21 25" xmlns="http://www.w3.org/2000/svg"><g fill="none" transform="translate(-.085 -.095)"><path d="m3.8712522.15343915h6.8324515c3.6684303 0 5.0493827 1.85714286 4.8359788 4.58553792-.3527336 4.50440917-3.0758377 6.99647263-6.68783065 6.99647263h-1.82363316c-.49559082 0-.82892416.3280424-.96296296 1.2169313l-.77425044 5.1675485c-.05114638.335097-.22751323.5291005-.49206349.5555555h-4.29276896c-.40388007 0-.54673721-.308642-.44091711-.9770723l2.61728395-16.56613757c.10229277-.66313933.46560847-.97883598 1.18871252-.97883598z" fill="#009ee3" transform="translate(4.938 5.644)"/><path d="m4.5361552.0952381h6.8395062c1.9259259 0 4.2116402.06172839 5.738977 1.41093474 1.0211641.90123457 1.5573193 2.335097 1.4338625 3.88007055-.4197531 5.22222221-3.5432099 8.14814811-7.7336861 8.14814811h-3.37213402c-.57495591 0-.95414462.3809524-1.11640212 1.4109348l-.94179894 5.9964726c-.0617284.3880071-.2292769.617284-.52910053.6455027h-4.22045856c-.46737213 0-.63315696-.3527337-.51146384-1.1322751l3.0335097-19.2204586c.12169312-.77248677.54673721-1.1393298 1.37918871-1.1393298z" fill="#113984"/><path d="m.07583774 8.69312169 1.19400353-7.56084656c.10405644-.66313933.46737213-.98059964 1.19047619-.98059964h6.8324515c1.13051144 0 2.04585534.17636684 2.76190474.5026455-.686067 4.64902998-3.69312167 7.23104056-7.62962961 7.23104056h-3.36684303c-.45149912.00176367-.78306878.22751323-.98236332.80776014z" fill="#172c70" transform="translate(6.35 5.644)"/></g></svg>