<svg viewBox="0 0 71 20" xmlns="http://www.w3.org/2000/svg"><g fill="none" transform="translate(.192 .372)"><path d="m9.1957672.02292769c2.3051146 0 4.4320988 1.25044092 4.1410935 4.36684303-.3527337 3.70370371-2.3368607 5.75308638-5.46737216 5.76190478h-2.73544974c-.39329806 0-.58377425.3209876-.68606702.978836l-.52910053 3.3633157c-.07936508.5079365-.340388.7583774-.72486772.7583774h-2.54497355c-.40564374 0-.54673721-.2592593-.45679012-.8395062l2.1005291-13.4797178c.10405644-.66313933.35273369-.91005291.80599647-.91005291zm-4.14462082 7.21693122h2.07231041c1.2962963-.04938272 2.15696649-.94708995 2.24338624-2.56613757.05291006-1-.62257495-1.71604938-1.69664903-1.71078751l-1.95061728.00884748zm15.20458552 6.98059969c.2328043-.2116403.4691358-.3209877.4356261-.0599648l-.0828924.6243387c-.042328.3262786.0864198.4991181.3897707.4991181h2.261023c.3809523 0 .5661375-.1534391.659612-.7425044l1.393298-8.74426807c.0705467-.43915344-.037037-.65432099-.3703704-.65432099h-2.4867724c-.2239859 0-.3333334.12522046-.3915344.46737214l-.0917108.53791887c-.047619.28042328-.1763668.32980599-.2962963.04761905-.4215167-.99823634-1.4973545-1.44620812-2.9982363-1.41093475-3.4867725.07231041-5.8377425 2.71957672-6.0899471 6.11287475-.1940035 2.6243387 1.686067 4.6860671 4.1657848 4.6860671 1.7989418 0 2.6031746-.5291006 3.5097002-1.3580247zm-1.8941799-1.3456791c-1.5008818 0-2.5467372-1.1975308-2.329806-2.664903.2169312-1.46737209 1.6208113-2.66490296 3.1216932-2.66490296 1.5008818 0 2.5467372 1.19753087 2.3298059 2.66490296-.2169312 1.4673722-1.6190476 2.664903-3.1216931 2.664903zm11.3774251-7.76014105h-2.2945327c-.4726631 0-.664903.35273368-.5149911.78659612l2.8465608 8.33509703-2.7918871 3.9664903c-.2345679.3315696-.0529101.6331569.2768959.6331569h2.5767196c.3061728.0354498.6061728-.1118165.7654321-.3756613l8.7548501-12.55731926c.2698413-.38624339.1428571-.79188713-.2998236-.79188713h-2.4391535c-.4179894 0-.5855379.16578483-.8253968.51322751l-3.6507937 5.29100528-1.6313933-5.30335095c-.0952381-.32098766-.3333333-.4973545-.7724867-.4973545z" fill="#113984"/><path d="m9.13580247.02292769c2.30511463 0 4.43209873 1.25044092 4.14109343 4.36684303-.3527336 3.70370371-2.3368606 5.75308638-5.46737209 5.76190478h-2.73368607c-.39329806 0-.58377425.3209876-.68606702.978836l-.52910053 3.3633157c-.07936508.5079365-.340388.7583774-.72486772.7583774h-2.54497355c-.40564373 0-.54673721-.2592593-.45679012-.8395062l2.10405644-13.48324514c.10405644-.66313933.35273368-.91005291.80599647-.91005291h6.09171076zm-4.14462081 7.21693122h2.0723104c1.2962963-.04938272 2.15696649-.94708995 2.24338625-2.56613757.05291005-1-.62257496-1.71604938-1.69664903-1.71078751l-1.95061729.00884748zm15.20458554 6.98059969c.2328042-.2116403.4691358-.3209877.4356261-.0599648l-.0828924.6243387c-.0423281.3262786.0864197.4991181.3897707.4991181h2.2610229c.3809524 0 .5661376-.1534391.659612-.7425044l1.3932981-8.74426807c.0705467-.43915344-.0370371-.65432099-.3703704-.65432099h-2.4832451c-.2239859 0-.3333334.12522046-.3915344.46737214l-.0917108.53791887c-.047619.28042328-.1763668.32980599-.2962963.04761905-.4215167-.99823634-1.4973545-1.44620812-2.9982363-1.41093475-3.4867725.07231041-5.8377425 2.71957672-6.0899471 6.11287475-.1940035 2.6243387 1.686067 4.6860671 4.1657848 4.6860671 1.7989418 0 2.6031746-.5291006 3.5097002-1.3580247zm-1.8924162-1.3456791c-1.5008819 0-2.5467372-1.1975308-2.329806-2.664903.2169312-1.46737209 1.6208113-2.66490296 3.1216931-2.66490296s2.5467372 1.19753087 2.329806 2.66490296c-.2169312 1.4673722-1.6208113 2.664903-3.1216931 2.664903zm10.4285714 2.4232805h-2.6102293c-.0045855.0001763-.0091711.0003527-.0137566.0003527-.1693122 0-.308642-.1393298-.308642-.308642 0-.0148148.0010582-.029806.0031746-.0444444l2.292769-14.52557321c.0449735-.20335097.2255732-.35026455.4338624-.35273369h2.6102293c.0045855-.00017637.0091711-.00035273.0137566-.00035273.1693122 0 .308642.1393298.308642.30864197 0 .01481482-.0010582.029806-.0031746.04444445l-2.292769 14.52557321c-.0435626.2047619-.224515.3534391-.4338624.356261z" fill="#009ee3" transform="translate(39.33)"/></g></svg>