<svg xmlns="http://www.w3.org/2000/svg" viewBox="0 0 401 83"><defs><style type="text/css">#text{fill:#252f3e}@media (prefers-color-scheme:dark){#text{fill:#fff}}</style></defs><g id="text"><path d="m209.5424 49.6326c.126762 4.2943508-1.527865 8.4499725-4.5717 11.4819-4.0327 4.0033-10.5748 6.186-18.4409 6.1255-5.6452-.0934-11.3489-1.4655-14.5758-3.4483l2.15-11.3082c4.267557 2.3218049 9.001716 3.6564226 13.8536 3.9055 3.6713 0 6.1444-1.694 6.1444-4.4112 0-2.4631-1.7384-4.1844-6.1791-6.357-7.0241-3.5123-10.5384-7.9649-10.5384-13.2126 0-10.3256 8.7947-17.3033 21.99-17.3033 6.982 0 11.5274 1.6454 14.0477 3.2627l-2.1456 11.2858c-1.9977-1.5012-7.0749-3.5955-12.6125-3.5955-3.8459 0-6.35 1.6108-6.35 4.3074 0 1.9343 1.9165 3.6675 5.9734 5.6451 5.2861 2.6409 11.2562 6.5507 11.2562 13.6222zm-91.461-34.4241c-18.588 0-32.5937 13.5735-32.5937 31.5736 0 12.431 8.26 20.4579 21.0732 20.4579 5.48 0 10.8076-1.0042 14.2375-2.6735l2.3482-12.4017c-3.806675 2.0781914-8.069177 3.1802622-12.4061 3.2076-4.6858 0-9.7122-2.6962-9.7122-10.2222 0-8.8686 6.29-18.0723 16.8473-18.0723 2.852923-.0855013 5.677513.5869085 8.1859 1.9487l2.2982-12.0578c-3.288976-1.2111164-6.772444-1.8077837-10.277-1.7603zm260.64 40.4682c6.152809.0141114 12.1875-1.6889158 17.4252-4.9175l-2.3754 12.4836c-7.069 3.6091-15.3737 4.001-18.6171 4.001-13.8 0-21.6888-7.6745-21.6888-21.0736.018701-7.7744955 2.773611-15.2942894 7.7817-21.2409 5.305256-6.2806421 13.126748-9.8795247 21.348-9.8228 10.44 0 17.4038 6.0653 17.4038 15.0583.140314 3.80468-1.316751 7.4946963-4.0186 10.1771-4.986 4.8593-17.2748 7.5826-28.4667 5.3847-.5319 6.3061 4.2153 9.9501 11.2091 9.9501zm-9.5859-19.5726c8.7045.0715 13.6009-.809 15.7376-2.9248 2.3134-2.2986 1.589-7.2233-4.1137-7.2233-6.415 0-10.4994 5.2602-11.6227 10.1481zm-23.1736-20.8956c-18.588 0-32.5936 13.5735-32.5936 31.5736 0 12.431 8.26 20.4579 21.0732 20.4579 5.4805 0 10.8076-1.0042 14.2374-2.6735l2.3483-12.4017c-3.806692 2.0782386-8.069238 3.180312-12.4062 3.2076-4.6857 0-9.7121-2.6961-9.7121-10.2222 0-8.8686 6.29-18.0723 16.8473-18.0723 2.852921-.085487 5.677508.586922 8.1859 1.9487l2.2979-12.0577c-3.289316-1.2112812-6.773169-1.8079844-10.2781-1.7604zm-35.0344 23.0215-5.3487 27.9921h-14.1665l1.8409-9.6346c-1.987 6.0046-6.8276 10.7565-14.9483 10.7565-9.8558 0-14.31-8.7494-14.315209-17.5055-.006791-9.9475 3.901309-19.7985 10.446709-26.3485 5.404633-5.45417 12.792181-8.4801774 20.47-8.3847 6.0186.0241 10.4708 1.7662 13.2607 5.1472 4.1297 5.0036 3.7909 12.5153 2.7604 17.9775zm-13.639-6.44c-.173-3.53-2.01-5.4326-5.3047-5.4326-6.9765 0-13.02 12.0413-13.015103 20.415.001903 5.2318 1.941003 8.49 5.314903 8.49 5.3962 0 10.0439-5.6432 11.6427-13.9071.5445-2.7932 1.4615-7.3774 1.3622-9.5653zm-214.24 6.44-5.3485 27.9919h-14.1666l1.8409-9.6346c-1.9869 6.0046-6.8276 10.7565-14.9483 10.7565-9.8559 0-14.31-8.7494-14.3152089-17.5055-.0067911-9.9473 3.9012089-19.7983 10.4467089-26.3483 5.4046328-5.45417 12.7921806-8.4801774 20.47-8.3847 6.0186.0241 10.4708 1.7662 13.2606 5.1472 4.1298 5.0036 3.791 12.5153 2.7605 17.9775zm-13.6385-6.44c-.173-3.53-2.01-5.4326-5.3047-5.4326-6.9765 0-13.02 12.0413-13.015103 20.415.001903 5.2318 1.941003 8.49 5.314903 8.49 5.3962 0 10.0439-5.6432 11.6427-13.9071.5441-2.7932 1.4611-7.3774 1.3622-9.5653zm193.59 2.35c0 12.1614-5.8389 24.6308-16.3634 30.2412-3.304833 1.8366396-7.002409 2.852764-10.7817 2.9629-5.2686 0-8.2223-1.97-9.9063-5.0063l-3.768 19.9122h-14.8317l12.5911-66.2236h13.0634l-1.5273 8.0387c3.6906-5.3688 9.1565-8.96 15.3432-8.96 9.816 0 16.1807 7.4391 16.1807 19.0349zm-15.4247 1.1234c0-2.3573-.5567-8.0821-5.9893-8.0821-5.524 0-10.1875 6.2935-11.9955 15.8394-.6186 3.2638-2.3505 13.0639 4.4733 13.0639 7.7899 0 13.511-11.0584 13.511-20.8211zm-226.9127-8.1092 2.1142-11.1278h-13.062l-9.7148 51.0789h14.8341l4.0057-21.06c2.3618-12.4188 9.4867-17.3883 19.6264-15.8531l2.8969-15.2358c-8.8059843-.8118019-17.1437736 4.1012527-20.7005 12.1978zm118.9752 39.0677 5.1092-26.8764 10.5163 26.8764h15.9506l-10.8808-27.09 19.8018-23.1057h-16.1923l-19.1068 22.8525 7.3907-38.8787h-14.73l-12.59 66.2219z"/></g></svg>