<svg viewBox="100 235 1000 280" xmlns="http://www.w3.org/2000/svg"><defs><style type="text/css">#text{fill:#000}@media (prefers-color-scheme:dark){#text{fill:#fff}}</style></defs><g id="text"><path d="m429.51 449.44 12.58-29.34c13.77 10.18 31.74 15.57 49.7 15.57 13.17 0 21.56-5.09 21.56-12.87-.3-21.56-79.34-4.79-79.94-58.98-.3-27.54 24.25-48.8 58.99-48.8 20.66 0 41.32 5.09 55.99 16.77l-11.75 29.97c-13.5-8.66-30.17-14.7-46.03-14.7-10.78 0-17.97 5.09-17.97 11.68.3 21.26 79.94 9.58 80.84 61.38 0 28.14-23.96 47.9-58.09 47.9-25.16-.02-48.21-6.01-65.88-18.58"/><path d="m915.13 409.47c-6.27 11.08-18.16 18.56-31.8 18.56-20.17 0-36.53-16.35-36.53-36.53s16.35-36.53 36.53-36.53c13.64 0 25.53 7.48 31.8 18.56l34.96-19.37c-13.09-23.36-38.08-39.16-66.76-39.16-42.25 0-76.5 34.25-76.5 76.5s34.25 76.5 76.5 76.5c28.69 0 53.67-15.8 66.76-39.16z"/><path d="m571.09 251.32h43.72v213.68h-43.72z"/><path d="m967.1 251.32v213.69h43.72v-64.03l51.8 64.03h55.87l-65.87-76.06 61.08-70.96h-53.48l-49.4 58.99v-125.66z"/><path d="m744.42 409.76c-6.29 10.48-19.46 18.26-34.13 18.26-20.17 0-36.53-16.35-36.53-36.53s16.36-36.53 36.53-36.53c14.67 0 27.84 8.08 34.13 18.86zm0-91.77v17.37c-7.19-11.98-24.85-20.36-43.42-20.36-38.33 0-68.57 33.83-68.57 76.35s30.24 76.65 68.57 76.65c18.56 0 36.23-8.38 43.41-20.36v17.36h43.71v-147.01z"/></g><path d="m159.51 409.5c0 14.91-12.09 27-27 27s-27-12.09-27-27 12.09-27 27-27h27z" fill="#e01e5a"/><path d="m173.01 409.5c0-14.91 12.09-27 27-27s27 12.09 27 27v67.5c0 14.91-12.09 27-27 27s-27-12.09-27-27z" fill="#e01e5a"/><path d="m200.01 301.5c-14.91 0-27-12.09-27-27s12.09-27 27-27 27 12.09 27 27v27z" fill="#36c5f0"/><path d="m200.01 315c14.91 0 27 12.09 27 27s-12.09 27-27 27h-67.5c-14.91 0-27-12.09-27-27s12.09-27 27-27z" fill="#36c5f0"/><path d="m308.01 342c0-14.91 12.09-27 27-27s27 12.09 27 27-12.09 27-27 27h-27z" fill="#2eb67d"/><path d="m294.51 342c0 14.91-12.09 27-27 27s-27-12.09-27-27v-67.5c0-14.91 12.09-27 27-27s27 12.09 27 27z" fill="#2eb67d"/><path d="m267.51 450c14.91 0 27 12.09 27 27s-12.09 27-27 27-27-12.09-27-27v-27z" fill="#ecb22e"/><path d="m267.51 436.5c-14.91 0-27-12.09-27-27s12.09-27 27-27h67.5c14.91 0 27 12.09 27 27s-12.09 27-27 27z" fill="#ecb22e"/></svg>