<svg viewBox="0 0 2502 1427" xmlns="http://www.w3.org/2000/svg" xmlns:xlink="http://www.w3.org/1999/xlink"><linearGradient id="a" x1="49.995%" x2="49.995%" y1="-.014%" y2="99.986%"><stop offset="0" stop-color="#f79810"/><stop offset="1" stop-color="#f8310e"/></linearGradient><path d="m28.7856625 650.196938c-5.2164696 0-9.3568055 4.034238-10.0312837 9.786248l-18.28164186 138.866715 18.28164186 136.474465c.6744782 5.75201 4.8122879 9.758461 10.0312837 9.758461 5.0522708 0 9.1673453-3.978663 9.9731825-9.707938v-.027788.027788l21.6691894-136.527514-21.6691894-138.891976c-.7805758-5.726749-4.9461731-9.758461-9.9731825-9.758461zm102.8111845-75.872477c-.861412-5.966732-5.135633-10.081806-10.405152-10.081806-5.297306 0-9.680151 4.248959-10.405151 10.081806 0 .053049-24.5742456 224.52544-24.5742456 224.52544l24.5742456 219.551479c.699739 5.88842 5.082584 10.13738 10.405151 10.13738 5.241731 0 9.518478-4.14033 10.377364-10.0818l27.959267-219.607059zm387.266661-207.102685c-10.081807 0-18.418053 8.252885-18.900545 18.738873l-19.572497 413.076186 19.572497 266.951885c.510279 10.43041 8.818738 18.65804 18.900545 18.65804 10.028757 0 18.337217-8.25542 18.928332-18.71109v.08084l22.12642-266.979675-22.12642-413.076186c-.593641-10.485988-8.902101-18.738873-18.928332-18.738873zm-200.436213 143.57038c-7.742605 0-14.06047 6.183979-14.681899 14.436863l-22.045584 273.699192 22.045584 264.799619c.591116 8.19983 6.936768 14.38381 14.681899 14.38381 7.661768 0 13.979633-6.18398 14.654111-14.38381l25.056737-264.799619-25.056737-273.754767c-.674478-8.197309-6.992343-14.381288-14.654111-14.381288zm404.126088 573.829334c12.501844 0 22.664487-10.08433 23.174766-22.99035l19.198629-262.46042-19.170841-549.954832c-.510279-12.906026-10.675448-22.987833-23.174766-22.987833-12.610468 0-22.798372 10.109594-23.20508 23.01562l-17.018574 549.899258 17.018574 262.569037c.404182 12.79993 10.592086 22.90952 23.177292 22.90952zm417.001797 1.23781c17.20804 0 31.40492-14.16909 31.72574-31.59185v.18694-.18694l13.39104-254.935057-13.39357-635.156327c-.29556-17.394969-14.5177-31.589324-31.72573-31.589324-17.2333 0-31.45544 14.169094-31.72574 31.617111l-11.96377 634.913818c0 .404182 11.96377 255.308929 11.96377 255.308929.27283 17.26108 14.52023 31.4327 31.72826 31.4327zm-210.088572-.9953c14.977456 0 27.047331-12.01935 27.451513-27.34289v.18694l16.291047-258.481755-16.318835-553.933496c-.404181-15.326063-12.474056-27.315102-27.451513-27.315102-15.083554 0-27.153429 11.991565-27.476775 27.315102l-14.489912 553.961284 14.5177 258.428707c.323345 15.16186 12.39322 27.18121 27.476775 27.18121zm-511.211495-2.42003c8.899575 0 16.10664-7.12623 16.778592-16.5083l23.606735-267.004933-23.606735-253.992809c-.644165-9.382067-7.848703-16.455246-16.778592-16.455246-9.030934 0-16.237998 7.123702-16.801326 16.56387l-20.785042 253.884185 20.785042 266.979673c.591116 9.40733 7.767866 16.53356 16.801326 16.53356zm-198.847273-14.62633c6.504798 0 11.774317-5.13563 12.527105-12.23407l26.509265-256.708408-26.484004-266.386029c-.780576-7.123702-6.050094-12.261862-12.554893-12.261862-6.588161 0-11.857679 5.163421-12.529631 12.261862l-23.336439 266.386029 23.336439 256.655358c.64669 7.1237 5.916209 12.28712 12.532158 12.28712zm814.7014-831.747761c-16.26579 0-29.30822 12.933813-29.62904 29.495157l-13.226847 533.714308 13.226847 256.814506c.32334 16.34662 13.33547 29.28043 29.62904 29.28043 16.238 0 29.1996-12.90602 29.57347-29.46737v.21472l14.84104-256.814498-14.84104-533.797671c-.3764-16.505769-13.338-29.439582-29.57347-29.439582zm-413.778452 849.089681c11.238777 0 20.514746-9.16987 21.052813-20.86588l20.64863-265.178535-20.64863-507.55365c-.565855-11.723794-9.814036-20.863352-21.052813-20.863352-11.344874 0-20.593055 9.167345-21.078073 20.863352l-18.281642 507.55365 18.309429 265.287165c.454704 11.58738 9.702886 20.75725 21.050286 20.75725zm230.575535-25.03147v-.13642l17.743575-260.793162-17.743575-568.478984c-.431969-14.113518-11.562122-25.190622-25.301772-25.190622-13.820487 0-24.95064 11.049316-25.324508 25.190622l-15.755506 568.451196 15.780768 260.92958c.376394 13.97963 11.509073 25.02895 25.301772 25.02895 13.764912 0 24.842015-11.04932 25.301772-25.10979v.10863zm1342.095317-588.61734c-42.13089 0-82.32423 8.523181-118.94308 23.874506-24.46815-277.139788-256.87008-494.54152678-540.35552-494.54152678-69.36515 0-136.98475 13.65881408-196.69754 36.75274388-23.20255 8.9804113-29.38653 18.228593-29.60125 36.1616282v975.9623087c.24251 18.81971 14.84105 34.49438 33.20605 36.35109.78058.08083 846.88184.51028 852.36861.51028 169.81187 0 307.49635-137.684489 307.49635-307.521624 0-169.839661-137.65922-307.549406-307.47362-307.549406zm-948.45774-398.6115347c-18.4711 0-33.63297 15.1643908-33.90327 33.7946397l-13.87353 692.719374 13.90132 251.411101c.24251 18.365 15.4069 33.50161 33.87548 33.50161 18.41552 0 33.57991-15.13661 33.84769-33.76938v.29556l15.08355-251.438891-15.08355-692.772423c-.26778-18.5771999-15.43217-33.7415907-33.84769-33.7415907zm-995.749527 1209.1725947c-36.37635-8.55096-46.218174-13.12074-46.218174-27.53234 0-10.16012 8.199836-20.6739 32.774081-20.6739 20.997237 0 37.399435 8.52066 52.134382 23.60421l33.097426-32.0996c-21.641402-22.61144-47.857635-36.05553-83.562033-36.05553-45.275924 0-81.975619 25.56954-81.975619 67.21541 0 45.22035 29.522944 58.66697 71.787715 68.47848 43.257543 9.81403 51.136559 16.39967 51.136559 31.15988 0 17.36971-12.825189 24.92285-39.981145 24.92285-21.964747 0-42.613378-7.52788-58.689703-26.26676l-33.102479 29.52295c17.367181 25.56954 50.841001 41.62061 89.152371 41.62061 62.645632 0 90.175455-29.49516 90.175455-73.07605.002526-49.84823-40.327225-62.29702-76.728836-70.82021zm211.159657-92.75716c-62.590056 0-99.613097 48.50433-99.613097 118.32671 0 69.82491 37.020515 118.29892 99.613097 118.29892 62.592583 0 99.666146-48.47401 99.666146-118.29892 0-69.82238-37.073563-118.32671-99.666146-118.32671zm0 191.10719c-37.020514 0-52.455201-31.80657-52.455201-72.75522 0-40.97392 15.432161-72.78049 52.455201-72.78049 37.07609 0 52.455202 31.80657 52.455202 72.78049 0 40.94865-15.379112 72.75522-52.455202 72.75522zm284.887446-58.66696c0 36.69969-18.06692 59.33639-47.210945 59.33639-29.171811 0-46.864863-23.28339-46.864863-59.98056v-128.21905h-45.92009v128.86574c0 66.83902 37.399435 104.21067 92.782427 104.21067 58.343623 0 93.105773-38.36695 93.105773-104.85483v-128.22158h-45.892302zm243.855428-31.80405c0 12.7974.644165 41.62061.644165 50.14379-2.955579-5.91621-10.483462-17.36971-16.051065-25.91815l-81.328929-121.31007h-43.906759v229.50192h45.250663v-100.98731c0-12.79488-.64669-41.62061-.64669-50.14379 2.930317 5.88842 10.511249 17.36971 16.051064 25.92068l84.259246 125.2079h40.973921v-229.50193h-45.248142v97.08696zm176.023636-97.05917h-71.78518v229.4994h68.47595c59.01557 0 117.38698-34.11799 117.38698-114.7497 0-83.93843-48.52958-114.7497-114.07775-114.7497zm-3.30923 184.92069h-22.58113v-140.31672h24.2509c48.52959 0 68.53406 23.2556 68.53406 70.14573-.00253 41.96921-21.99506 70.17099-70.20383 70.17099zm259.3179-142.95148c20.64863 0 33.76685 9.19513 41.96669 24.92285l42.61338-19.65333c-14.43687-29.8185-40.67836-50.81574-83.93843-50.81574-59.93004 0-101.92704 48.50433-101.92704 118.32671 0 72.43188 40.30197 118.29892 100.28505 118.29892 41.64587 0 69.17822-19.32999 84.90594-51.78325l-38.6625-22.96005c-12.12798 20.35308-24.27869 29.1996-44.92732 29.1996-34.41355 0-54.41549-31.48575-54.41549-72.75522-.02273-42.58812 19.71144-72.78049 54.09972-72.78049zm170.21353-41.96921h-45.89483v229.4994h137.92699v-45.27593h-92.03216zm212.93806-3.57701c-62.64311 0-99.66615 48.50433-99.66615 118.32671 0 69.82491 37.02304 118.29892 99.66615 118.29892 62.59005 0 99.63836-48.47401 99.63836-118.29892.00252-69.82238-37.04831-118.32671-99.63836-118.32671zm0 191.10719c-37.07609 0-52.4552-31.80657-52.4552-72.75522 0-40.97392 15.37911-72.78049 52.4552-72.78049 36.99778 0 52.39962 31.80657 52.39962 72.78049 0 40.94865-15.40184 72.75522-52.39962 72.75522zm284.83187-58.66696c0 36.69969-17.98609 59.33639-47.1579 59.33639-29.22486 0-46.89012-23.28339-46.89012-59.98056v-128.21905h-45.89231v128.86574c0 66.83902 37.37165 104.21067 92.78243 104.21067 58.34362 0 93.08051-38.36695 93.08051-104.85483v-128.22158h-45.92261zm175.05613-128.86322h-71.75993v229.4994h68.47848c59.04083 0 117.35667-34.11799 117.35667-114.7497 0-83.93843-48.5018-114.7497-114.07522-114.7497zm-3.28145 184.92069h-22.61144v-140.31672h24.27869c48.47401 0 68.47595 23.2556 68.47595 70.14573.00253 41.96921-21.96475 70.17099-70.1432 70.17099z" fill="url(#a)" transform="translate(.892 .892)"/></svg>