<svg viewBox="0 0 100 25" xmlns="http://www.w3.org/2000/svg"><path d="m32.4389368 21.3116541-.3599609.977154h.2742168zm-10.1501287-1.1659005-.0684857.0342428-.2229894 1.1659006v.0172584c0 .0372562.0260245.0684857.0684857.0684857h.205731c.0515013 0 .1797065-.1032765.1887466-.1542298l.1884726-.9601695c.0090402-.0550625-.0857441-.1714882-.1369714-.1714882zm41.0974469-.4629634h1.1486421l-.0857441.4802218h-.2914751l-.5999347 3.3946992h-.5487075l.5999348-3.3946992h-.3084596zm-5.0923228 0h.4802218l.2572323 2.0230676.3772192-2.0230676h.5484335l-.7199217 3.874921h-.4802217l-.1884727-2.2460571-.4457049 2.2460571h-.5659658zm-4.9720618 0h1.0116708l-.0687597.4802218h-.5484335l-.2229894 1.2001434h.531449l-.0684857.4114621h-.5487074l-.2229894 1.3031459h.5487074l-.0857441.4799478h-1.0801565zm-6.2237065 0h.6344515l.1027286 2.2460571.9774279-2.2287987h.6171931l-.6514359 3.8576626h-.4802218l.3087336-2.040326-.857441 2.040326h-.3427025l-.1030024-2.0918273-.3772193 2.0918273h-.5487074zm-5.674999 0h.4799477l.2572323 2.0230676.3772193-2.0230676h.5487074l-.7201956 3.874921h-.4972062l-.1714882-2.2460571-.4457049 2.2460571h-.5659659zm-4.4236284 0h.4972062l-.7371801 3.874921h-.4802217zm-4.5605997 0h.6514359l-.205731 3.874921h-.651436l.0857441-.8916839h-.3944776l-.325718.8916839h-.5829503zm-5.7095159 0h1.1489161l-.0687596.4802218h-.2914752l-.6171931 3.3946992h-.5487074l.6002086-3.3946992h-.3087335zm-4.9035761 0h1.0974148c.2032656 0 .3320187.1802544.2914752.3944777l-.2572323 1.3716316c-.0282161.148477-.2890097.2695597-.4287205.325718h.0684857v.0169844h.0687596l.0169845.0172584h.0515012v.0172584h.0342429v.0169845h.0172584c.0230112.0416393.0342428.1651875.0342428.1887466l-.2742167 1.5258614h-.4972062s.2654506-1.3499902.2742168-1.4058745c.0052049-.0602674-.0065747-.1325883-.0172584-.1887466-.0032874-.0413654-.005205-.1120426-.0512273-.1542298h-.3429764l-.325718 1.7488509h-.4972062zm-4.8350905 0h1.0289292l-.0857441.4802218h-.531449l-.2402479 1.2001434h.5314491l-.0684857.4114621h-.5314491l-.2229894 1.3031459h.531723l-.0687597.4799478h-1.0971409zm-4.9890463 0h1.1313838l-.0684857.4802218h-.2914751l-.6171932 3.3946992h-.5487074l.6002087-3.3946992h-.3087335zm-5.14382393 0h.48022173l.25723229 2.0230676.37721924-2.0230676h.56569188l-.73718007 3.874921h-.48022173l-.18847265-2.2460571-.44570494 2.2460571h-.56596582zm-4.73208794 0h1.01167077l-.0684857.4802218h-.54870743l-.22298944 1.2001434h.53144903l-.0684857.4114621h-.54870743l-.20573104 1.3031459h.53144903l-.0857441.4799478h-1.09714091zm92.08779007-.1372453h.6341776l.1030025 2.2290726.977154-2.2118142.6171931-.0172584-.651436 3.8579365h-.4799478l.3084596-2.040326-.857167 2.040326h-.3429764l-.1027285-2.0918273-.3772193 2.0918273h-.5659658zm-4.2348817 0h1.0286552l-.0857441.4629633h-.5314491l-.2402478 1.2174018h.5487074l-.0857441.3944777h-.531449l-.2229894 1.3028719h.5317229l-.0687596.4802218h-1.0971409zm-4.4921141 0h1.1486422l-.0857441.4629633h-.2914752l-.5999347 3.3949732h-.5659658l.6002087-3.3949732h-.2914752zm-3.9949078 0h.8401825c.2032656 0 .3457158.1632699.3084596.3772192l-.1884726.9601695h-.4629634l.1027286-.6341775c.0230112-.14382-.0605414-.2572323-.2057311-.2572323-.1429981 0-.2854484.1128644-.3084596.2572323l-.085744.4626894.0515012.1714881c.0599935.0367084.6686944 1.0398869.6686944 1.1146733.0175323.0372562.0169844.0545146.0169844.0684857-.0230112.1257397-.1714882.977154-.1714882.977154-.0369822.1955951-.2287422.3602348-.4284465.3602348h-.737454c-.1997043 0-.3284574-.1646397-.2914752-.3602348l.1714882-.977154h.4972062l-.1199869.7029372c-.0230112.1435461.0660202.2742168.205731.2742168.1432721 0 .2805174-.1298489.3087335-.2742168l.1027286-.5659658c-.0936884-.2366866-.6982802-1.0976888-.7371801-1.302872-.0265724-.0227372-.0378041-.1468333-.0342428-.2399739.0052049-.1021806.1372453-.73718.1372453-.737454l.0169845-.0169844v-.0342429l.0172584-.0345168v-.0169844l.0169844-.0172584v-.0169845l.0172584-.0172584v-.0169844l.0169845-.0172584.0172584-.0172584v-.0169845h.0172584l.0169844-.0172584.0172584-.0169844.0169845-.0172584.0172584-.0172584.0172584-.0169845.0169844-.0172584h.0172584l.0169845-.0169844h.0172584l.0172584-.0172584h.0512273zm-5.6065134 0h.6171931l.0857441 1.4573757.7886813-1.4573757h.6171932l-1.2686291 2.2290726-.3087336 1.6288639h-.5487074l.2744907-1.7488509zm-3.9434066 0h.8401825c.2032656 0 .3492771.1632699.3084596.3772192l-.1884726.9601695h-.4629633l.1027285-.6341775c.0230112-.14382-.0605414-.2572323-.205731-.2572323-.1429982 0-.2838048.1128644-.3084596.2572323l-.0857441.4626894.0515012.1714881c.0635547.0367084.6686944 1.0398869.6686944 1.1146733.0139711.0372562.0221894.0545146.0169844.0684857-.0178062.1257397-.1884726.977154-.1884726.977154-.0372562.1955951-.2270986.3602348-.4287205.3602348h-.7204695c-.1994304 0-.3281835-.1646397-.2912012-.3602348l.1714881-.977154h.4972062l-.1199869.7029372c-.0230112.1435461.0608153.2742168.2054571.2742168.1383411 0 .2859963-.1298489.3090075-.2742168l.1027285-.5659658c-.0917708-.2366866-.6982802-1.0976888-.7371801-1.302872-.0265724-.0227372-.0378041-.1468333-.0342428-.2399739.0052049-.1021806.1372453-.73718.1372453-.737454h.0169845v-.0512273l.0172584-.0345168v-.0169844l.0169844-.0172584v-.0169845l.0172584-.0172584v-.0169844l.0169845-.0172584.0172584-.0172584v-.0169845h.0169844l.0515013-.0515012v-.0172584h.0169844l.0175324-.0169845.0167105-.0172584h.0175323l.0169845-.0169844h.0172584l.0172584-.0172584h.0512273zm-71.9417626-.5999347v5.7092419h97.8655177v-5.7092419zm34.8392236-16.85378297h1.063172c.2333993 0 .7317012.5344624.6856788.77142292l-.9086683 4.28638301c-.0408174.22463309-.598291.75443847-.8229241.75443847h-.9431851c-.1944994 0-.3287314-.12820523-.3427024-.30873354 0-.0282161-.0035613-.06930752 0-.10272855l1.0113968-5.26381091.0172584-.01698446.0172584-.01725839.0342428-.01698446h.0169845l.0342428-.03424285h.0172584l.0172584-.01725839h.0169845l.0342428-.0172584h.0515013zm-13.6648148 0h1.0628981c.2333992 0 .7284139.5344624.6859527.77142292l-.9086682 4.3036414c-.0424612.2227155-.3432504.73718008-.5659659.73718008h-1.3201303l-.0172584-.0172584h-.0684857v-.01698445h-.0342429l-.0172584-.0172584h-.0169844l-.0172584-.01698445-.0172584-.0172584h-.0169845v-.01725839l-.0172584-.01698446-.0169844-.01725839v-.01698446l-.0172584-.01725839-.0169845-.0172584v-.03424285l-.0172584-.01698445v-.0345168l-.0172584-.01698445v-.0172584c0-.0282161-.0035612-.07095118 0-.10272855l1.0289292-5.26381091c.0936884-.07779976.2090184-.1369714.325718-.1369714zm74.9592425-.06875965h.0687597c.6470528 0 1.0713902.51884767.9601695 1.16590056l-2.0575844 11.40177336c-.1114947.6454092-.7073203 1.182885-1.3543732 1.182885-.6473269 0-.9171605-.5358321-.8059397-1.182885l2.0403259-11.40177336.0172584-.0512273.0169845-.05150125.0172584-.06875964.0169844-.0512273.0172584-.06875965.0172584-.0512273.0169845-.05150125.0342428-.05150124.0172584-.05150125.0342429-.0512273.0172584-.05150125.0342428-.05150125.0342429-.03424285.0684857-.10300249.0515012-.03424285.0342429-.03424285.0345168-.03424285.0512273-.03424285.0515012-.03451679.0342429-.03424285.0515012-.03424285.0515013-.01698446.0512273-.03451679.0345168-.01698445.0684857-.0172584.0515012-.01698445h.0512273l.0515013-.0172584h.0687596zm-8.8297243 0h1.0116707c.6470529 0 1.0886487.51884767.977154 1.16590056l-2.1603129 11.40177336c-.1131384.6470529-.7415632 1.182885-1.3886161 1.182885h-.9946863zm7.5438368-2.00580918c-.9407196 0-1.8378822.77306658-2.0058092 1.73159244l-2.4517881 14.07627686c-.1591607.8982585.4352952 1.6116055 1.3371149 1.6116055h3.6176886c.9072985 0 1.7866549-.713347 1.9545819-1.6116055l2.6575191-14.07627686c.182172-.95852586-.4325557-1.73159244-1.3716316-1.73159244zm-9.4126746 0-3.3089551 17.4194748h5.0063047c.9089422 0 1.7866549-.713347 1.9545818-1.6116055l2.6575192-14.07627686c.1802543-.96016952-.4309121-1.73159244-1.3716316-1.73159244zm-8.7269958 0-3.3089551 17.4194748h2.5375321l2.040326-10.0986274.8056658 10.0986274h2.1945558l3.309229-17.4194748h-2.5375322l-1.6973496 9.10421504-1.1316577-9.10421504zm-5.5722705 0-3.4289421 17.4194748h4.937819l.3429764-2.1603129h-2.4350776l1.0119447-5.88073012h2.4345297l.3429764-1.81733654h-2.4345297l1.0628981-5.40078232h2.4345297l.3429763-2.16031292zm-6.0349599 0-.4117361 2.16031292h1.3716316l-2.7087464 15.25916188h2.5030154l2.7605216-15.25916188h1.3201303l.3429764-2.16031292zm-8.5042804 0-3.308955 17.4194748h2.5375321l2.040326-10.0986274.8056658 10.0986274h2.1948297l3.3089551-17.4194748h-2.5375322l-1.6973496 9.10421504-1.1316577-9.10421504zm-3.3431979 0-3.309229 17.4194748h2.1948297l3.3089551-17.4194748zm-8.7097374 0-3.309229 17.4194748h2.5205477l2.040052-10.0986274.8059397 10.0986274h2.1945558l3.3089551-17.4194748h-2.5202738l-1.714608 9.10421504-1.1313837-9.10421504zm-11.7447497 0-3.2916967 17.4194748h2.1945558l1.4916185-7.88681322h1.5601043c.2051831.19093813.2290162.54322862.2572323.72019562.0408174.2564105.0830046.5837721.0515012.8401826-.0282161.2544928-1.2001434 6.326435-1.2001434 6.326435h2.1945558s1.2343862-6.6148968 1.2343862-6.7209127c.0035613-.1079334.000274-.4468007-.1199869-.6344515-.0794434-.12026088-.2180585-.39639522-.3772192-.49720617-.3059941-.19614305-.651436-.32571799-.651436-.32571799h-.1542298c.6276029-.24737035 1.8118577-.65527118 1.9373235-1.32013036l1.2001434-6.18946364c.1821719-.96016952-.430912-1.73159244-1.3716316-1.73159244zm-5.8979885 0-3.429216 17.4194748h4.9380929l.3429764-2.1603129h-2.4348036l.9944124-5.88073012h2.4348036l.3429764-1.81733654h-2.4348036l1.0801564-5.40078232h2.4348036l.3427025-2.16031292zm-7.835312 0-3.309229 17.4194748h2.1945558l1.5088769-7.88681322h2.7947645c.9089422 0 1.7710402-.71855197 1.9373234-1.6116055l1.2001434-6.18946364c.1805284-.96016952-.430912-1.73159244-1.3716316-1.73159244zm-7.8870872 0-2.74326318 15.8078693c-.15724317.8982585.45090985 1.6116055 1.35464715 1.6116055h3.27471223c.9070246 0 1.786655-.713347 1.9545819-1.6116055l2.9317359-15.8078693h-2.0573105l-2.7947644 15.3621644c-.0405436.2227155-.2572323.4114621-.4799478.4114621h-1.6288639c-.2281944 0-.3799587-.186829-.3429764-.4114621l2.7262787-15.3621644zm-6.30945056 0c-.94071958 0-1.85514065.77306658-2.02306758 1.73159244v.05150125l-.0172584.01698445v.05150125l-.01698445.03424285v.03424285l-.0172584.03451679v.0512273l-.01698445.0345168v.0512273l-.0172584.05150125-.01698445.05150124-.0172584.10272855-.03424285.11998695-.0172584.12026089-.03424285.11998695-.01725839.1369714-.03424285.13724534-.03424285.1542298-.03424285.13724534-.05150125.29147514-.03424285.1542298-.03424285.13724534-.0172584.13724534-.03424285.1369714-.03424285.13724535-.01725839.13724534-.01698446.11998695-.03451679.10272855-.01698445.12026089v.0512273l-.0172584.03424285v.0857441l-.01698445.05150124v.06875965l-.0172584.03424285v.03424285c-.01753234.41913248.04054354.99112505.17148819 1.09714091.16628328.92318724 3.24320882 5.19587306 3.1547253 5.84676116-.08300467.6525318-.44570494 2.5717751-.44570494 2.5717751-.11149472.6470529-.55309051 1.1659005-1.20014341 1.1659005-.64732684 0-1.08864869-.51693-.97742791-1.1659005l.58295028-3.1889682h-2.29755827l-.77142293 4.4233544c-.15724317.8982585.45090985 1.6116055 1.35437321 1.6116055h3.27498618c.90702461 0 1.77104021-.713347 1.93732349-1.6116055 0 0 .84374382-4.1316053.84018257-4.4233544-.00356126-.2936667-.0857441-.3259919-.0857441-.3259919 0-.3358539-2.73833224-4.85536222-3.01775389-5.0235631-.11998695-.07067724-.21915424-.51802584-.2227155-.78868133-.00547886-.26873788.35996084-2.07456883.35996084-2.07456883.11149472-.64705289.72457871-1.16590056 1.3716316-1.16590056.64732684 0 .9171605.51884767.80593972 1.16590056l-.49720618 2.86325016h2.31454273l.80593971-4.30336746c.18189802-.95852586-.43091202-1.73159244-1.3716316-1.73159244z" fill="#ed1f25"/></svg>