<svg viewBox="0 0 66 52" xmlns="http://www.w3.org/2000/svg"><path d="m9.02639472 51.6217756h47.77024598c2.9085483 0 5.0807438-.7133173 6.5166166-2.139982 1.4358729-1.4266646 2.1538093-3.5666466 2.1538093-6.419976v-33.71535689c0-2.85332934-.7179364-4.99331134-2.1538093-6.41997601-1.4358728-1.42666466-3.6080683-2.139982-6.5166166-2.139982h-47.77024598c-2.89013197 0-5.05773845.71331734-6.50281944 2.139982-1.44508098 1.42666467-2.16760647 3.56664667-2.16760647 6.41997601v33.71535689c0 2.8533294.72252549 4.9933114 2.16760647 6.419976 1.44508099 1.4266647 3.61268747 2.139982 6.50281944 2.139982zm2.87174568-29.4076484 6.8203659-4.1419316-6.8203659-4.1143072c-.5706659-.34976-.9020396-.7777444-.9940612-1.2839832-.0920516-.5062387-.0046191-.9802639.2623275-1.4220756.2669166-.4418116.6488902-.7363227 1.1459208-.8835932.4970306-.1472706 1.0584883-.0184164 1.6843732.3865626l8.1733953 5.1083684c.5154469.3313737.8652069.7823635 1.0492801 1.3530294.1841032.5706658.1933114 1.1413317.0276245 1.7119976-.1656869.5706658-.5246551 1.0216856-1.0769046 1.3530294l-8.1733953 5.1359928c-.6258849.3865626-1.1873426.5062387-1.6843732.3589682-.4970306-.1472706-.8790042-.4371926-1.1459208-.8697961-.2669466-.4326035-.3543791-.9066287-.2623275-1.4220756.0920216-.5154469.4233953-.9388422.9940612-1.2701859zm11.9839532 3.1754649c0-.5154169.1794841-.9526395.5384523-1.3116077s.7961608-.5384523 1.3116077-.5384523h10.8242351c.5338333 0 .9756449.1794841 1.3254049.5384523.3497601.3589682.5246551.7961908.5246551 1.3116077 0 .5154469-.174895.9526395-.5246551 1.3116077-.34976.3589682-.7915716.5384523-1.3254049.5384523h-10.8242351c-.5154469 0-.9526395-.1794841-1.3116077-.5384523s-.5384523-.7961608-.5384523-1.3116077z" fill-rule="evenodd"/></svg>