<svg xmlns="http://www.w3.org/2000/svg" viewBox="0 0 218 40"><defs><style type="text/css">#text{fill:#000}.lp{fill:#5c4ee5}.dp{fill:#4040b2}@media (prefers-color-scheme:dark){#text,.dp,.lp{fill:#fff}}</style></defs><g id="text"><path d="m48.78 12.54h-8.89v-5.31h23.81v5.31h-8.9v26.53h-6z"/><path d="m69.19 34.77c2.4147004-.0121873 4.814205-.3828973 7.12-1.1l.91 4.4c-2.7451012.98909-5.6421618 1.4899837-8.56 1.4801463-7.31 0-9.85-3.3901463-9.85-9.0001463v-6.15c0-4.92 2.2-9.08 9.66-9.08s9.13 4.35 9.13 9.37v5h-13v1.2c.05 2.78 1.05 3.88 4.59 3.88zm-4.54-9.77h7.41v-1.18c0-2.2-.67-3.73-3.54-3.73s-3.87 1.53-3.87 3.73zm28.54-4.33c-2.1477217.9685722-4.2172381 2.1019584-6.19 3.39v15h-5.83v-23.27h4.92l.38 2.58c1.8968216-1.2842425 3.9545131-2.3130882 6.12-3.06zm14.24 0c-2.140862.9694935-4.203661 2.1028628-6.17 3.39v15h-5.83v-23.27h4.92l.38 2.58c1.896822-1.2842425 3.954513-2.3130882 6.12-3.06zm19.51 18.4h-4.78l-.43-1.58c-2.06237 1.3419756-4.469459 2.0575027-6.93 2.06-4.25 0-6.07-2.92-6.07-6.93 0-4.73 2.06-6.55 6.79-6.55h5.59v-2.44c0-2.58-.72-3.49-4.45-3.49-2.168626.0243904-4.329377.2655905-6.45.72l-.72-4.45c2.605837-.7210238 5.296265-1.0909577 8-1.1 7.31 0 9.47 2.58 9.47 8.41zm-5.83-8.8h-4.3c-1.91 0-2.44.53-2.44 2.29s.53 2.34 2.34 2.34c1.544259-.0235047 3.057628-.4362418 4.4-1.2zm23.75-19.79c-1.101433-.2366443-2.223546-.3639287-3.35-.38-2.29 0-2.63 1-2.63 2.77v2.92h5.93l-.33 4.64h-5.59v18.64h-5.83v-18.64h-3.73v-4.64h3.73v-3.25c0-4.83 2.25-7.22013238 7.41-7.22013238 1.689466-.00626401 3.37182.21917154 5 .67013238zm11.38 29.07c-8 0-10.13-4.4-10.13-9.18v-5.88c0-4.78 2.15-9.18 10.13-9.18s10.130035 4.4 10.130035 9.18v5.88c.009965 4.78-2.150035 9.18-10.130035 9.18zm0-19.27c-3.11 0-4.3 1.39-4.3 4v6.26c0 2.63 1.2 4 4.3 4s4.3-1.39 4.3-4v-6.24c0-2.63-1.19-4.02-4.3-4.02zm25.14.39c-2.140862.9694935-4.203661 2.1028628-6.17 3.39v15h-5.83v-23.27h4.92l.38 2.58c1.896763-1.284343 3.954468-2.3131955 6.12-3.06zm16.02 18.4v-16.25c0-1.24-.53-1.86-1.86-1.86-2.136771.253814-4.200865.9339111-6.07 2v16.11h-5.83v-23.28h4.45l.57 2c2.906021-1.4697464 6.087657-2.314549 9.34-2.48 1.843434-.1735329 3.599653.8203271 4.4 2.49 2.909042-1.4912684 6.104418-2.3404132 9.37-2.49 3.87 0 5.26 2.72 5.26 6.88v16.88h-5.83v-16.25c0-1.24-.53-1.86-1.86-1.86-2.140738.2357436-4.208417.9170216-6.07 2v16.11z"/></g><g><path d="m12 7 11 6.34v12.66l-11-6.333z" class="lp"/><path d="m24 13.34v12.66l11-6.327v-12.673z" class="dp"/><g class="lp"><path d="m0 0v12.667l11 6.333v-12.667z"/><path d="m12 33.667 11 6.333v-12.58-.087l-11-6.333z"/></g></g></svg>