<svg viewBox="0 0 100 82" xmlns="http://www.w3.org/2000/svg"><path d="m99.9201439 9.7247281c-3.6760621 1.6301971-7.6274042 2.7323163-11.7735906 3.2279202 4.2316181-2.537472 7.48252-6.55476139 9.0132966-11.34193548-3.9613341 2.34962218-8.348328 4.05575864-13.0180959 4.97452436-3.7390118-3.98381614-9.0667539-6.47332652-14.9630416-6.47332652-11.3209523 0-20.5001163 9.17866441-20.5001163 20.49961674 0 1.6067159.1808555 3.1709657.530576 4.6717663-17.0368842-.8553164-32.1423119-9.0162942-42.25323128-21.41888204-1.76458974 3.02758036-2.775282 6.54876624-2.775282 10.30576364 0 7.1123158 3.61860801 13.3868013 9.11971158 17.0628634-3.36031449-.106415-6.52178784-1.0286779-9.28507942-2.5639509-.0019984.0859313-.0019984.171363-.0019984.257794 0 9.9325619 7.06635262 18.2174406 16.44385812 20.1014349-1.7201253.4681259-3.5311779.7189254-5.4006838.7189254-1.3209443 0-2.6049182-.128897-3.8569176-.3677061 2.608915 8.1434917 10.1793647 14.0707547 19.1501952 14.2356229-7.0158929 5.4986055-15.8553284 8.7759862-25.45965266 8.7759862-1.65467758 0-3.28687313-.0974221-4.89009184-.2867708 9.07174986 5.8163516 19.8476378 9.2106389 31.4238861 9.2106389 37.7068646 0 58.3268851-31.2370354 58.3268851-58.3263856 0-.8887897-.0204836-1.773083-.059952-2.6523802 4.0057985-2.8901902 7.4810211-6.5008046 10.2293247-10.6115193z" fill="#2baae1" transform="translate(0 .12)"/></svg>