<svg viewBox="0 0 48 49" xmlns="http://www.w3.org/2000/svg"><path d="m24.0735453.61722206c1.264817-.00696411 2.5577684.66409168 3.8788242 2.01325185l3.2464007 3.22531493c.295111.28107379.6535093.42159568 1.075105.42159568h4.5533893c1.8972706 0 3.2920816.45323936 4.1844931 1.35971806.8924116.90644871 1.3386023 2.29424115 1.3386023 4.16340732v4.5744751c0 .4075585.1475705.7588782.4427115 1.0540192l3.2253149 3.2464007c1.3210558 1.335093 1.985093 2.635063 1.9921667 3.89991.0069635 1.2648171-.6570737 2.5577685-1.9921667 3.8788243l-3.2253149 3.2464007c-.295141.295111-.4427115.6534793-.4427115 1.075105v4.5533893c0 1.8972405-.4497 3.2920816-1.3491301 4.1844931-.8994602.8924115-2.2907619 1.3386023-4.1739653 1.3386023h-4.5533893c-.4215957 0-.779994.1475705-1.075105.4427114l-3.2464007 3.225315c-1.3210558 1.3210558-2.6140072 1.985093-3.8788242 1.9921666-1.264847.0069635-2.5647871-.6570736-3.89991-1.9921666l-3.2464007-3.225315c-.2810738-.2951409-.6324236-.4427114-1.0540192-.4427114h-4.5744751c-1.88320341 0-3.27450515-.4497001-4.17396526-1.3491602-.89943011-.8994301-1.34913017-2.2907318-1.34913017-4.1739352v-4.5533893c0-.4216257-.14055189-.779994-.42162567-1.075105l-3.22531494-3.2464007c-1.33509298-1.3210558-2.00266947-2.6140072-2.00266947-3.8788243 0-1.264847.66757649-2.564817 2.00266947-3.89991l3.22531494-3.2464007c.28107378-.295141.42162567-.6464607.42162567-1.0540192v-4.5744751c0-1.89727055.44970006-3.29208159 1.34913017-4.1844931.89946011-.89241152 2.29076185-1.33863228 4.17396526-1.33863228h4.5744751c.4215956 0 .7729454-.14052189 1.0540192-.42159568l3.2464007-3.22531493c1.3351229-1.33512298 2.635063-2.00617877 3.89991-2.01325185zm8.2189262 14.20983254c-.4791842 0-.8877924.0962807-1.2257948.2888122s-.6567487.5198261-.9562388.9818836l-7.2905219 11.3336833-3.5810738-4.0303239c-.4962807-.5562088-1.1252249-.8342832-1.8868026-.8342832-.7187763 0-1.3156269.2331734-1.7905219.6995201-.474925.4663468-.7123875 1.05036-.7123875 1.7520396 0 .3165867.0513497.6118177.1540192.8856329.1026994.2738152.2909418.564757.564757.8727954l5.1598381 5.840132c.5391121.6161068 1.2493401.9241452 2.1306838.9241452 1.0011698 0 1.74991-.3679364 2.2462208-1.1038393l9.2158068-13.6055488c.1796941-.265267.310198-.5326635.3914817-.8022196.0812838-.2695261.1219556-.5241152.1219556-.7637073 0-.6931013-.2438812-1.2728254-.7316436-1.7392021-.4877325-.4663467-1.0910018-.6995201-1.8097781-.6995201z" fill="#090"/></svg>