<svg viewBox="0 0 85 28" xmlns="http://www.w3.org/2000/svg"><g fill="none" transform="translate(.77 .318)"><path d="m36.525 26.914h-6.85l4.281-26.312h6.851z" fill="#0066b3"/><path d="m23.9112021.60180318-6.5308329 18.09756512-.7728047-3.8971033.0007039.0014077-2.3050413-11.83207595s-.2787164-2.36979357-3.2495803-2.36979357h-10.79603903l-.12668929.44552401s3.30236751.68623366 7.16568704 3.00816682l5.95158138 22.85897099h7.13683l10.899502-26.31266182zm46.3443502 17.00451812 3.6000873-9.8465732 2.0249172 9.8465732zm7.5380128 9.3081437h6.2901232l-5.4842386-26.31266182h-5.507465c-2.5436394 0-3.1623054 1.96086869-3.1623054 1.96086869l-10.2167875 24.35179313h7.1403492l1.4287737-3.9083646h8.708481zm-17.5450591-19.98523558.977619-5.65104619s-3.0166128-1.14724191-6.1613225-1.14724191c-3.3994959 0-11.4724191 1.48648768-11.4724191 8.71059256 0 6.79828812 9.4749513 6.88274762 9.4749513 10.45257032 0 3.5691188-8.4980361 2.9314494-11.3027962.6791953l-1.019145 5.9072401s3.0588426 1.4864877 7.7329736 1.4864877 11.7279091-2.4211731 11.7279091-9.0083124c0-6.8405178-9.5601146-7.4781873-9.5601146-10.45186646 0-2.97508684 6.670895-2.59290748 9.6023444-.97761902z" fill="#0066b3"/><path d="m16.6082684 14.8036727-2.3050413-11.83207595s-.2787164-2.36979357-3.2495803-2.36979357h-10.79603903l-.12668929.44552401s5.18933411 1.07545131 10.16751942 5.10487458c4.7578867 3.85065063 6.3098305 8.65147093 6.3098305 8.65147093z" fill="#faa633"/></g></svg>