<svg viewBox="0 0 94 65" xmlns="http://www.w3.org/2000/svg"><g fill="none" transform="translate(0 .214)"><path d="m93.2776442 37.928296c0 8.5461346-6.9280926 15.4746734-15.4746733 15.4746734h-62.3287437c-8.54613458 0-15.4742272-6.9285388-15.4742272-15.4746734v-10.2087876c0-8.5465807 6.92809262-15.4742272 15.4742272-15.4742272h62.3287437c8.5465807 0 15.4746733 6.9276465 15.4746733 15.4742272z" fill="#231f20"/><path d="m78.6095383 32.2867855c0 17.7748179-14.3138944 32.1850721-31.9704931 32.1850721-17.6570449 0-31.9704931-14.4102542-31.9704931-32.1850721 0-17.7752641 14.3134482-32.18507218 31.9704931-32.18507218 17.6565987 0 31.9704931 14.40980808 31.9704931 32.18507218z" fill="#231f20"/><g fill="#fff"><path d="m42.1056725 50.3613895 36.0675699-.0294433s11.7460836-1.4431667 11.7460836-12.0811124v-10.6388379s-1.3963251-12.1426757-12.2506343-12.1426757h-16.549353s-12.5731721.4296042-12.5731721 12.8948176v9.4570918s.5451468 6.4155119-6.4404941 12.5401599z"/><path d="m32.749 22.024h-5.803l-1.773 12.09-2.203-12.036h-5.212l-2.257 12.036-1.719-12.036h-5.91l4.943 20.58h5.212l2.256-12.682 2.311 12.682h5.266z"/><path d="m35.221 27.666h5.319v14.884h-5.319z"/><path d="m41.0243012 23.5019819c0 1.4690411-1.3838341 2.6597094-3.0897598 2.6597094-1.7063718 0-3.0897598-1.1906683-3.0897598-2.6597094 0-1.4685951 1.383388-2.6597095 3.0897598-2.6597095 1.7059257 0 3.0897598 1.1911144 3.0897598 2.6597095z"/></g><g fill="#231f20"><path d="m76.702 27.666h5.319v14.884h-5.319z"/><path d="m82.5045271 23.5019819c0 1.4690411-1.3829419 2.6597094-3.0893137 2.6597094-1.7068179 0-3.0897598-1.1906683-3.0897598-2.6597094 0-1.4685951 1.3829419-2.6597095 3.0897598-2.6597095 1.7063718 0 3.0893137 1.1911144 3.0893137 2.6597095z"/><path d="m55.746 22.078h17.678v4.835h-11.982v4.568h10.8v4.782h-10.8v6.233h-5.696z"/></g></g></svg>