<svg viewBox="0 0 100 31" xmlns="http://www.w3.org/2000/svg"><g fill="#231f20" transform="translate(0 .053)"><path d="m42.028 7.204h-.023l-1.312 7.162h-1.801l-1.681-8.74h1.43l1.169 6.737h.024l1.252-6.737h1.861l1.24 6.737h.024l1.216-6.737h1.384l-1.718 8.74h-1.824z"/><path d="m49.3517448 13.3645501c.9542026 0 1.1691289-1.1519875 1.1691289-2.2290366 0-1.077049-.2149263-2.21629043-1.1691289-2.21629043s-1.1807762 1.13924143-1.1807762 2.21629043c0 1.0770491.2265736 2.2290366 1.1807762 2.2290366zm0-5.54720906c1.2519789 0 2.6953696.68873121 2.6953696 3.31817246 0 2.7048193-1.4433907 3.3306989-2.6953696 3.3306989-1.2519788 0-2.7072367-.6258796-2.7072367-3.3306989 0-2.62944125 1.4552579-3.31817246 2.7072367-3.31817246zm3.6128721 1.16451394c0-.40062444-.0114276-.77641588-.0474684-1.06452265h1.3359276c.0116473.38831782.0479079.78894226.0479079 1.17726008h.0237342c.1788855-.50083549.6439-1.27725137 1.561842-1.27725137.0960356 0 .1672382.02505276.2509671.03735938v1.45262071c-.1314171-.03757914-.2626145-.06263191-.4177658-.06263191-.6082986 0-1.2761525.38809806-1.2761525 1.59041088v3.5309012h-1.4789921z"/><path d="m57.07 4.975h1.479v9.391h-1.479z"/><path d="m62.0715159 13.3267512c.8706934 0 1.1689092-.9891446 1.1689092-2.2037641 0-1.25241833-.3340369-2.16640465-1.1453948-2.16640465-.8227854 0-1.1091341.83904779-1.1091341 2.12904535 0 1.4897603.2267934 2.2411234 1.0856197 2.2411234zm2.6474617-8.35201968v8.28938778c0 .4634761.0120868.8638808.0474684 1.101882h-1.3829565c-.0237342-.1876759-.0479079-.5632476-.0479079-1.0014512h-.0353815c-.2388803.550941-.6799408 1.1016623-1.6343631 1.1016623-1.5262407 0-2.1582736-1.527779-2.1582736-3.3181725 0-2.10333325.7988315-3.33069886 2.122892-3.33069886.8823407 0 1.3710894.52588825 1.5860157 1.0269435h.023954v-3.86955302z"/><path d="m69.591 5.626h1.527v3.556h2.468v-3.556h1.527v8.74h-1.527v-3.856h-2.468v3.856h-1.527z"/><path d="m79.6565774 10.5845725c0-1.13946117-.3579908-1.71545495-1.0256249-1.71545495-.7753171 0-1.0970473.86366102-1.0970473 1.71545495zm1.1210013 3.4687088c-.3100829.1377902-.9542026.4129311-1.8365433.4129311-1.979388 0-2.8382143-1.4899801-2.8382143-3.2307076 0-1.92818367.9660697-3.41816376 2.5281314-3.41816376 1.3238407 0 2.4562695.81377526 2.4562695 3.44343626v.3006332h-3.5533168c0 1.101882.4171065 1.7653407 1.5620617 1.7653407.9065145 0 1.3352683-.2881068 1.6099697-.5008355zm4.5435602-2.8426095h-.1311973c-1.2642855 0-2.0154289.2753606-2.0154289 1.2143997 0 .5885202.3698579.9893644.9421158.9893644.8827802 0 1.2045104-.6885115 1.2045104-1.8409386zm-2.9094169-2.91754803c.4173263-.20042211 1.0012315-.47578273 1.9437868-.47578273 1.9077459 0 2.3490261.97661822 2.3490261 2.59208186v2.8171173c0 .4634761.0479079.889373.083729 1.1394611h-1.3359276c-.0716421-.2500881-.0832895-.5632476-.0832895-.8761874h-.0237341c-.3700777.5256685-.8353119.9763985-1.7172131.9763985-.9544224 0-1.8365433-.6885115-1.8365433-1.8908243 0-1.7528144 1.359442-2.1910179 3.2315866-2.1910179h.297996v-.2380013c0-.63840591-.297996-1.22714583-1.1445157-1.22714583-.739496 0-1.3954828.37557168-1.6818315.62609931z"/><path d="m88.159 4.975h1.479v9.391h-1.479z"/><path d="m91.4865359 6.59019519 1.4789921-.47578273v1.80291987h1.2282446v1.13968094h-1.2282446v3.34344503c0 .6887312.2384407.8889335.6680736.8889335.2617355 0 .4529276-.0751583.560171-.1377902v1.1018821c-.2263539.1125176-.5483039.2127287-.9898039.2127287-1.0970473 0-1.7174328-.5258883-1.7174328-1.8780782v-3.53112093h-.9772775v-1.13968094h.9772775zm3.4704669-1.61546367h1.4789921v3.76912221h.0356013c.2621749-.40062444.6080789-.92651269 1.5260209-.92651269 1.3959223 0 1.8130289 1.08935565 1.8130289 2.39165976v4.1570005h-1.4787723v-3.8691135c0-.98892481-.2384408-1.40229539-.8465197-1.40229539-.7753171 0-1.0493591.68851145-1.0493591 1.51503289v3.756376h-1.4789921zm-54.4906378 19.45347018c.9660697 0 1.741167-.8638808 1.741167-3.2680669 0-2.4039664-.7750973-3.2682868-1.741167-3.2682868-.9658499 0-1.741167.8643204-1.741167 3.2682868 0 2.4041861.7753171 3.2680669 1.741167 3.2680669zm0-7.7632797c1.7292999 0 3.3153156 1.3524096 3.3153156 4.4952128 0 3.1432426-1.5860157 4.4952128-3.3153156 4.4952128s-3.3153156-1.3519702-3.3153156-4.4952128c0-3.1428032 1.5860157-4.4952128 3.3153156-4.4952128zm4.3114926 3.4807956c0-.4004046-.0120869-.7757566-.0474684-1.0643029h1.3357078c.0116473.3885376.0474684.7891621.0474684 1.1774799h.0239539c.1788855-.5010553.6436802-1.2774711 1.5622815-1.2774711.0953763 0 .1665789.0252725.2500881.0377989v1.4528404c-.1307578-.0382384-.2617354-.0628516-.4171065-.0628516-.6080789 0-1.2759328.3878783-1.2759328 1.5899714v3.5313407h-1.478992zm6.389773 4.244905c.9298091 0 1.2998868-.7008181 1.2998868-2.1659652 0-1.3521899-.489408-2.0789398-1.1928632-2.0661936-.775317.0125264-1.0730933.7638895-1.0730933 2.0785002 0 1.5150329.4647947 2.1536586.9660697 2.1536586zm-2.3000194 2.1415717c.3459039.1999825 1.037492.550941 1.8130289.550941 1.395263 0 1.6220565-1.0144171 1.6220565-2.0286145v-.6135729h-.0241738c-.2384407.5010552-.6559868 1.0895754-1.6218367 1.0895754-.8590461 0-2.1466262-.6010466-2.1466262-3.2058746 0-1.7780869.6082987-3.3432252 2.2182683-3.3432252.8942078 0 1.3117539.5386344 1.6222763 1.1021018h.0472486c0-.3382123.0356013-.6638983.0479079-1.0021106h1.3354881c-.0237342.3382123-.0476882.6764246-.0476882 1.0146369v4.7580471c0 2.0158683-.5843447 3.4564022-2.838434 3.4564022-.9777171 0-1.7528144-.2632738-2.1108052-.4008442zm9.375447-4.1572203h-.1309776c-1.2642855 0-2.0158684.2751409-2.0158684 1.2146195 0 .5880806.3698579.9889248.9421158.9889248.8823407 0 1.2047302-.6885115 1.2047302-1.8407188zm-2.9098564-2.9177678c.417546-.2002024 1.001671-.4757827 1.9437867-.4757827 1.9079657 0 2.3494657.9766182 2.3494657 2.5920818v2.8171173c0 .4634761.0474684.8891533.0832894 1.1399007h-1.3357078c-.0712026-.2507474-.0835092-.5636872-.0835092-.8768467h-.023954c-.3691986.526108-.8348723.976838-1.7167735.976838-.9542026 0-1.8369828-.6885115-1.8369828-1.8908243 0-1.7528144 1.3598815-2.191018 3.2315866-2.191018h.2986553v-.2380012c0-.6386257-.2986553-1.2271458-1.1447354-1.2271458-.7397158 0-1.3954829.3757914-1.6818316.626319zm5.7841115.6885114c0-.4004046-.0123066-.7757566-.0481277-1.0643029h1.3836158c.0120868.3261255.0474684.6638983.0474684.9895842h.035821-.0118671c.2149264-.3883179.6320329-1.0895754 1.6341434-1.0895754 1.3948235 0 1.8125893 1.0895754 1.8125893 2.3918795v4.1572203h-1.4787722v-3.8693333c0-.9891446-.2388803-1.4022954-.8465197-1.4022954-.7757566 0-1.0495789.6885114-1.0495789 1.5150328v3.7565959h-1.4787723zm6.210448-1.0643029h1.4787723v6.4491086h-1.4787723zm-.0241737-2.7421787h1.5269v1.527779h-1.5269z"/><path d="m70.183 24.19 2.623-3.931h-2.54v-1.178h4.019v1.328l-2.575 3.944h2.658v1.178h-4.185z"/><path d="m78.6784209 22.374974h-.1309776c-1.264725 0-2.0158684.2751409-2.0158684 1.2146195 0 .5880806.3698579.9889248.9423355.9889248.8823408 0 1.2045105-.6885115 1.2045105-1.8407188zm-2.9100762-2.9177678c.4171065-.2002024 1.0018908-.4757827 1.944446-.4757827 1.9079657 0 2.3490262.9766182 2.3490262 2.5920818v2.8171173c0 .4634761.0474684.8891533.0835092 1.1399007h-1.3350486c-.0725211-.2507474-.0839487-.5636872-.0839487-.8768467h-.0241737c-.3696381.526108-.8346526.976838-1.7167735.976838-.9542026 0-1.8367631-.6885115-1.8367631-1.8908243 0-1.7528144 1.3590025-2.191018 3.2318064-2.191018h.297996v-.2380012c0-.6386257-.297996-1.2271458-1.1449552-1.2271458-.7390565 0-1.3952631.3757914-1.6809525.626319zm5.9937636-1.7029286 1.478992-.4757827v1.8029198h1.2286842v1.1401205h-1.2286842v3.3427857c0 .6887312.2388803.8887138.6680737.8887138.2626145 0 .4529276-.0747187.5606105-.1375704v1.1023215c-.2267934.1127375-.5485236.2127288-.9898039.2127288-1.0970473 0-1.7178723-.5258883-1.7178723-1.8785177v-3.5304617h-.977717v-1.1401205h.977717zm3.9117472 1.3271371h1.478992v6.4491086h-1.478992zm-.1883353-2.7421787h1.5262407v1.527779h-1.5262407zm5.5072126 8.1893965c.953763 0 1.1689091-1.1522073 1.1689091-2.2290366 0-1.0768292-.2151461-2.2160706-1.1689091-2.2160706-.9539829 0-1.1803368 1.1392414-1.1803368 2.2160706 0 1.0768293.2263539 2.2290366 1.1803368 2.2290366zm0-5.547209c1.2521986 0 2.6951498.6887312 2.6951498 3.3181724 0 2.7048194-1.4429512 3.3309187-2.6951498 3.3309187-1.2524184 0-2.707017-.6260993-2.707017-3.3309187 0-2.6294412 1.4545986-3.3181724 2.707017-3.3181724zm3.9831695 1.1642941c0-.4004046-.0120869-.7757566-.0481277-1.0643029h1.383396c.0118671.3261255.0481277.6638983.0481277.9895842h.0353815-.0114276c.2144868-.3883179.6318131-1.0895754 1.6332643-1.0895754 1.3954829 0 1.8130289 1.0895754 1.8130289 2.3918795v4.1572203h-1.4785525v-3.8693333c0-.9891446-.2386605-1.4022954-.847179-1.4022954-.7746578 0-1.0489196.6885114-1.0489196 1.5150328v3.7565959h-1.478992zm-73.2549373-9.2653467v-.1305381l-.0760373.0980135.0217563.1193302zm-.054281.6302748.054281.0325246.065269-.0975739.0977937-.1740508-.054281.0107683-.0870254.0435127-.0435127-.2498683-.0542809.0432929.0432929.1522944-.054281.1195501-.0760373-.0215366-.0980135.0650492.0109881.162843zm.293381-.5977501.1305381.0977936.1520747-.0327444-.1193303-.0325246-.0327444-.1305381v-.0977937l-.065269-.11955-.0870254.0325246-.0435127-.0325246-.1305381.11955.2067952.1087818zm1.065182-.9673883.1090015.1083422.0540612-.0107683.0872451.0545008-.0217563-.0652691-.2175635-.15207464-.1413063-.13053808.065269.19580712zm-1.7827019 1.8367631.054281-.108562-.2391.0107683-.1087818.0760373.1197698.0435127zm2.5329662.0217563.0977937.1740508-.0325247.065269.0868056.2933811.0762571.0219761v-.3153572l-.0870253-.1090015-.0327444-.3256859-.1514154-.3951304-.0309863.0703235.041315.2267935zm-.6304945-1.5543701.173831.2716247.1087817.0545008-.1848191-.3151374zm.4891881.7610326.0652691.0325247-.1630628-.3261255-.0868056-.0217563.0868056.1413064zm-1.8822536-2.38001242c-.0087904.02285515-.0162623.04614982-.0254923.06878521l.0813116.06109358.0870254-.03252464zm-14.46797044 11.35043982-.0118671-.1050458-.11669313-.1402076-.07010378.0232947.12856023.163722-.0118671.0463696.10526556.1171326.06988402.1516352.05845644-.0232947-.05845644-.1283405zm14.77541614-14.29216158.1219674.08856371.2883266.09977153.0999913.17756695h.0773559l-.0219761-.18855501-.0890033-.0665876.0224156-.09977153-.1773471-.0773559-.0665876.06636785-.0887835-.04439174.0443917-.09977153zm5.3368978 13.21950778c-.5786309 1.3666941-1.4049326 2.5951585-2.4556103 3.6519895l-1.5205269-1.5203071c.8533323-.8594856 1.5247024-1.8576404 1.9945516-2.9685326.4724863-1.1170455.7186187-2.3015577.7368588-3.5216712h2.1499226c-.0182401 1.5106376-.3208511 2.976444-.9051958 4.3585214zm-4.2860003 1.8213798.0129659-.0769164.108562-.0980134-.0977937-.4891882.0217564-.1307578-.1087818-.2061359-.065269-.0652691.065269-.0107683-.0870254-.1197697-.2065754-.0107683v.1628429l-.0758176.0650493.054281.1307578-.0872451.2500881-.0650493.0435127.0252725.0503253-.8436627-.843443c1.2862615-1.2987879 2.0077372-3.0080896 2.0442175-4.8314472h2.1824472c-.0367001 2.4063837-.9847493 4.6637695-2.6832827 6.3746095zm-1.5348113 1.5631605.0039557-.0098892.076257-.1303184-.076257-.1958071.2826127-.2391-.0217563-.1632825-.2065755-.1083422.2065755-.4021628.2393198-.3911747-.2826128-.3481015-.0980134.0325246-.1303183-.0325246-.1195501-.2610762-.054281.0219761.0650493-.2503079.0417546-.189434c.0476882-.0432929.0955961-.0861464.1421854-.1307578l.9414565.9410169.0052743.0096695.0059335.0017581.5909375.5907177c-.4955612.4821558-1.0366129.9001414-1.6119474 1.254616zm-.2459127-3.760112-.3612872.2852499-.0518636.0408755-.0325247-.0542809h-.1740507l-.2500881.0542809-.2391001-.0977936h-.11955l-.1848191-.1415262-.1193302.0112078-.1087818-.0980134-.1740507-.0109881-.0870254-.1193302-.0760374-.029448c.0052743-.0035162.0105486-.0068126.0160426-.0107683l.1035075.0182402v-.054281l.2500881.0437324.0870254.0540613.2716246.0435127.0217564.065269h.2173437l.2936008.0868056.0839487.1391088.1769077-.0083509.1305381-.1413064.1085619-.2175635.1630628-.4241388-.0325247-.0758176.0760374-.0762571.0654888-.2608564-.0437325-.1087817.0545007-.0868057-.076257-.0980134-.0217564-.2606366-.1848191.0432929-.1085619.1522944-.1630627-.0107683.0215365.1953676-.1303183.1632825-.1087817-.054281-.0977937.0865859-.2500881.0219761-.0103288-.0090102c.0549403-.0606541.1081225-.1230662.1597663-.1865772h.1114189l.1213081-.0219761.1180117-.1303183.0219761-.1030679.1193303-.0057138.228112-.3368938.1850388-.3913944.4889684-.2278923-.0109881-.1307578-.0648295-.0652691.0325247-.0432929.1522944.0758176.3259057.065269.2610761-.1085619.4239191-.0870254-.1090014-.3043691-.1848191-.1848191-.228112-.0107683-.293381-.7065318-.0435127.0325246-.1087818-.0868056.0870254-.0547205-.0048347-.0259318h1.5886528c-.0362606 1.7796252-.7405948 3.4480512-1.9960899 4.7154134l-.0476881-.0472487.0142845-.0549402.0542809-.2716247-.0542809-.4239191-.0980135-.2498684-.0650493.0650493-.11955.1740508zm-1.3807588-6.1308945.184819-.065269-.2063556-.1413064.11955-.1413064-.0217563-.0760373.1955873-.0868056-.184819-.2175635-.2173437.1958071-.0327444.1410866-.1410867-.065269-.1522944.0219761-.0432929-.0977937-.0015383-.0006593.352277-.3518375.0296677.0371397.3043691.0107683.1032877-.1239453c.1463609.1722927.2797559.3557932.3997454.5487434l-.0030767-.000879-.1522944.3261254-.2391-.1303183-.0652691.0107683.0652691.1303183.0760373.0545008-.0760373.184819-.0327444-.0870254zm-.0035162-1.0308992.1215279-.1213081c.0443917.0468091.0874649.0944972.1298788.1432842l-.1391088.1175722-.1193303-.0109881-.0435127-.0432929.0977937-.065269zm1.7611653-1.76094551c.1632824.16899627.3162361.34502489.4601796.52698711l-.0868056.0474683-.0980134.0217564.1522944.0432929.0712026-.0610936c.0683457.0876847.1340543.1769077.1975652.267669h-.0731804v.043293l.0762571.0217563.228112.3590896.0637307.0316456c.0268108.0457103.0518636.0925194.0775756.1386692v.1448226l-.1520746.162843-.0435127-.1193303-.1305381-.0217564.0545007.1410867-.0977936.0980134.2388802.0868056.0980135.1413064.1955873.0545007.0109881.0868057.173831.0437324.0327444.2716247.1046063-.0149437c.0613133.1755891.1142757.3542548.1613046.5351182l-.0050545.0015383-.1090015.1850388-.1520746.0758176-.1087818.3153571-.2826127.1630628-.0977937-.1740508.0870254-.4129311.1303183-.0980134-.4346874-.3368937-.2283318.1197697-.2063556.4236994-.2175635-.11955-.065269-.173831.11955-.054281.054281.0760373.0980134-.0325246-.0327444-.1305381-.1413063-.0435127.0107683.0870254h-.097574l-.1090015-.1630627-.2496485-.2500881-.2936008-.2065755-.2720643-.0215365-.0272503.0373593c-.1751496-.2856894-.3788681-.5522595-.608958-.7942165zm1.0906742 1.11792461-.0048348.0261516c-.0090102-.014724-.0182401-.029448-.0270306-.044172zm-.4349072 3.0001782.3043691-.1958071.3696381-.0325247.0977937-.2065754.11955-.065269.1630627-.282393.0399966-.1452621c.0127461.0531822.0241737.1065842.0356013.1602059l-.0646098.1696555.0219761.0435127-.0870254.1740508.0105486.0870254-.1736113.2393198.0323049.1516351.065269.0109881.1740508-.2716247v-.1630627l.0870254-.0217564.0087904-.0136252c.0501055.3346961.0766966.6753258.0777954 1.0196914h-1.6429338l-.0417546-.0281294.0107683-.1303183.1415262-.0545008.1085619-.1518549.2608564-.0325246v-.1087817zm-.5348985-4.2389714.1872365.20591613.0977937-.30414933-.1522945-.02175635v-.01274614l.4751235-.47512344.3118409.3234883.2995344-.02219587.0997715.1665789.0336235.25492284.5986291.35491414.1663592-.02219587.3993058.45490539.0887835.232727.2771187.2885463.32195-.0112078.1424052-.3015122c.5311625 1.1748427.8137753 2.4584672.8164124 3.7860438h-2.182667c-.0008791-.4144694-.039557-.8227855-.1101003-1.2225308l.0991122-.1531735h.054281l.11955-.5107248-.0870253-.0219761.0219761-.0865858-.2175635.0105485-.0435127-.054281-.0432929.0977937.1300985.1087817-.0975739.0325247-.0367001.0964751c-.0520834-.2089928-.1136165-.4151287-.1845993-.6177484l.1235057-.1854784-.0327444-.2171239-.1085619-.0219761-.0435127-.2391001.065269-.0540612-.1197698-.1632825-.2063556.0217564-.0687852-.0461498c-.0452708-.0870254-.0931787-.172952-.1419657-.2582193h.2107509l-.0435127-.1087817.1410866-.043293v-.1087817l-.0975739-.0109881-.1413064.1090015-.0437325-.0437324.1195501-.1848191-.0975739-.065269-.1195501.1740508-.1448225-.0725212c-.1149351-.1755891-.2386605-.346783-.3700777-.5129224l.003736-.04505097-.0186797.02505277c-.1428447-.17932505-.2946996-.35271654-.456224-.51951519zm3.1744488-3.17422898c1.0212297 1.04254654 1.8275331 2.24815581 2.3945167 3.58781933.6003872 1.42031585.9056354 2.92875585.9084923 4.48356545h-2.1503622c-.0024173-1.2642855-.2509671-2.4912115-.7397157-3.6464955-.0472487-.1118584-.0980135-.2217389-.1494376-.3313997l.05516-.1166931.1219674.0777954.0443918-.133395-.7210361-1.17528224-.1553711-.04461149-1.0647424-1.2201135-.0006593-.02417372zm-18.9234065 12.59340848c-.58456446-1.3820774-.88739523-2.8478838-.90563539-4.3585214h2.15036212c.01406471.952884.16921603 1.8833524.46061922 2.77778l-.16130463.1072434-.42040294-.2336061-.09339846.0936183-.11691289-.0586762-.06988402.0586762.04680911.1516351-.24547312-.0116473-.14020757-.0819709.0118671-.1283405-.03516177-.1050458h-.07010379l.0118671.1166932-.0118671.0701037-.05823668-.0232946-.17536934.0819708.11691289.0931787-.1518549-.034942-.07010379.0817511.08175112.0349421h-.10526555v.1751495l.04702887.0936183.05823668.0463695h-.09339845l.04658935.1520747.09361821.034942.03318393.0582367.06021453.1054853.03516177.0933985-.21031135-.1285603.08175112.2221785-.14020756-.3039296v.198664l.12856023.3034901.10504579.2571204.32700448.6425814-.03494201-.12878-.2569007-.6192867v-.2331665l.12856023-.2103113.42018318.502154.05845645-.0465893-.07010379-.3153572.08197088.058017.12834047.2223982.21031135.0582367.09339846.1399878.08175112.0118671-.06988402-.1751496.06988402-.0936182.07010378.2452533.15163515.2452534.14020756-.0232947.37381359.6307143.21009159.0584564.05867621-.2569006.08153136.1050457.3155769.4555648.39359209.1050458c.22217845.2812941.45864137.5520398.71378401.80938l-1.52052692 1.5203071c-1.04869985-1.055952-1.87368293-2.2826583-2.45099528-3.6475943zm0-9.00558915c.56566501-1.33768567 1.37086959-2.54175661 2.38968194-3.58320435l1.52052688 1.52030713c-.82168666.84410229-1.47152016 1.81808338-1.92906272 2.89996717-.48852887 1.155284-.73707865 2.38221-.73971578 3.6464955h-2.15014237c.00263713-1.5548096.30788527-3.0632496.90871205-4.48356545zm3.59089598 4.64706775c.00659283.3324985.03648034.661261.08790443.9843098l-.114056-.0613133v.1516351l-.08197088-.034942-.06988402-.1166931-.16350224.069884-.02329468.1404273-.37381359.5720381-.10504579.0235144-.04658935.9574991-.26876779.1287799-.08175112-.0353815-.12856023.0582367-.30370981-.0228552-.03230488-.0140647c-.29843554-.8928892-.46259706-1.8343457-.47732106-2.8010746zm2.09410332-4.93517452 1.5242628 1.52404302c-.351398.370737-.6436802.7977327-.8621227 1.2658238l-.0843883-.0153832.0701038-.0933985-.1751496.1518549-.1402075.0933985-.0351618-.0582367-.2450336.0933984.0116473.0933985.1283405-.0819709.2219587-.0114276.1960269-.0534019c-.0105486.0241737-.0215366.0479079-.0316456.0725211l-.2577798.1793251-.0584564-.0584565-.3037098.2221785-.2687678-.0468091-.1749298.2100916-.2685481.5957722.0465894.163722-.2219587.2918428-.034942.2217389-.0032964.0116473h-.96650923c.00483474-1.7947887.69070903-3.4827735 1.93367773-4.77167222zm.764329 2.96347812c.0131857-.0298875.025712-.0602145.0393372-.0896625l.0426337-.0057138-.0465894.0933984zm.2922822 2.812722.221739.0931787.1520746.1870167.069884-.0465894.2571205.163722.0933985.1166932-.1753694-.0701038-.0347222.0701038.1518549.0815313.1632824.12878v-.0821906l-.034942-.1281207.0701038-.1166932.0817511-.0470288-.1635022-.1984443.1867969.0936182.1169129.1518549.0817511.2098718.1632825.0349421-.3502991.0586762.1285602.2801953.1166931.0118671.0232947-.1169129-.0347223-.1402075.1516352-.0114276.1169129-.1988838.0465893-.2918427.0817511-.034942.0729607-.1153746c.1111991.2248156.2542636.4307318.4269958.6093975l-1.5374485 1.5374485c-.6709306-.6825779-1.1286929-1.5732695-1.2697795-2.565271l.0881242.0081311.2920625.2918427zm-1.6350224-1.1796775.0582367-.3856806.3153572-.1635023.3738135.0936182.078235.1424052c-.0173611.1604256-.0268109.3234883-.0276899.4883091h-.5744555l-.0017581-.0468091zm.6397245 5.04967c-.1353728-.1366913-.2628342-.2793163-.3852412-.4250179l.0021977.0002198.0701037-.2450336-.0116473-.2804151-.2217389-.3852412v-.3971083l-.0817511-.2569007.0582366-.1050458-.233606-.4206227.0235145-.1518549-.12878-.2452533-.1281207-.034942.2100915-.0349421-.0582366-.0819708-.1402076-.3037098-.2454731-.0703236.0586762-.1982245-.0936182-.3153571.1166931-.2685481.2920625-.0235144.0819708-.139768-.0298875-.327444h.1848191l.1136165.034942.1402075.0705433-.0039557-.1054853h.5715986c.0043952.1474596.0160426.2927217.0336234.4364455l-.0057137.0074718-.1285603-.0116473-.1870166.2103113.1639417.0349421.1766879-.1059249c.1531735 1.0104614.6239017 1.9178549 1.3095563 2.6151568zm-.1533932.1529538-.0885637-.1711939c.0419743.0446115.0830697.090102.1261428.1338345zm-.5683022-.5777519-.0232946-.0580169.1166931.0186797c.0230749.0287887.045051.0582366.0685655.0868056zm-.6889509-3.0830282-.2452534.0584565-.1052655-.1050458-.07010383-.0470289-.06351095-.0850475c-.05691812-.3355752-.09010204-.6779629-.0971344-1.0245261h.92057918l-.0123067.0468091-.1283404.2221784-.0821907.0114276-.1514153.4905067.1399878.2219587zm-.2487696 5.1668027c-.1628429-.1643813-.31689544-.3355752-.46611321-.5098457l.14262494.0615331.14020756-.0817511.38524121.2452534.0637307.0193389zm17.381343-11.0805732c-.5907177-1.39702116-1.4367979-2.65163715-2.5138469-3.7291257-1.0774886-1.0772688-2.3321045-1.92290942-3.7293455-2.51384695-1.1053982-.46765157-2.2637588-.75751643-3.4553034-.86893529-.0094497.0586762-.0171413.11251767-.0232946.16218367 1.1776996.10922125 2.3226548.39513041 3.4148673.85728796 1.3653756.57731234 2.5918622 1.40229542 3.6475944 2.45099528l-1.3495528 1.34999229-.0032964-.09559607-.1107596.01120781-.1329554-.06680736-.1997629-.05516003.2771188-.04439174-.0553798-.07757566h-.1553711l.0446115-.1219674-.133395-.33271827-.3549141-.43270956-.3437064-.22195868-.188555-.11075958-.1441632.03318392v-.08878348l-.3327183-.14416326-.1311974.12240692c.2441546.41556819.3696382.84300348.3916143 1.22450871.0171413.29250199.0032964.5713788-.0391175.83706994l.1114189-.06526904.3551339.64302091-.2441546.02241563.1733915.17976456-.412052.41205202-.2103114-.26305401.0195588-.1964664c-.0566984.13537282-.1230662.26657018-.1984443.3929328l.0265911.05340194.2608564.0327444.0257121.05669836-.1254836.12548357c-.0729607-.07186187-.1476795-.14174589-.2230575-.21031135-.0292282.04680911-.0602145.09251942-.0922997.13800996.0674667.0615331.1344938.12328596.1995431.18789572l-1.5242628 1.52426286c-.1248243-.1228465-.2571205-.2377815-.3949107-.3463435-.0558193.0257121-.1122979.0507648-.1696555.0749385.1577884.1197698.3083248.24833.4494114.3869993l-.1966862.1964664-.0026371-.0035162.0325246-.108562-.1522944.0435127-.162843-.0217563v-.1305381l-.1740507.1087817-.1848191.1738311.0872451.0545007.1845993-.1197698.1848191.0652691v.0327444l.124165-.0312061-.426776.4265562-.5019343.1046063-.1413064.1848191-.0977936.0650492-.0109881.0977937.0760373-.0107683.0762571.0650493-.0158228.1087817-.0367001.0369199-.1215278-.0259318-.2881068.045051c-.0553798-.0426336-.1122979-.0832894-.1714137-.1210883l-.0188994-.0217564-.0813116-.0377989c-.1008703-.0580169-.2070149-.1065841-.3162362-.149877l-.0083509.6188471c-.0032964.1962467-.0063731.3804065-.00923.559292l.0672469-.0338432.0584565.0564786-.1283405.1281207c-.0010988.0808721-.0024174.158228-.0037359.2351443l.2432755-.2430557-.0498858.1711939.0714223.0250527.0514241.2617355.13801.1371309-.3261254-.1740508-.0257121.124165c.4256772.172952 1.0073848.4289736 1.4789921.7830087.7140037.5357775 1.0812244 1.2787897.9821122 1.9879587-.0716421.5120433-.3683196.9484888-.8511346 1.2678017l.0136251.0547205-.0975739.11955-.1740507.0219761-.0652691.1087817-.3371135.1413064-.3041493-.010988-.0872452.130538.0545008.0870254-.0010988.0010988c-.0408756.014724-.0819709.0290085-.123286.0426337l-.2127287.0213168-.054281-.0868056-.2388803.0325246-.0032964-.0010988c-.045051.0151635-.0881242.0305468-.1314171.0457103l-.0008791.1689963c0 .0498857-.0103287.4342479-.0259318.9836506.7728997.387219 1.7306185 1.022768 1.6899627 2.7072367 0 0-.0175809.3070062-.1057051.5289649l.0013186.0015383.3340368.0971344c-.655767.1988838-1.3365868.3254661-2.0325702.3749124-.001758.0555995-.0037359.1111991-.0052742.1641615.7324636-.050545 1.4499836-.1848191 2.1457471-.4017232l.1450423.0483474.1518549.1300986.1865772-.0720817.2918427-.0692247.1197698-.108562.3261254-.1410866.3261255-.2285515.3694183-.3696381.0175809-.0443918c.6601623-.3859004 1.2715376-.8495963 1.8255553-1.38889l1.5205269 1.5203071c-1.0416675 1.0188124-2.2455187 1.824017-3.5838637 2.3901215-1.4258098.6032442-2.9408427.9089318-4.5024649.9089318s-3.0766551-.3056876-4.5029044-.9089318c-1.3396636-.5669836-2.54527282-1.373287-3.58803913-2.3942969l1.52052693-1.5203071c.8449813.8236645 1.8207205 1.4748165 2.9045821 1.9332381.9717835.4109532 1.9947713.6500533 3.0476466.7179595-.0015383-.0536217-.0032964-.108562-.0050545-.1646011-2.1962922-.1454818-4.2433666-1.0550729-5.8315799-2.6024106l.3241476-.3239279.2747013.2401989.5720381-.0465894.2338258-.233606.3153571.0116474.2918427.034942.1518549-.1166932-.0116473-.1402075-.1635022-.1870167-.1984443-.3854609-.198664-.0817511-.1237255-.2393199.0758176-.0755978c1.1601187 1.1214408 2.6371329 1.8016013 4.2271043 1.953676-.0015384-.0553798-.0028569-.1105398-.0041755-.1648208-1.5442611-.1522944-2.9793009-.8148741-4.1073345-1.9046693l1.5240431-1.5238233c.4017232.3810657.8695945.6933462 1.384275.9172828.0116473-.054281.025712-.1087818.0437324-.1626232-.4872103-.2144868-.9311276-.5089667-1.3124131-.8704736l1.538767-1.5389869c.2404187.2175635.5245697.3856807.83707.4929241l-.0028569-.1731717c-.26679-.0999913-.5102852-.2481102-.7186187-.4351269l.1013098-.1013099.0538415-.0030766.0929589-.092959.2059162.0265911.11955-.0665876.1327357-.0138449-.004615-.2733828-.4696294-.1531735-.0171414.0153833-.1925107.0334037-.1393285.1925107-.059775.2454731.0026371.0149438c-.1909724-.2129485-.3417285-.4612785-.440621-.7351008l.0140648-.0712026c-.1404274-.063511-.2703062-.1311974-.3907352-.2037186l-.1046063.0523032-.1166931-.069884-.1751496.069884-.0933985-.0819709.1050458-.1050458.1391088-.0279096c-.4812768-.3571118-.7720207-.8153136-.9223373-1.4238321-.0903218-.3661219-.1175721-.7208163-.0870253-1.0585891l-.2160252.0810919-.1364716.0151635c.1424052-.2819535.3140386-.546326.5087469-.7917992.069884-.1909723.1593268-.3740333.2711851-.547205-.0048347.0048347-.010109.0094497-.0149437.0142844l-1.5242628-1.52404304c1.0645226-1.05419388 2.4109987-1.72050946 3.868674-1.92884296-.0008791-.05406123-.0015384-.10922126-.0026372-.16438129-1.5005286.20987183-2.8870012.89332878-3.9816312 1.97762993l-.3691986-.36919861c-.0004395.0010988-.0013185.00241737-.0017581.00351618-.0294479.05999477-.0520833.11141886-.0701037.15559084l.3270044.32722424c-1.2737351 1.32010481-1.97675083 3.04896521-1.98158557 4.88748631h-2.18266701c.0050545-2.4213275.93508338-4.69849179 2.62065088-6.43086835l.6003872.60038726c.0413151.00483475.0885637.00769164.1371309.00373594.0287887-.00219761.0573577-.00681259.0854871-.01274614l-.7087295-.70872947c.4746839-.47116775.992441-.88256048 1.5429425-1.23505725.0314259-.09317869.0734002-.18415978.1250441-.27162469-.6454383.38831782-1.2420896.85355202-1.7835809 1.39108761l-1.5205269-1.52030712c1.05705077-1.05089747 2.2852954-1.87741887 3.6519896-2.4553905 1.0858394-.45930065 2.2233228-.74499005 3.3937703-.85574963l-.0232947-.16196392c-1.1840727.11273744-2.3351812.40216277-3.4342064.86717721-1.3968014.59093753-2.65141733 1.43657815-3.72868613 2.51384695-1.07748855 1.07748855-1.9235687 2.33210454-2.51428647 3.7291257-.61181483 1.4462476-.92189771 2.9825973-.92189771 4.5664154 0 1.5835983.31008288 3.1197282.92189771 4.5664154.59071777 1.3970211 1.43679792 2.6514174 2.51428647 3.7286862 1.0772688 1.0774885 2.33188473 1.9233489 3.72868613 2.5142864 1.4464674.6113753 2.9830369.9218977 4.5666352.9218977s3.119948-.3105224 4.5661956-.9218977c1.397241-.5909375 2.6518569-1.4367979 3.7293455-2.5142864 1.077049-1.0772688 1.9231292-2.3316651 2.5138469-3.7286862.6118149-1.4466872.9218978-2.9828171.9218978-4.5664154 0-1.5838181-.3100829-3.1201678-.9218978-4.5664154zm-4.4123628 5.5192994-.3045889.1087818.0760373.11955.2175635.0217563zm-8.3212532-.1837202c-.0320851-.0129659-.06439-.0263714-.0958158-.0397768l-.0167018.2094323zm.1476795.0573576c-.0485672-.0178006-.0964751-.0362606-.1428447-.05516l.0112078.1320764zm-3.7741768-6.19440545c.0098893-.07361996.023954-.13625187.0399966-.1914119l-.0953763-.09515654c-.0707631.01450423-.1419657.02373419-.2120695.01933897zm4.4833458 3.42146015-.00923-.030327c.0039557-.0021976.0076916-.0048347.0118671-.0070323zm-.0116474-.2918427.0134054.0731805c-.1448225.0716421-.2784372.1606453-.4047999.2586588-.001758.1707543.0648296.352277.1940491.5179768.0553798.0707631.1197698.1314171.2017406.1892143l.2314085-.100211-.0175809-.9937596-.0780152.0081311.0232947-.1166931.0514241-.079993-.0017581-.1004308-.049666.0402162-.1050458.1635023zm-4.1231573 3.7607713-.0465893.0351618-.0351618.0465893-.0815314-.1751495-.034942.034942.034942.1518549.0468091.0936182-.0351617.0582367.0933984.1166931.0582367.1285602.0470289-.011867.0114276-.1984443-.0465894-.1050458zm-.0933984-1.0508974.0933984.2450336-.0582367.0817511.0232947.1283405-.034942.1872364-.0701038.0465893.1166931.3034901.0351618-.0116474-.0351618-.268548.0936183-.4555647-.0703236-.233606zm6.2135246 1.8730236.0219761.0868056-.010109.039557c.3535956-.1736112.4041406-.2742618.4004047-.3199721-.0116473-.1395483-.2191018-.2837115-.5157792-.4241389-.0019779.1063644-.0035162.2008617-.0052743.2852499l.0593355.0632912c-.0199983.0083509-.0406558.0151635-.0608738.0228551-.0010988.0646098-.0021977.123286-.0032965.1755891.0349421-.0123066.0701038-.0230749.103947-.0373593zm1.3047215-5.163726h.1630627l.0325247-.065269-.1413064-.0323049-.054281-.0872452-.1740507.0109881.0870253.11955v.1413064zm-.2500881.1958071-.0762571.054281-.0323048-.0435127-.2065755.3478818.1845993-.0325246.0109881-.1305381.1413064-.1413064.1087817-.0977937-.065269-.0868056zm-.7610326-.1415261-.2173437.0109881-.0654888.1085619h-.0443917l-.0048348.3518375.223497-.1017494zm1.5429425-3.75022276c-.5696207-.24107791-1.1711067-.40479991-1.7914923-.48940792-.0013185.05494027-.0026371.11032006-.0037359.16394176.5909375.08219064 1.1640744.23800125 1.7075436.46545396.0323048-.04636959.0621923-.0931787.0876846-.1399878zm-6.5471219 22.95690126.8592658.0859266s1.0968275-2.4118778 3.8581254-2.5279117c1.7725929-.0742792 3.3225677.812237 5.2107549.9493679 2.2674948.164601 3.8163708-.3142584 5.1138402-1.5497551-1.3721881.7557583-2.9905087.4294131-4.8622138 0-1.2172566-.2795361-2.4648402-.396449-3.3902541-.387219-4.2947907.0426336-6.7895184 3.4295913-6.7895184 3.4295913zm12.9604094-7.9637019c-.4017232.4015035-.9401379.930908-1.463389 2.0541068-.5078678 1.0911138-.5133619 1.5301964-1.007165 2.3246327 1.1223198-.420403 1.9532364.3898561 4.7844184-.6584042 1.309776-.4843534 2.2417827-1.7180921 2.6731737-2.7894273-1.0073848.9106899-1.8224786 1.3728474-3.0219345 1.5497551-1.1814356.1740507-1.9369742.2516264-2.9248002.8328944.619946-.6588437.8522334-1.0267237 1.1814355-1.8985159.3533758-.9346438.296238-1.7385299.6975217-2.4597857-.2883265.3650231-.5173176.6432407-.9192606 1.0447441z"/><path d="m27.3321245 21.4880183c-.2944798 1.5341521-.2074544 2.8166777-.9922212 3.7990097 1.0449639-.8684958 2.0633367-.8630017 3.4673902-1.4917382 1.6743597-.8230052 2.5582387-2.2628798 3.0219346-4.3580819-.3713962.9249744-1.323621 1.7989642-2.3826496 2.4602253-.9038773.5645662-1.8681889.8416849-2.5375811 1.6657889.387219-.4650144.4894079-.6911486.5759937-1.2100045.2716247-1.4207553-.1797645-2.2261797.0342828-3.7093472-.218003.6133532-.9974956 1.8554428-1.1871494 2.8441479z"/><path d="m28.9220959 16.9804989c-.1074631 2.4050652.8770665 2.8984288.1685568 5.110324.6197262-.8909114 1.3535084-1.1583606 2.3050739-1.9947713 1.1845122-1.0469417 2.1617897-2.6285622 2.0725667-4.7650794-.2230575.5975304-.9298091 1.7431449-1.7044669 2.5569201-.7748776.8135555-1.4273482 1.7879762-1.7629234 2.459566.7744381-2.6577904-.6100567-3.6684716-.7775146-5.263058-.0430732.6012663-.2630541 1.4954741-.3012925 1.8960986z"/><path d="m29.3833744 14.2479896c-.2100916-.7805913-.1199895-1.2447267-.3017319-2.1198153.3188733.7812506 2.1787113 2.1653059 1.9846622 4.8292496.1046063-.4880893.4850127-1.9675209 1.0267238-3.0019363.4263365-.8135555.8586065-1.6253529.7555386-2.828325.4896276 1.5851366.4647946 2.4989032.2518462 3.2931197-.2131683.7944363-.7445506 1.4040535-1.2012141 2.0338888-.2997541.4144694-.9359624 1.2236297-1.2396722 1.9760916.0239539-1.6304074-1.0010117-3.1603841-1.2761526-4.1822731z"/><path d="m28.7911183 10.6902776c-.3496399-.6680737-.4845732-1.21923447-.9370612-2.06641342.2795361.36348482.5217128.55753385 1.2172566 1.14737258.957499.81201714 1.6853477 1.72424544 2.0644355 3.24191544.0276899-.9451924.1439435-1.5108574.3375531-2.5639525.1742705-.94914811.1285602-2.03520734-.3103027-3.23532258.8465197 1.02408662 1.5743684 3.04105378 1.1623163 4.39719938-.3263452 1.2875801-.8825604 1.938952-1.0460627 2.847664-.566544-1.8178636-2.0086162-2.8533778-2.4881349-3.7684629z"/><path d="m29.2501992 9.00646822c-.4239191-.34084943-1.4851453-1.00211051-2.0046605-1.61260678-.5179769-.60895794-.7814704-1.19044575-1.1469331-1.72732205.7660871.70433424 1.1840727.91310727 1.9651036 1.39240617.7080701.40436038 1.6657889.94914809 2.0532277 1.80533724-.2322875-.64280115-.3483213-1.49481484-.4261167-2.21211499-.1155944-1.06759931-.5518201-1.71831185-.8713527-2.11102489 1.0445244.83992683 1.6769968 1.54909582 1.9563131 3.0606125.2795361 1.51173644-.038678 2.65383478.0679062 3.46804958-.5544572-1.09990423-1.1702278-1.72248735-1.5934876-2.06333678z"/><path d="m29.4391937 7.42748489c-.4647946-1.39460379-.9506864-2.2261797-1.8982961-3.02193456-1.2412106-1.04254654-2.5584585-1.53107541-3.0801713-1.78248209 1.0157357.72433251.9629931 1.35175038 2.3143039 2.62548558 1.0572705.99617696 1.8011618 1.07463166 2.6641635 2.17893107zm-8.909993 23.42015761-.8592658.0859266s-1.0968276-2.4118778-3.8579057-2.5279117c-1.7728126-.0742792-3.3225677.812237-5.2105351.9493679-2.26793434.164601-3.81659064-.3142584-5.11406003-1.5497551 1.37240792.7557583 2.99050872.4294131 4.86221383 0 1.2172566-.2795361 2.4646204-.396449 3.3900343-.387219 4.2950105.0426336 6.7895185 3.4295913 6.7895185 3.4295913zm-12.96040948-7.9637019c.40216277.4015035.9405774.930908 1.46360876 2.0541068.50786785 1.0911138.51336188 1.5301964 1.00716502 2.3246327-1.12231982-.420403-1.95345621.3898561-4.78441839-.6584042-1.30999577-.4843534-2.2420025-1.7180921-2.67317373-2.7894273 1.00738477.9106899 1.8224786 1.3728474 3.02193456 1.5497551 1.18143554.1740507 1.93697412.2516264 2.92480016.8328944-.619946-.6588437-.85223346-1.0267237-1.18143555-1.8985159-.35315605-.9346438-.29623793-1.7385299-.69752165-2.4597857.28832653.3650231.51753733.6432407.91904082 1.0447441z"/><path d="m6.14166279 21.4880183c.29447984 1.5341521.20745446 2.8166777.99222126 3.7990097-1.04474416-.8684958-2.06333674-.8630017-3.4671705-1.4917382-1.67435964-.8230052-2.55845844-2.2628798-3.02171479-4.3580819.37117646.9249744 1.3234012 1.7989642 2.38221006 2.4602253.90387731.5645662 1.86818891.8416849 2.53758115 1.6657889-.38721902-.4650144-.48918816-.6911486-.57577402-1.2100045-.27184445-1.4207553.17976456-2.2261797-.03428273-3.7093472.21800299.6133532.99749552 1.8554428 1.18692957 2.8441479z"/><path d="m4.55191117 16.9804989c.10746316 2.4050652-.87728622 2.8984288-.16855675 5.110324-.61972623-.8909114-1.35372823-1.1583606-2.30507392-1.9947713-1.1845122-1.0469417-2.16156995-2.6285622-2.07278647-4.7650794.22327725.5975304.92980911 1.7431449 1.70468666 2.5569201.77487756.8135555 1.42712843 1.7879762 1.76292335 2.459566-.77443803-2.6577904.61005675-3.6684716.77751469-5.263058.04285341.6012663.26305401 1.4954741.30129244 1.8960986z"/><path d="m4.09063267 14.2479896c.21009159-.7805913.12020931-1.2447267.30151219-2.1198153-.31887332.7812506-2.17827178 2.1653059-1.98444251 4.8292496-.10460627-.4880893-.4850127-1.9675209-1.02694351-3.0019363-.42611673-.8135555-.85838676-1.6253529-.75531882-2.828325-.48962767 1.5851366-.46501443 2.4989032-.25184619 3.2931197.21294848.7944363.74433076 1.4040535 1.20099428 2.0338888.29997387.4144694.93618218 1.2236297 1.23967223 1.9760916-.0237342-1.6304074 1.0010117-3.1603841 1.27637233-4.1822731z"/><path d="m4.51960629 10.9379483c.44677427-.6588437.64785565-1.46690517 1.10034371-2.31408412-.27953609.36348482-.52193256.55753385-1.2172566 1.14737258-.95749901.81201714-1.6853477 1.72424544-2.06443555 3.24191544-.02790966-.9451924-.14416327-1.5108574-.33755301-2.5639525-.17427054-.94914811-.12856023-2.03520734.31030263-3.23532258-.84651966 1.02408662-1.5745881 3.04105378-1.16231633 4.39719938.32612544 1.2875801.88234072 1.938952 1.04584296 2.847664.56676382-1.8178636 1.74050773-2.6586695 2.32507219-3.5207922z"/><path d="m4.22402764 9.00646822c.42347959-.34084943 1.48514535-1.00211051 2.00444077-1.61260678.51797686-.60895794.78147039-1.19044575 1.1467133-1.72732205-.76586735.70433424-1.18407268.91310727-1.96488378 1.39240617-.70850971.40436038-1.66600872.94914809-2.05322773 1.80533724.23228745-.64280115.3483213-1.49481484.42611672-2.21211499.11537457-1.06759931.55182006-1.71831185.87135267-2.11102489-1.0445244.83992683-1.67721653 1.54909582-1.9563131 3.0606125-.27953609 1.51173644.03867795 2.65383478-.06790617 3.46804958.55445719-1.09990423 1.17022773-1.72248735 1.59370732-2.06333678z"/><path d="m4.03459359 7.42748489c.46479468-1.39460379.95090618-2.2261797 1.89851594-3.02193456 1.24121056-1.04254654 2.55823868-1.53107541 3.07995148-1.78248209-1.01551593.72433251-.96255351 1.35175038-2.31430389 2.62548558-1.05727054.99617696-1.80094202 1.07463166-2.66416353 2.17893107zm12.32595921 12.09850651c-.014724.1696556.0997715 4.7391476.138889 5.2120734.0951566 1.1464936.4423791 1.1625361.5186362.0586762.0224156-.3272242.1810831-5.7036789.1810831-5.893992-.4839139.1518549-.8137753.3406297-.8386083.6232424zm.8454209-2.4501162c.0061533-.0457103.0766966-5.5089707.0810918-5.6964269-.208773.0301073-.8906916.2122892-1.0722143.2830523.0019779.1219674.0854871 5.7326874.0854871 5.7326874s.2072347-.0742792.4098544-.1419656c.2241563-.0674667.3911747-.137131.495781-.1773472zm-1.0911138-7.68152868c.3628256-.11032006.8630018-.15646989 1.2078069-.27953609 0-.46061922.1316369-5.86915906.1507561-6.15352989.0540612-.79795247.8214669-2.95820384-.749605-2.95820384-1.5310754 0-.8528928 2.27804331-.7311451 3.01819861.0465893.28393131.1221871 5.90300227.1221871 6.37307121zm5.5080916-2.22793779c-.0659283-1.13396715-1.1939619-2.69075462-3.8469176-2.86964013-.0098892.37645072-.0208773.80476506-.0316456 1.24956148.1718532.0208773.3153572.04702887.4129311.07010378 1.2689004.30129244 1.8169846 1.01002191 1.8237971 1.72951967.0068126.70279592-.5795099 1.53810777-1.8881871 1.92334893-.1270219.03735939-.2727235.07493853-.4287539.1129572l-.0002197.01010901-.2478905.06966426c-.2100916.04439174-.5025936.11449552-.6806001.15273395-.1916316.04087556-.4107334.08153136-.5597314.1270219l-.3942514.0953763-.0002198-.00285689c-.2876672.08109184-.5489631.16811721-.7522421.26305401-1.4007571.6535694-1.9404903 1.8319283-1.6200787 3.129178.1909724.7739985.6304945 1.3262581 1.7921516 1.7295196.2439348.084608.4889684.163722.7296068.2401989l-.0259319-1.4798711c-.3105224-.1298788-.5397332-.2652516-.7140037-.4887486-.4573228-.5867621-.381725-1.4157009.673348-1.809293v-.0037359l.0534019-.0162623c.0151635-.0052743.0283492-.0114276.0437324-.0164821.5043517-.1656999 1.0379316-.287887 1.565578-.4109532l.1052655-.0270306v.0021976c.7399355-.1733915 1.4631693-.3544746 2.0688308-.6682935 1.0977066-.5683021 2.0171869-1.47459678 1.9220303-3.11137727zm-2.6547138 7.91667297c-.4342478-.3256859-.9735415-.5652255-1.3864726-.7333427-.0096695.5830262-.0175809 1.0443047-.0237342 1.4077895.4935834.2155856.8243238.4551252.8509149.7709218.0259318.3116212-.3263452.5573141-.8792641.7878435v.0026371l-.090102.0336235c-.1340543.0536217-.2775582.1068038-.4302922.1595465-.118671.0421941-.2696468.094717-.4507299.1560304-.1856982.0628516-.3423878.129659-.4467743.1769076-.952005.4588612-1.0027698 1.0535346-.9401379 1.6086511.0520834.4593007.4094149.7636697.8586065.9959572-.0107683-.5228116-.0158228-.8961857-.0107683-.9531038.0213169-.247451.1538328-.4256772.3445854-.5663243.1560304-.1327357.4138101-.2333862.748726-.3643638.4375443-.1716334.8346526-.2762397 1.5033855-.5329206 1.5541503-.5964316 1.5519527-2.0488326.3520572-2.949853zm-5.4590848-8.77945496-.4749037.51336188-.2525055-.04131508.0512043-.22657367.4355665-.41359035.3584303-.02725037zm1.097267.2885463c.2960182-.41227178.6893905-.67488627 1.1084749-.83904779-.0085707-.46611324-.0171414-.91618393-.0252725-1.3115341-.7619117.17910528-1.124957.44567546-1.2836245.4979786-.4285341.14240517-1.0054069.10636436-1.6284296.78432728-.1114188.12152787-.3810657.46193778-.5731368.73971578-.1874562.27118517-.1960269.70675162-.3340369.9405774-.2006418.33887158-.1522944.53270085-.1522944.53270085l.0237342.03889771c-.0270306.08065232-.0843883.20591613-.2072347.34238776-.2085533.23184793-.4825953.35952912-.80938.30744574.2837115.14218542.6768641-.05669835.6768641-.05669835s-.0898823.23690244-.1656999.58676207c.2716247-.61357293.5337997-.9106899.6625797-1.03155849.1309776.03648034.4142496.03538153.962993-.27931633.5955525-.34150871 1.4915184-.90014137 1.7444634-1.25263813zm2.8982091 13.71309116c-.0068126.2340455-.0142845.486551-.0221959.7491655.5966513.2841511 1.1273743.699939 1.3805391 1.5704126.0336234-1.3884504-.6671946-1.9523574-1.3583432-2.3195781z"/></g></svg>